<svg width="25" height="16" viewBox="0 0 25 16" fill="none" xmlns="http://www.w3.org/2000/svg">
<path d="M23.2511 7.03723C21.9031 5.42332 18.0577 0.931665 18.0577 0.931665C17.554 0.339548 16.8152 -6.31994e-08 16.0307 -6.31994e-08C15.2641 -6.31994e-08 14.5363 0.326957 14.034 0.896873C13.8886 1.0618 13.7673 1.24247 13.6696 1.43374H11.3526C11.255 1.24255 11.1336 1.0618 10.9883 0.896873C10.4859 0.326874 9.75808 -6.31994e-08 8.99141 -6.31994e-08C8.20699 -6.31994e-08 7.46818 0.339548 6.96456 0.931582C6.96456 0.931582 3.15328 5.39565 1.82946 6.96864C0.890236 8.08429 0 9.30853 0 10.8675C0 13.6976 2.33965 16 5.2154 16C6.61641 16 7.88923 15.4524 8.82719 14.5647H16.1728C17.1108 15.4524 18.3836 16 19.7846 16C22.6604 16 25 13.6976 25 10.8675C25 9.34606 24.1632 8.12918 23.2511 7.03723ZM11.5896 3.09602H13.4326L14.2319 8.60251H10.7902L11.5896 3.09602ZM5.2154 14.3376C3.27104 14.3376 1.68923 12.781 1.68923 10.8675C1.68923 8.95407 3.27104 7.3974 5.2154 7.3974C7.15976 7.3974 8.74158 8.95407 8.74158 10.8675C8.74158 12.781 7.15976 14.3376 5.2154 14.3376ZM9.93569 2.73394L9.22997 7.5953C8.27256 6.45961 6.82837 5.73504 5.21524 5.73504C5.16936 5.73504 5.12407 5.73727 5.07845 5.73843L8.25968 1.9986C8.4415 1.78488 8.70817 1.66228 8.99125 1.66228C9.27205 1.66228 9.52803 1.77718 9.71204 1.98601C9.89596 2.19468 9.97542 2.46042 9.93569 2.73394ZM10.0016 12.9039C10.2505 12.3394 10.3738 11.6753 10.4348 11.0305C10.4531 10.8379 10.5489 10.2649 10.5489 10.2649H14.4732C14.4732 10.2649 14.5577 10.7694 14.5711 10.9393C14.6263 11.6342 14.7321 12.2999 14.9984 12.9039H10.0016ZM15.7889 7.57368L15.0864 2.73386C15.0466 2.46033 15.1261 2.19468 15.31 1.98593C15.494 1.77718 15.75 1.6622 16.0308 1.6622C16.314 1.6622 16.5806 1.7848 16.7623 1.99852L19.9439 5.73893C19.8909 5.73736 19.838 5.73495 19.7846 5.73495C18.1819 5.73504 16.7463 6.45066 15.7889 7.57368ZM19.7846 14.3376C17.8402 14.3376 16.2584 12.781 16.2584 10.8675C16.2584 8.95407 17.8402 7.3974 19.7846 7.3974C21.729 7.3974 23.3108 8.95407 23.3108 10.8675C23.3108 12.781 21.729 14.3376 19.7846 14.3376Z" fill="#EF4123"/>
</svg>
