<svg width="29" height="27" viewBox="0 0 29 27" fill="none" xmlns="http://www.w3.org/2000/svg">
<path d="M15.6842 24.4286V7.71429H22.9145V12.6L19.4199 20.0571C19.1789 20.4429 19.2994 20.9571 19.4199 21.3429C19.6609 21.7286 20.0224 21.9857 20.5044 21.9857H27.7347C28.0962 21.9857 28.5782 21.7286 28.8192 21.3429C29.0603 20.9571 29.0603 20.4429 28.8192 20.0571L25.3246 12.6V7.71429H27.7347V5.14286H15.6842V0H13.2741V5.14286H1.22369V7.71429H3.63378V12.6L0.139147 20.0571C-0.101862 20.4429 0.0186421 20.9571 0.139147 21.3429C0.380156 21.6 0.862174 21.8571 1.22369 21.8571H8.45396C8.81548 21.8571 9.2975 21.6 9.53851 21.2143C9.77952 20.8286 9.77952 20.3143 9.53851 19.9286L6.04387 12.6V7.71429H13.2741V24.4286H0.0186421V27H28.9397V24.4286H15.6842ZM25.8066 19.2857H22.4325L24.1196 15.6857L25.8066 19.2857ZM6.52589 19.2857H3.15176L4.83883 15.6857L6.52589 19.2857Z" fill="#4F4F4F"/>
</svg>
