<svg width="87" height="86" viewBox="0 0 87 86" fill="none" xmlns="http://www.w3.org/2000/svg">
<ellipse cx="43.2501" cy="43" rx="43.2501" ry="43" fill="#00102A"/>
<path d="M7.37201 -1.7708e-07C3.30757 -1.7708e-07 -9.37399e-08 3.12409 -9.37399e-08 6.96306C-9.37399e-08 10.802 3.30757 13.9261 7.37201 13.9261C11.4364 13.9261 14.744 10.802 14.744 6.96306C14.744 3.12409 11.4364 -1.7708e-07 7.37201 -1.7708e-07ZM7.37201 9.28409C6.01556 9.28409 4.91467 8.24427 4.91467 6.96306C4.91467 5.68186 6.01556 4.64204 7.37201 4.64204C8.72846 4.64204 9.82935 5.68186 9.82935 6.96306C9.82935 8.24427 8.72846 9.28409 7.37201 9.28409Z" transform="translate(27.5228 23.4545)" fill="white"/>
<path d="M7.37201 -1.7708e-07C3.30758 -1.7708e-07 2.24976e-06 3.12409 2.24976e-06 6.96306C2.24976e-06 10.802 3.30758 13.9261 7.37201 13.9261C11.4364 13.9261 14.744 10.802 14.744 6.96306C14.744 3.12409 11.4364 -1.7708e-07 7.37201 -1.7708e-07ZM7.37201 9.28409C6.01556 9.28409 4.91468 8.24427 4.91468 6.96306C4.91468 5.68186 6.01556 4.64204 7.37201 4.64204C8.72846 4.64204 9.82935 5.68186 9.82935 6.96306C9.82935 8.24427 8.72846 9.28409 7.37201 9.28409Z" transform="translate(42.2667 46.6648)" fill="white"/>
<path d="M28.459 0.430963C27.3581 -0.311764 25.8198 -0.0703768 25.0334 0.969441L0.460085 33.4637C-0.331177 34.5036 -0.0756127 35.9565 1.02527 36.6992C1.45777 36.9917 1.95906 37.131 2.45544 37.131C3.22213 37.131 3.97899 36.7921 4.45572 36.1608L29.0291 3.66647C29.8203 2.62201 29.5599 1.17369 28.459 0.430963Z" transform="translate(27.5237 23.4574)" fill="white"/>
</svg>
