<svg width="12" height="12" viewBox="0 0 12 12" version="1.1" xmlns="http://www.w3.org/2000/svg" xmlns:xlink="http://www.w3.org/1999/xlink">
<g id="Canvas" fill="none">
<g id="error">
<g id="Group">
<g id="Vector">
<path d="M 6 0C 2.69169 0 0 2.69146 0 6C 0 9.30854 2.69169 12 6 12C 9.30831 12 12 9.30854 12 6C 12 2.69146 9.30831 0 6 0ZM 6 11.5385C 2.94623 11.5385 0.461538 9.05377 0.461538 6C 0.461538 2.94623 2.94623 0.461538 6 0.461538C 9.05377 0.461538 11.5385 2.94623 11.5385 6C 11.5385 9.05377 9.05377 11.5385 6 11.5385Z" fill="#EF4123"/>
</g>
<g id="Vector_2">
<path d="M 4.54783 0.0676729C 4.4576 -0.0225579 4.31175 -0.0225579 4.22152 0.0676729L 2.30775 1.98144L 0.393981 0.0676729C 0.30375 -0.0225579 0.157904 -0.0225579 0.0676729 0.0676729C -0.0225579 0.157904 -0.0225579 0.30375 0.0676729 0.393981L 1.98144 2.30775L 0.0676729 4.22152C -0.0225579 4.31175 -0.0225579 4.4576 0.0676729 4.54783C 0.112673 4.59283 0.17175 4.61544 0.230827 4.61544C 0.289904 4.61544 0.348981 4.59283 0.393981 4.54783L 2.30775 2.63406L 4.22152 4.54783C 4.26652 4.59283 4.3256 4.61544 4.38467 4.61544C 4.44375 4.61544 4.50283 4.59283 4.54783 4.54783C 4.63806 4.4576 4.63806 4.31175 4.54783 4.22152L 2.63406 2.30775L 4.54783 0.393981C 4.63806 0.30375 4.63806 0.157904 4.54783 0.0676729Z" transform="translate(3.69226 3.69226)" fill="#EF4123"/>
</g>
</g>
</g>
</g>
</svg>

