<svg width="27" height="27" viewBox="0 0 27 27" fill="none" xmlns="http://www.w3.org/2000/svg">
<path d="M27 1.5019C27 0.672415 26.3377 3.89419e-09 25.5206 3.89419e-09H1.47952C1.17487 3.89419e-09 0.877578 0.0955363 0.62841 0.273444C-0.0398964 0.750633 -0.200576 1.68755 0.269465 2.36602L8.98616 14.9471L9.01064 24.0999C9.01217 24.6713 9.1795 25.2295 9.49164 25.7049C10.369 27.0411 12.1473 27.4021 13.4634 26.5114L16.5767 24.4043C17.4039 23.8444 17.8989 22.9002 17.8943 21.891L17.8626 15.0024L26.7255 2.37341C26.9041 2.11891 27 1.81428 27 1.5019ZM14.8995 14.048L14.9355 21.9049L11.9691 23.9126L11.9425 13.9928L4.32889 3.0038H22.6501L14.8995 14.048Z" fill="#4F4F4F"/>
</svg>
