<svg width="16" height="15" viewBox="0 0 16 15" version="1.1" xmlns="http://www.w3.org/2000/svg" xmlns:xlink="http://www.w3.org/1999/xlink">
<title>flashlight</title>
<desc>Created using Figma</desc>
<g id="Canvas" transform="translate(694 82)">
<g id="flashlight">
<g id="Group">
<g id="Group">
<g id="Vector">
<use xlink:href="#path0_fill" transform="translate(-694 -79.9451)" fill="#E54415"/>
</g>
</g>
</g>
<g id="Group">
<g id="Group">
<g id="Vector">
<use xlink:href="#path1_fill" transform="translate(-682.927 -80.1616)" fill="#E54415"/>
</g>
</g>
</g>
<g id="Group">
<g id="Group">
<g id="Vector">
<use xlink:href="#path2_fill" transform="translate(-681.497 -77.2067)" fill="#E54415"/>
</g>
</g>
</g>
<g id="Group">
<g id="Group">
<g id="Vector">
<use xlink:href="#path3_fill" transform="translate(-684.877 -82)" fill="#E54415"/>
</g>
</g>
</g>
</g>
</g>
<defs>
<path id="path0_fill" d="M 13.0191 4.98118L 8.10981 0.182597C 7.86115 -0.0609176 7.45725 -0.0609176 7.20828 0.182909L 6.03771 1.32783C 5.97841 1.38614 5.92231 1.44445 5.86652 1.50618L 5.8662 1.50649C 5.86556 1.50712 5.86492 1.50774 5.86429 1.50837C 5.86365 1.50899 5.86333 1.50961 5.86269 1.51024C 4.9736 2.4896 4.64111 3.83407 4.95129 5.1059L 0.625057 9.33389C -0.208246 10.1489 -0.208884 11.4784 0.626333 12.2997C 1.0449 12.7069 1.59353 12.9102 2.14184 12.9102C 2.69078 12.9102 3.23909 12.7063 3.65606 12.2988L 7.98484 8.06798C 8.3014 8.14219 8.62241 8.18054 8.94215 8.18054C 9.92019 8.18054 10.8813 7.8385 11.6368 7.19308C 11.6391 7.19121 11.6416 7.19027 11.6439 7.1884C 11.6464 7.18622 11.649 7.18372 11.6515 7.18154C 11.655 7.17873 11.6585 7.17624 11.662 7.17343C 11.6646 7.17125 11.6662 7.16845 11.6687 7.16626C 11.7299 7.11544 11.7915 7.06087 11.8485 7.00506L 13.0185 5.86388C 13.1383 5.74696 13.2056 5.58825 13.2059 5.42269C 13.2059 5.25712 13.139 5.0981 13.0191 4.98118ZM 2.75454 11.4167C 2.41695 11.7466 1.86545 11.7466 1.52786 11.4179C 1.18963 11.0853 1.18899 10.5458 1.52626 10.2157L 2.31621 9.44364C 2.33789 9.47451 2.36148 9.50413 2.38953 9.53157C 2.51418 9.65348 2.67708 9.71459 2.84061 9.71459C 3.00383 9.71459 3.16673 9.65379 3.29137 9.53188L 4.35643 8.49078C 4.60572 8.24727 4.60572 7.85253 4.35675 7.60902C 4.3287 7.58158 4.29842 7.55851 4.26686 7.5373L 5.49099 6.34093C 5.54136 6.41732 5.59842 6.48872 5.65389 6.56169C 5.68322 6.60035 5.70936 6.64088 5.74028 6.6783C 5.83368 6.79242 5.93283 6.90155 6.03802 7.00444C 6.14577 7.10983 6.25894 7.20804 6.37594 7.30002C 6.41547 7.33089 6.45786 7.35708 6.49835 7.3867C 6.57103 7.43971 6.64244 7.49459 6.71863 7.5426L 2.75454 11.4167ZM 8.0078 6.7787C 7.60421 6.64182 7.24463 6.42106 6.93923 6.12267C 6.64021 5.83021 6.41547 5.48224 6.27106 5.08937C 6.26755 5.07939 6.26532 5.06911 6.26117 5.05913C 6.01029 4.33108 6.07755 3.54659 6.42885 2.88745L 8.32052 4.73642L 10.2492 6.62155C 9.56697 6.96827 8.75598 7.03344 8.0078 6.7787ZM 11.2454 5.83177L 7.23921 1.91557L 7.65873 1.50525L 11.6655 5.42175L 11.2454 5.83177Z"/>
<path id="path1_fill" d="M 2.16447 0.182636C 1.9155 -0.0608787 1.51192 -0.0608787 1.26263 0.182636L 0.186729 1.23464C -0.0622424 1.47816 -0.0622424 1.8729 0.186729 2.11672C 0.311374 2.23864 0.47459 2.29944 0.637808 2.29944C 0.800707 2.29944 0.963926 2.23864 1.08857 2.11703L 2.16447 1.06471C 2.41344 0.8212 2.41344 0.426463 2.16447 0.182636Z"/>
<path id="path2_fill" d="M 2.15913 4.51979e-08L 0.637569 4.51979e-08C 0.285631 4.51979e-08 -3.3077e-07 0.279371 -3.3077e-07 0.623597C -3.3077e-07 0.967823 0.285631 1.24719 0.637569 1.24719L 2.15913 1.24719C 2.51107 1.24719 2.7967 0.967823 2.7967 0.623597C 2.7967 0.279371 2.51107 4.51979e-08 2.15913 4.51979e-08Z"/>
<path id="path3_fill" d="M 0.63757 0C 0.285631 0 -1.84842e-07 0.279372 -1.84842e-07 0.623597L -1.84842e-07 2.11181C -1.84842e-07 2.45604 0.285631 2.73541 0.63757 2.73541C 0.989508 2.73541 1.27514 2.45604 1.27514 2.1115L 1.27514 0.623597C 1.27514 0.279372 0.989508 0 0.63757 0Z"/>
</defs>
</svg>
