<svg width="34" height="33" viewBox="0 0 34 33" fill="none" xmlns="http://www.w3.org/2000/svg">
<path d="M0 0V33H33V0H0ZM19.2375 17.8883C18.6732 21.5953 15.9094 23.7205 12.3312 23.7205C8.31014 23.7205 5.05011 20.4605 5.05011 16.4394C5.05011 12.4193 8.31014 9.1593 12.3312 9.1593C14.2763 9.1593 15.9807 9.85344 17.2212 11.0584L15.1316 13.1479C14.424 12.435 13.4555 12.055 12.3312 12.055C9.96423 12.055 8.04526 14.0734 8.04526 16.4393C8.04526 18.8074 9.96423 20.7672 12.3312 20.7672C14.3151 20.7672 15.8174 19.8083 16.2508 17.8883H12.3312V14.9643H19.2198C19.3025 15.4354 19.3443 15.9285 19.3443 16.4393C19.3442 16.9461 19.3076 17.4287 19.2375 17.8883ZM27.9811 16.9817H25.4298V19.5319H23.6177V16.9817H21.0664V15.1684H23.6177V12.6172H25.4298V15.1684H27.9811V16.9817Z" transform="translate(0.308594)" fill="#DD4B39"/>
</svg>
