<svg width="18" height="17" viewBox="0 0 18 17" version="1.1" xmlns="http://www.w3.org/2000/svg" xmlns:xlink="http://www.w3.org/1999/xlink">
<title>Group</title>
<desc>Created using Figma</desc>
<g id="Canvas" transform="translate(695 336)">
<g id="Group">
<g id="Group">
<g id="Vector">
<use xlink:href="#path0_fill" transform="translate(-695 -336)" fill="#E54415"/>
</g>
<g id="Vector">
<use xlink:href="#path1_fill" transform="translate(-692.435 -330.146)" fill="#E54415"/>
</g>
</g>
</g>
</g>
<defs>
<path id="path0_fill" d="M 14.535 7.52656L 11.115 7.52656L 11.115 5.85399C 11.115 2.59248 8.4645 0 5.13 0L 1.71 0C 0.7695 0 0 0.752656 0 1.67257L 0 9.19913C 0 9.7009 0.342 10.0354 0.855 10.0354L 10.26 10.0354C 10.773 10.0354 11.115 9.7009 11.115 9.19913L 14.535 9.19913C 15.048 9.19913 15.39 9.53364 15.39 10.0354C 15.39 10.5372 15.048 10.8717 14.535 10.8717L 3.42 10.8717C 1.9665 10.8717 0.855 11.9589 0.855 13.3805C 0.855 14.8022 1.9665 15.8894 3.42 15.8894L 11.115 15.8894L 11.115 16.7257L 12.825 16.7257L 12.825 15.0531C 12.825 14.5513 12.483 14.2168 11.97 14.2168L 3.42 14.2168C 2.907 14.2168 2.565 13.8823 2.565 13.3805C 2.565 12.8788 2.907 12.5443 3.42 12.5443L 14.535 12.5443C 15.9885 12.5443 17.1 11.4571 17.1 10.0354C 17.1 8.61373 15.9885 7.52656 14.535 7.52656ZM 9.405 8.36284L 1.71 8.36284L 1.71 1.67257L 5.13 1.67257C 7.524 1.67257 9.405 3.51239 9.405 5.85399L 9.405 8.36284Z"/>
<path id="path1_fill" d="M 5.13 0L 0 0L 0 1.67257L 5.13 1.67257L 5.13 0Z"/>
</defs>
</svg>
