<svg width="16" height="14" viewBox="0 0 16 14" version="1.1" xmlns="http://www.w3.org/2000/svg" xmlns:xlink="http://www.w3.org/1999/xlink">
<title>Group</title>
<desc>Created using Figma</desc>
<g id="Canvas" transform="translate(694 210)">
<g id="Group">
<g id="Group">
<g id="Vector">
<use xlink:href="#path0_fill" transform="translate(-690.04 -206.144)" fill="#E54415"/>
</g>
<g id="Vector">
<use xlink:href="#path1_fill" transform="translate(-694 -210)" fill="#E54415"/>
</g>
</g>
</g>
</g>
<defs>
<path id="path0_fill" d="M 3.96 0C 1.7424 0 0 1.69658 0 3.85586C 0 6.01514 1.7424 7.71171 3.96 7.71171C 6.1776 7.71171 7.92 6.01514 7.92 3.85586C 7.92 1.69658 6.1776 0 3.96 0ZM 3.96 6.16937C 2.6136 6.16937 1.584 5.16685 1.584 3.85586C 1.584 2.54486 2.6136 1.54234 3.96 1.54234C 5.3064 1.54234 6.336 2.54486 6.336 3.85586C 6.336 5.16685 5.3064 6.16937 3.96 6.16937Z"/>
<path id="path1_fill" d="M 14.256 2.31351L 11.484 2.31351L 10.3752 0.694054C 10.0584 0.231351 9.5832 0 9.0288 0L 6.732 0C 6.2568 8.56172e-17 5.7024 0.231351 5.4648 0.694054L 4.356 2.31351L 1.584 2.31351C 0.7128 2.31351 0 3.00757 0 3.85586L 0 12.3387C 0 13.187 0.7128 13.8811 1.584 13.8811L 14.256 13.8811C 15.1272 13.8811 15.84 13.187 15.84 12.3387L 15.84 3.85586C 15.84 3.00757 15.1272 2.31351 14.256 2.31351ZM 1.584 12.3387L 1.584 3.85586L 5.148 3.85586L 6.732 1.54234L 9.0288 1.54234L 10.6128 3.85586L 14.256 3.85586L 14.256 12.3387L 1.584 12.3387Z"/>
</defs>
</svg>
