<svg xmlns="http://www.w3.org/2000/svg" viewBox="0 0 490.667 490.667" enable-background="new 0 0 490.667 490.667"><path d="M405.333 149.333c-17.673 0-32 14.327-32 32v-21.333c0-17.673-14.327-32-32-32-17.673 0-32 14.327-32 32v-21.333c0-17.673-14.327-32-32-32-17.673 0-32 14.327-32 32v-106.667c0-17.673-14.327-32-32-32s-32 14.327-32 32v266.667l-74.069-37.035c-7.405-3.703-15.571-5.631-23.851-5.632-16.613 0-30.08 13.467-30.08 30.08v.128c-.017 8 3.154 15.677 8.811 21.333l137.941 137.941c28.983 28.954 68.281 45.207 109.248 45.184 70.692 0 128-57.308 128-128v-181.333c0-17.673-14.326-32-32-32z" fill="#FFCC80"/><g fill="#FFB74D"><path d="M256 114.987v119.68c0 5.891-4.776 10.667-10.667 10.667v-106.667c-.042-9.066 3.85-17.705 10.667-23.68zM320 136.32v98.347c0 5.891-4.776 10.667-10.667 10.667v-85.334c-.042-9.066 3.85-17.704 10.667-23.68zM384 157.653v77.013c0 5.891-4.776 10.667-10.667 10.667v-64c-.042-9.065 3.85-17.704 10.667-23.68z"/></g></svg>