<svg width="36" height="22" viewBox="0 0 36 22" version="1.1" xmlns="http://www.w3.org/2000/svg" xmlns:xlink="http://www.w3.org/1999/xlink">
<g id="Canvas" fill="none">
<g id="Group 23">
<g id="Vector">
<path d="M 21.6 11C 21.6 17.0529 16.8 22 10.8 22C 4.85714 22 4.35965e-07 17.0529 4.35965e-07 11C 4.35965e-07 4.94709 4.8 2.22019e-07 10.7429 2.22019e-07C 16.8 2.22019e-07 21.6 4.94709 21.6 11Z" transform="translate(14.4 0)" fill="#FFB600"/>
</g>
<g id="Vector_2">
<path d="M 10.8 2.22019e-07C 16.7429 2.22019e-07 21.6 4.94709 21.6 11C 21.6 17.0529 16.8 22 10.8 22C 4.85714 22 4.35965e-07 17.0529 4.35965e-07 11" transform="translate(14.4 0)" fill="#F7981D"/>
</g>
<g id="Vector_3">
<path d="M -8.71931e-07 2.22019e-07C 5.94286 2.22019e-07 10.8 4.94709 10.8 11C 10.8 17.0529 6 22 -8.71931e-07 22" transform="translate(25.2 0)" fill="#FF8500"/>
</g>
<g id="Vector_4">
<path d="M 10.6857 2.22019e-07C 4.8 0.0582013 0 4.94709 0 11C 0 17.0529 4.8 22 10.8 22C 13.6 22 16.1143 20.8942 18.0571 19.1481C 18.4571 18.7989 18.8 18.3915 19.1429 17.9841L 16.9143 17.9841C 16.6286 17.6349 16.3429 17.2275 16.1143 16.8783L 19.9429 16.8783C 20.1714 16.5291 20.4 16.1217 20.5714 15.7143L 15.4857 15.7143C 15.3143 15.3651 15.1429 14.9577 15.0286 14.5503L 20.9714 14.5503C 21.3143 13.4444 21.5429 12.2804 21.5429 11.0582C 21.5429 10.2434 21.4286 9.48677 21.3143 8.73016L 14.6857 8.73016C 14.7429 8.32275 14.8571 7.97354 14.9714 7.56614L 20.9143 7.56614C 20.8 7.15873 20.6286 6.75132 20.4571 6.40212L 15.4286 6.40212C 15.6 5.99471 15.8286 5.6455 16.0571 5.2381L 19.8857 5.2381C 19.6571 4.83069 19.3714 4.42328 19.0286 4.07407L 16.9143 4.07407C 17.2571 3.66667 17.6 3.31746 18 2.96825C 16.1143 1.16402 13.5429 0.116402 10.7429 0.116402C 10.7429 1.12744e-07 10.7429 2.22019e-07 10.6857 2.22019e-07Z" fill="#FF5050"/>
</g>
<g id="Vector_5">
<path d="M 0 10.8836C 0 16.9365 4.8 21.8836 10.8 21.8836C 13.6 21.8836 16.1143 20.7778 18.0571 19.0317C 18.4571 18.6825 18.8 18.2751 19.1429 17.8677L 16.9143 17.8677C 16.6286 17.5185 16.3429 17.1111 16.1143 16.7619L 19.9429 16.7619C 20.1714 16.4127 20.4 16.0053 20.5714 15.5979L 15.4857 15.5979C 15.3143 15.2487 15.1429 14.8413 15.0286 14.4339L 20.9714 14.4339C 21.3143 13.328 21.5429 12.164 21.5429 10.9418C 21.5429 10.127 21.4286 9.37037 21.3143 8.61376L 14.6857 8.61376C 14.7429 8.20635 14.8571 7.85714 14.9714 7.44974L 20.9143 7.44974C 20.8 7.04233 20.6286 6.63492 20.4571 6.28571L 15.4286 6.28571C 15.6 5.87831 15.8286 5.5291 16.0571 5.12169L 19.8857 5.12169C 19.6571 4.71429 19.3714 4.30688 19.0286 3.95767L 16.9143 3.95767C 17.2571 3.55026 17.6 3.20106 18 2.85185C 16.1143 1.04762 13.5429 1.1101e-07 10.7429 1.1101e-07L 10.6857 1.1101e-07" transform="translate(0 0.116394)" fill="#E52836"/>
</g>
<g id="Vector_6">
<path d="M 0.114285 21.8836C 2.91429 21.8836 5.42857 20.7778 7.37143 19.0317C 7.77143 18.6825 8.11429 18.2751 8.45714 17.8677L 6.22857 17.8677C 5.94286 17.5185 5.65714 17.1111 5.42857 16.7619L 9.25714 16.7619C 9.48571 16.4127 9.71429 16.0053 9.88571 15.5979L 4.8 15.5979C 4.62857 15.2487 4.45714 14.8413 4.34286 14.4339L 10.2857 14.4339C 10.6286 13.328 10.8571 12.164 10.8571 10.9418C 10.8571 10.127 10.7429 9.37037 10.6286 8.61376L 4 8.61376C 4.05714 8.20635 4.17143 7.85714 4.28572 7.44974L 10.2286 7.44974C 10.1143 7.04233 9.94286 6.63492 9.77143 6.28571L 4.74286 6.28571C 4.91429 5.87831 5.14286 5.5291 5.37143 5.12169L 9.2 5.12169C 8.97143 4.71429 8.68571 4.30688 8.34286 3.95767L 6.22857 3.95767C 6.57143 3.55026 6.91429 3.20106 7.31429 2.85185C 5.42857 1.04762 2.85714 1.1101e-07 0.0571424 1.1101e-07L 4.35965e-07 1.1101e-07" transform="translate(10.6857 0.116394)" fill="#CB2026"/>
</g>
<g id="Group">
<g id="Vector_7">
<path d="M 1.65714 5.12169L 1.82857 4.13227C 1.77143 4.13227 1.65714 4.19048 1.54286 4.19048C 1.14286 4.19048 1.08571 3.95767 1.14286 3.84127L 1.48571 1.80423L 2.11429 1.80423L 2.28571 0.698413L 1.71429 0.698413L 1.82857 0L 0.685714 0C 0.685714 0 4.35965e-07 3.84127 4.35965e-07 4.30688C 4.35965e-07 5.00529 0.4 5.2963 0.914285 5.2963C 1.25714 5.2963 1.54286 5.17989 1.65714 5.12169Z" transform="translate(12.9714 8.67194)" fill="white"/>
</g>
<g id="Vector_8">
<path d="M -4.35965e-07 2.62641C -4.35965e-07 4.25604 1.08571 4.66345 2 4.66345C 2.85714 4.66345 3.2 4.48885 3.2 4.48885L 3.42857 3.38303C 3.42857 3.38303 2.8 3.67403 2.22857 3.67403C 0.971429 3.67403 1.2 2.74282 1.2 2.74282L 3.54286 2.74282C 3.54286 2.74282 3.71429 1.9862 3.71429 1.6952C 3.71429 0.938583 3.31429 0.00736628 2.05714 0.00736628C 0.857143 -0.109036 -4.35965e-07 1.17139 -4.35965e-07 2.62641ZM 2 0.938583C 2.62857 0.938583 2.51429 1.6952 2.51429 1.7534L 1.25714 1.7534C 1.25714 1.6952 1.37143 0.938583 2 0.938583Z" transform="translate(15.0285 9.30479)" fill="white"/>
</g>
<g id="Vector_9">
<path d="M 3.14286 5.6455L 3.37143 4.36508C 3.37143 4.36508 2.8 4.65608 2.4 4.65608C 1.6 4.65608 1.25714 4.01587 1.25714 3.31746C 1.25714 1.92063 1.94286 1.16402 2.74286 1.16402C 3.31429 1.16402 3.77143 1.51323 3.77143 1.51323L 3.94286 0.291006C 3.94286 0.291006 3.25714 2.22019e-07 2.62857 2.22019e-07C 1.31428 2.22019e-07 0 1.16402 0 3.37566C 0 4.83069 0.685713 5.82011 2.05714 5.82011C 2.51428 5.82011 3.14286 5.6455 3.14286 5.6455Z" transform="translate(21.1428 8.14813)" fill="white"/>
</g>
<g id="Vector_10">
<path d="M 2.17143 -2.22019e-07C 1.37143 -2.22019e-07 0.8 0.232804 0.8 0.232804L 0.628571 1.22222C 0.628571 1.22222 1.14286 0.989418 1.88571 0.989418C 2.28571 0.989418 2.62857 1.04762 2.62857 1.39682C 2.62857 1.62963 2.57143 1.68783 2.57143 1.68783C 2.57143 1.68783 2.22857 1.68783 2.05714 1.68783C 1.08571 1.68783 1.08991e-07 2.09524 1.08991e-07 3.43386C 1.08991e-07 4.48148 0.685714 4.71429 1.08571 4.71429C 1.88571 4.71429 2.22857 4.19047 2.28571 4.19047L 2.22857 4.65609L 3.25714 4.65609L 3.71429 1.45503C 3.71429 0.0582007 2.57143 -2.22019e-07 2.17143 -2.22019e-07ZM 2.4 2.61905C 2.4 2.79365 2.28571 3.72487 1.6 3.72487C 1.25714 3.72487 1.14286 3.43386 1.14286 3.25926C 1.14286 2.96825 1.31429 2.56085 2.17143 2.56085C 2.34286 2.61905 2.4 2.61905 2.4 2.61905Z" transform="translate(6.1714 9.19575)" fill="white"/>
</g>
<g id="Vector_11">
<path d="M 1.31429 4.77249C 1.6 4.77249 3.02857 4.83069 3.02857 3.25926C 3.02857 1.80423 1.65714 2.09524 1.65714 1.51323C 1.65714 1.22222 1.88571 1.10582 2.28571 1.10582C 2.45714 1.10582 3.08571 1.16402 3.08571 1.16402L 3.25714 0.116402C 3.25714 0.116402 2.85714 -4.44039e-07 2.17143 -4.44039e-07C 1.31429 -4.44039e-07 0.457143 0.349206 0.457143 1.51323C 0.457143 2.85185 1.88571 2.73545 1.88571 3.25926C 1.88571 3.60847 1.48571 3.66667 1.2 3.66667C 0.685714 3.66667 0.171429 3.49206 0.171429 3.49206L -2.17983e-07 4.53968C 0.0571426 4.65608 0.342858 4.77249 1.31429 4.77249Z" transform="translate(9.65712 9.13755)" fill="white"/>
</g>
<g id="Vector_12">
<path d="M 3.25714 -4.44039e-07L 3.02857 1.57143C 3.02857 1.57143 2.57143 0.989418 1.94286 0.989418C 0.914285 0.989418 8.71931e-07 2.26984 8.71931e-07 3.78307C 8.71931e-07 4.71428 0.457144 5.7037 1.42857 5.7037C 2.11429 5.7037 2.51429 5.23809 2.51429 5.23809L 2.45714 5.6455L 3.6 5.6455L 4.45714 0.0582008L 3.25714 -4.44039e-07ZM 2.74286 3.08466C 2.74286 3.72487 2.45714 4.53968 1.82857 4.53968C 1.42857 4.53968 1.2 4.19048 1.2 3.60847C 1.2 2.67725 1.6 2.09524 2.11428 2.09524C 2.51428 2.09524 2.74286 2.38624 2.74286 3.08466Z" transform="translate(30.5143 8.26453)" fill="white"/>
</g>
<g id="Vector_13">
<path d="M 1.08571 5.5873L 1.77143 1.39683L 1.88571 5.5873L 2.68571 5.5873L 4.17143 1.39683L 3.54286 5.5873L 4.74286 5.5873L 5.65714 -4.44039e-07L 3.77143 -4.44039e-07L 2.62857 3.43386L 2.57143 -4.44039e-07L 0.914286 -4.44039e-07L -2.72478e-08 5.5873L 1.08571 5.5873Z" transform="translate(1.02855 8.26453)" fill="white"/>
</g>
<g id="Vector_14">
<path d="M 1.25714 4.53968C 1.6 2.61905 1.65714 1.04762 2.45714 1.33862C 2.57143 0.58201 2.74286 0.291005 2.85714 2.22019e-07C 2.85714 2.22019e-07 2.8 2.22019e-07 2.62857 2.22019e-07C 2.11429 2.22019e-07 1.71429 0.698412 1.71429 0.698412L 1.82857 0.0582015L 0.742857 0.0582015L 0 4.59788L 1.25714 4.59788L 1.25714 4.53968Z" transform="translate(18.5714 9.31216)" fill="white"/>
</g>
<g id="Vector_15">
<path d="M 2.17143 -2.22019e-07C 1.37143 -2.22019e-07 0.8 0.232804 0.8 0.232804L 0.628572 1.22222C 0.628572 1.22222 1.14286 0.989418 1.88571 0.989418C 2.28571 0.989418 2.62857 1.04762 2.62857 1.39682C 2.62857 1.62963 2.57143 1.68783 2.57143 1.68783C 2.57143 1.68783 2.22857 1.68783 2.05714 1.68783C 1.08572 1.68783 -4.35965e-07 2.09524 -4.35965e-07 3.43386C -4.35965e-07 4.48148 0.685715 4.71429 1.08571 4.71429C 1.88571 4.71429 2.22857 4.19047 2.28571 4.19047L 2.22857 4.65609L 3.25714 4.65609L 3.71429 1.45503C 3.77143 0.0582007 2.57143 -2.22019e-07 2.17143 -2.22019e-07ZM 2.45714 2.61905C 2.45714 2.79365 2.34286 3.72487 1.65714 3.72487C 1.31429 3.72487 1.2 3.43386 1.2 3.25926C 1.2 2.96825 1.37143 2.56085 2.22857 2.56085C 2.4 2.61905 2.4 2.61905 2.45714 2.61905Z" transform="translate(24.7428 9.19575)" fill="white"/>
</g>
<g id="Vector_16">
<path d="M 1.25714 4.53968C 1.6 2.61905 1.65714 1.04762 2.45714 1.33862C 2.57143 0.58201 2.74286 0.291005 2.85714 2.22019e-07C 2.85714 2.22019e-07 2.8 2.22019e-07 2.62857 2.22019e-07C 2.11429 2.22019e-07 1.71429 0.698412 1.71429 0.698412L 1.82857 0.0582015L 0.742856 0.0582015L -4.35965e-07 4.59788L 1.25714 4.59788L 1.25714 4.53968Z" transform="translate(28.1714 9.31216)" fill="white"/>
</g>
</g>
<g id="Group_2">
<g id="Vector_17">
<path d="M 0 4.30688C 0 5.00529 0.4 5.2963 0.914286 5.2963C 1.31429 5.2963 1.65714 5.17989 1.77143 5.12169L 1.94286 4.13227C 1.88571 4.13227 1.77143 4.19048 1.65714 4.19048C 1.25714 4.19048 1.2 3.95767 1.25714 3.84127L 1.6 1.80423L 2.22857 1.80423L 2.4 0.698413L 1.82857 0.698413L 1.94286 0" transform="translate(12.8571 8.67194)" fill="#DCE5E5"/>
</g>
<g id="Vector_18">
<path d="M -4.35965e-07 2.62641C -4.35965e-07 4.25604 0.514285 4.66345 1.42857 4.66345C 2.28571 4.66345 2.62857 4.48885 2.62857 4.48885L 2.85714 3.38303C 2.85714 3.38303 2.22857 3.67403 1.65714 3.67403C 0.4 3.67403 0.628571 2.74282 0.628571 2.74282L 2.97143 2.74282C 2.97143 2.74282 3.14286 1.9862 3.14286 1.6952C 3.14286 0.938583 2.74286 0.00736628 1.48571 0.00736628C 0.285714 -0.109036 -4.35965e-07 1.17139 -4.35965e-07 2.62641ZM 1.42857 0.938583C 2.05714 0.938583 2.17143 1.6952 2.17143 1.7534L 0.685714 1.7534C 0.685714 1.6952 0.8 0.938583 1.42857 0.938583Z" transform="translate(15.6 9.30479)" fill="#DCE5E5"/>
</g>
<g id="Vector_19">
<path d="M 2.57143 5.6455L 2.8 4.36508C 2.8 4.36508 2.22857 4.65608 1.82857 4.65608C 1.02857 4.65608 0.685715 4.01587 0.685715 3.31746C 0.685715 1.92063 1.37143 1.16402 2.17143 1.16402C 2.74286 1.16402 3.2 1.51323 3.2 1.51323L 3.37143 0.291006C 3.37143 0.291006 2.68571 2.22019e-07 2.05714 2.22019e-07C 0.742856 2.22019e-07 0 1.16402 0 3.37566C 0 4.83069 0.114285 5.82011 1.48571 5.82011C 1.94286 5.82011 2.57143 5.6455 2.57143 5.6455Z" transform="translate(21.7143 8.14813)" fill="#DCE5E5"/>
</g>
<g id="Vector_20">
<path d="M 0.628571 1.16402C 0.628571 1.16402 1.14286 0.931217 1.88571 0.931217C 2.28571 0.931217 2.62857 0.989418 2.62857 1.33862C 2.62857 1.57143 2.57143 1.62963 2.57143 1.62963C 2.57143 1.62963 2.22857 1.62963 2.05714 1.62963C 1.08571 1.62963 1.08991e-07 2.03704 1.08991e-07 3.37566C 1.08991e-07 4.42328 0.685714 4.65608 1.08571 4.65608C 1.88571 4.65608 2.22857 4.13228 2.28571 4.13228L 2.22857 4.59788L 3.25714 4.59788L 3.71429 1.39683C 3.71429 0.0582011 2.57143 2.22019e-07 2.11429 2.22019e-07L 0.628571 1.16402ZM 2.97143 2.50265C 2.97143 2.67725 2.28571 3.60847 1.6 3.60847C 1.25714 3.60847 1.14286 3.31746 1.14286 3.14286C 1.14286 2.85185 1.31429 2.44444 2.17143 2.44444C 2.34286 2.50265 2.97143 2.50265 2.97143 2.50265Z" transform="translate(6.1714 9.31216)" fill="#DCE5E5"/>
</g>
<g id="Vector_21">
<path d="M 0 4.65608C 0 4.65608 0.342857 4.77249 1.31429 4.77249C 1.6 4.77249 3.02857 4.83069 3.02857 3.25926C 3.02857 1.80423 1.65714 2.09524 1.65714 1.51323C 1.65714 1.22222 1.88571 1.10582 2.28571 1.10582C 2.45714 1.10582 3.08571 1.16402 3.08571 1.16402L 3.25714 0.116402C 3.25714 0.116402 2.85714 -4.44039e-07 2.17143 -4.44039e-07C 1.31429 -4.44039e-07 1.02857 0.349206 1.02857 1.51323C 1.02857 2.85185 1.88571 2.73545 1.88571 3.25926C 1.88571 3.60847 1.48571 3.66667 1.2 3.66667" transform="translate(9.71426 9.13755)" fill="#DCE5E5"/>
</g>
<g id="Vector_22">
<path d="M 2.46129 1.51323C 2.46129 1.51323 2.00415 0.931217 1.37557 0.931217C 0.347003 0.931217 0.00414729 2.21164 0.00414729 3.72487C 0.00414729 4.65608 -0.110138 5.6455 0.86129 5.6455C 1.547 5.6455 1.947 5.17989 1.947 5.17989L 1.88986 5.5873L 3.03272 5.5873L 3.88986 -2.22019e-07L 2.46129 1.51323ZM 2.40415 3.02645C 2.40415 3.66667 1.88986 4.48148 1.26129 4.48148C 0.861288 4.48148 0.632718 4.13228 0.632718 3.55026C 0.632718 2.61905 1.03272 2.03704 1.547 2.03704C 1.947 2.03704 2.40415 2.32804 2.40415 3.02645Z" transform="translate(31.0815 8.32273)" fill="#DCE5E5"/>
</g>
<g id="Vector_23">
<path d="M 1.08571 5.5873L 1.77143 1.39683L 1.88571 5.5873L 2.68571 5.5873L 4.17143 1.39683L 3.54286 5.5873L 4.74286 5.5873L 5.65714 -4.44039e-07L 4.22857 -4.44039e-07L 2.62857 3.43386L 2.57143 -4.44039e-07L 1.94286 -4.44039e-07L -2.72478e-08 5.5873L 1.08571 5.5873Z" transform="translate(1.02855 8.26453)" fill="#DCE5E5"/>
</g>
<g id="Vector_24">
<path d="M -8.71931e-07 4.53968L 1.2 4.53968C 1.54286 2.61905 1.6 1.04762 2.4 1.33862C 2.51429 0.582011 2.68571 0.291006 2.8 2.22019e-07C 2.8 2.22019e-07 2.74286 2.22019e-07 2.57143 2.22019e-07C 2.05714 2.22019e-07 1.65714 0.698412 1.65714 0.698412L 1.77143 0.0582015" transform="translate(18.6285 9.31216)" fill="#DCE5E5"/>
</g>
<g id="Vector_25">
<path d="M 0.628572 1.16402C 0.628572 1.16402 1.14286 0.931217 1.88571 0.931217C 2.28571 0.931217 2.62857 0.989418 2.62857 1.33862C 2.62857 1.57143 2.57143 1.62963 2.57143 1.62963C 2.57143 1.62963 2.22857 1.62963 2.05714 1.62963C 1.08572 1.62963 -4.35965e-07 2.03704 -4.35965e-07 3.37566C -4.35965e-07 4.42328 0.685715 4.65608 1.08571 4.65608C 1.88571 4.65608 2.22857 4.13228 2.28571 4.13228L 2.22857 4.59788L 3.25714 4.59788L 3.71429 1.39683C 3.71429 0.0582011 2.57143 2.22019e-07 2.11429 2.22019e-07L 0.628572 1.16402ZM 2.97143 2.50265C 2.97143 2.67725 2.28571 3.60847 1.6 3.60847C 1.25714 3.60847 1.14286 3.31746 1.14286 3.14286C 1.14286 2.85185 1.31428 2.44444 2.17143 2.44444C 2.4 2.50265 2.97143 2.50265 2.97143 2.50265Z" transform="translate(24.7428 9.31216)" fill="#DCE5E5"/>
</g>
<g id="Vector_26">
<path d="M 8.71931e-07 4.53968L 1.2 4.53968C 1.54286 2.61905 1.6 1.04762 2.4 1.33862C 2.51429 0.582011 2.68571 0.291006 2.8 2.22019e-07C 2.8 2.22019e-07 2.74286 2.22019e-07 2.57143 2.22019e-07C 2.05714 2.22019e-07 1.65714 0.698412 1.65714 0.698412L 1.77143 0.0582015" transform="translate(28.2285 9.31216)" fill="#DCE5E5"/>
</g>
</g>
</g>
</g>
</svg>

