<svg width="22" height="18" viewBox="0 0 22 18" version="1.1" xmlns="http://www.w3.org/2000/svg" xmlns:xlink="http://www.w3.org/1999/xlink">
<g id="Canvas" fill="none">
<g id="museum">
<g id="Group">
<g id="Vector">
<path d="M 20.7513 14.6618L 20.7513 13.8045C 20.7513 13.0235 20.1253 12.3853 19.3409 12.3452L 19.3409 5.35496L 20.2085 5.35496C 20.5082 5.35496 20.7513 5.11601 20.7513 4.82118L 20.7513 2.52554C 20.7513 2.27493 20.574 2.05803 20.3251 2.00421L 11.1166 0.0124772C 11.0397 -0.00415916 10.9602 -0.00415916 10.8834 0.0124772L 1.67486 2.0043C 1.42598 2.05812 1.24866 2.27502 1.24866 2.52563L 1.24866 4.82118C 1.24866 5.11601 1.49175 5.35496 1.79148 5.35496L 2.65908 5.35496L 2.65908 12.3452C 1.87471 12.3853 1.24866 13.0235 1.24866 13.8046L 1.24866 14.6619C 0.539831 14.7874 0 15.3971 0 16.1297L 0 17.4662C 0 17.761 0.243091 18 0.542817 18L 1.79148 18L 20.2085 18L 21.4572 18C 21.7569 18 22 17.761 22 17.4662L 22 16.1297C 22 15.3971 21.4601 14.7874 20.7513 14.6618ZM 2.33429 13.8045C 2.33429 13.5864 2.51478 13.4089 2.73661 13.4089L 19.2634 13.4089C 19.4852 13.4089 19.6657 13.5864 19.6657 13.8045L 19.6657 14.6368L 2.33429 14.6368L 2.33429 13.8045ZM 5.28993 12.3413L 3.74471 12.3413L 3.74471 5.51056L 5.28993 5.51056L 5.28993 12.3413ZM 11.3026 5.35496L 11.3026 12.3413L 10.6975 12.3413L 10.6975 5.35496L 11.3026 5.35496ZM 13.9336 12.3413L 12.3883 12.3413L 12.3883 5.51056L 13.9336 5.51056L 13.9336 12.3413ZM 18.2553 12.3413L 16.7101 12.3413L 16.7101 5.51056L 18.2553 5.51056L 18.2553 12.3413ZM 9.61175 5.51056L 9.61175 12.3413L 8.06644 12.3413L 8.06644 5.51056L 9.61175 5.51056ZM 1.08563 16.1297C 1.08563 15.8952 1.27969 15.7045 1.51808 15.7045L 1.79139 15.7045L 2.3342 15.7045L 19.6656 15.7045L 20.2084 15.7045L 20.4817 15.7045C 20.7202 15.7045 20.9142 15.8953 20.9142 16.1297L 20.9142 16.9324L 19.6655 16.9324L 2.33429 16.9324L 1.08563 16.9324L 1.08563 16.1297ZM 15.6244 12.3413L 15.0192 12.3413L 15.0192 5.35496L 15.6244 5.35496L 15.6244 12.3413ZM 2.33429 2.95471L 11 1.08032L 19.6657 2.95471L 19.6657 4.2873L 2.33429 4.2873L 2.33429 2.95471ZM 6.9808 5.35496L 6.9808 12.3413L 6.37556 12.3413L 6.37556 5.35496L 6.9808 5.35496Z" fill="#EF4123"/>
</g>
</g>
</g>
</g>
</svg>

