<svg width="29" height="29" viewBox="0 0 29 29" fill="none" xmlns="http://www.w3.org/2000/svg">
<path d="M20.5967 15.2184C20.2941 14.9164 19.884 14.7467 19.4564 14.7467C19.0288 14.7467 18.6187 14.9164 18.3161 15.2184L17.6311 15.9034L16.9461 16.5883C16.7391 16.795 16.5926 17.0543 16.5226 17.3383C16.4591 17.5949 16.4591 17.8631 16.5226 18.1197C16.527 18.1369 16.5269 18.155 16.5222 18.1721C16.5176 18.1892 16.5086 18.2049 16.4961 18.2175L16.2818 18.4318L16.0233 18.6904C15.8397 18.8739 15.1762 18.8247 14.2141 18.3847C13.252 17.9447 11.9891 17.1126 10.607 15.7312C9.22495 14.3499 8.39284 13.0885 7.95357 12.125C7.5143 11.1615 7.46358 10.4987 7.64715 10.3151L7.90571 10.0565L8.11999 9.84226C8.13274 9.82972 8.14852 9.82069 8.16579 9.81606C8.18306 9.81143 8.20124 9.81135 8.21856 9.81583C8.27297 9.82937 8.32804 9.84009 8.38355 9.84797C8.63105 9.88338 8.8834 9.86063 9.12057 9.78153C9.35775 9.70243 9.57323 9.56916 9.74993 9.39228L10.4349 8.70732L11.1199 8.02235C11.4218 7.71963 11.5913 7.30956 11.5913 6.88205C11.5913 6.45454 11.4218 6.04448 11.1199 5.74175L8.48569 3.1076L5.8515 0.473452C5.70193 0.323383 5.52421 0.204312 5.32853 0.123067C5.13285 0.0418216 4.92305 -1.39805e-08 4.71118 -1.39805e-08C4.4993 -1.39805e-08 4.28951 0.0418216 4.09383 0.123067C3.89815 0.204312 3.72043 0.323383 3.57086 0.473452L2.88588 1.15842L2.20091 1.84338C1.99354 2.05059 1.84703 2.31074 1.77735 2.59549C1.71385 2.85208 1.71385 3.12028 1.77735 3.37688C1.78136 3.39382 1.78097 3.41151 1.77622 3.42826C1.77147 3.44501 1.76252 3.46027 1.75021 3.47258L1.5695 3.65615C1.45736 3.77043 1.34236 3.88756 1.33165 3.90185C0.60739 4.71181 0.171691 5.75461 0.0416956 6.97526C-0.0882999 8.19591 0.0852655 9.59656 0.568106 11.1179C1.04095 12.6107 1.78735 14.1478 2.76017 15.6562C3.78659 17.2331 4.97698 18.6969 6.31148 20.0232C7.63768 21.3586 9.10149 22.55 10.6785 23.5773C12.187 24.5501 13.7241 25.2965 15.2169 25.7693C15.7855 25.9522 16.3662 26.0954 16.9547 26.1979C17.4838 26.2902 18.0197 26.338 18.5568 26.3407C19.335 26.351 20.1089 26.223 20.8424 25.9629C21.5103 25.7213 22.1173 25.3366 22.6209 24.8358L22.7638 24.6929L22.8659 24.5908C22.8787 24.5783 22.8944 24.5692 22.9117 24.5646C22.929 24.56 22.9472 24.5599 22.9645 24.5644C23.0182 24.5778 23.0725 24.5886 23.1273 24.5965C23.3751 24.6325 23.6278 24.61 23.8653 24.5309C24.1028 24.4518 24.3185 24.3182 24.4951 24.1408L25.178 23.4516L25.8629 22.7666C26.1648 22.4639 26.3343 22.0538 26.3343 21.6263C26.3343 21.1988 26.1648 20.7887 25.8629 20.486L23.2288 17.8519L20.5967 15.2184ZM4.63868 1.68696C4.65785 1.66846 4.68346 1.65812 4.71011 1.65812C4.73675 1.65812 4.76236 1.66846 4.78153 1.68696L7.34287 4.24826L9.90707 6.80956C9.92557 6.82873 9.93591 6.85434 9.93591 6.88098C9.93591 6.90763 9.92557 6.93323 9.90707 6.95241L9.29495 7.56523L8.60711 8.25234L8.59711 8.24234L8.58712 8.23234L7.28002 6.92527L5.97292 5.61819L4.65868 4.30111L3.41444 3.05689C3.39593 3.03772 3.38559 3.01211 3.38559 2.98547C3.38559 2.95882 3.39593 2.93321 3.41444 2.91404L4.02656 2.30193L4.63868 1.68696ZM21.4788 23.693C20.8988 24.273 20.096 24.6108 19.1182 24.7022C18.1404 24.7936 16.9868 24.6386 15.7047 24.2322C14.3326 23.7973 12.9141 23.1052 11.5163 22.2002C10.0496 21.2407 8.68746 20.1301 7.45215 18.8868C6.20879 17.6515 5.09825 16.2894 4.1387 14.8227C3.23301 13.4249 2.54089 12.0057 2.10734 10.6344C1.70092 9.353 1.54593 8.19949 1.63735 7.22096C1.72878 6.24244 2.06591 5.44034 2.64661 4.85966L2.71803 4.78823C2.73721 4.76973 2.76281 4.75939 2.78946 4.75939C2.8161 4.75939 2.84171 4.76973 2.86088 4.78823L4.83224 6.75956L6.80361 8.73089C6.82211 8.75006 6.83245 8.77567 6.83245 8.80231C6.83245 8.82896 6.82211 8.85456 6.80361 8.87374L6.68861 8.98873L6.50147 9.17587C5.72507 9.95368 5.80293 11.2158 6.40648 12.6143C7.01003 14.0128 8.13856 15.5484 9.46208 16.8719C10.4528 17.8626 11.562 18.7439 12.6441 19.3775C13.7262 20.011 14.7805 20.3974 15.6612 20.3974C15.9418 20.401 16.2209 20.3548 16.4854 20.261C16.7386 20.1692 16.9685 20.0229 17.159 19.8325L17.3461 19.6453L17.4604 19.531C17.4796 19.5125 17.5052 19.5022 17.5318 19.5022C17.5585 19.5022 17.5841 19.5125 17.6032 19.531L19.5746 21.5024L21.546 23.4737C21.5645 23.4929 21.5748 23.5185 21.5748 23.5451C21.5748 23.5718 21.5645 23.5974 21.546 23.6166L21.4788 23.693ZM23.4273 22.9252C23.4082 22.9438 23.3826 22.9543 23.3559 22.9543C23.3292 22.9543 23.3036 22.9438 23.2845 22.9252L20.7231 20.3639L18.1618 17.8026C18.1433 17.7834 18.1329 17.7578 18.1329 17.7311C18.1329 17.7045 18.1433 17.6789 18.1618 17.6597L18.7739 17.0476L19.386 16.4355C19.4052 16.417 19.4308 16.4066 19.4575 16.4066C19.4841 16.4066 19.5097 16.417 19.5289 16.4355L22.0902 18.9968L24.6516 21.5581C24.6702 21.5772 24.6807 21.6028 24.6807 21.6295C24.6807 21.6562 24.6702 21.6819 24.6516 21.7009L24.0394 22.3088L23.4273 22.9252Z" transform="translate(1.05713 1.60437)" fill="#4F4F4F" stroke="#4F4F4F" stroke-width="0.75" stroke-miterlimit="10"/>
<mask id="path-2-inside-1" fill="white">
<path d="M18.6145 26.4517C18.0741 26.4491 17.5349 26.4013 17.0024 26.3088C16.4114 26.2064 15.8281 26.0632 15.2568 25.8803C13.7661 25.4081 12.2347 24.666 10.7048 23.6818C9.12397 22.6539 7.65675 21.4611 6.32779 20.1234C4.99013 18.7947 3.7973 17.3278 2.76934 15.7472C1.78295 14.2173 1.04297 12.6859 0.570846 11.1953C0.0880059 9.6711 -0.0898451 8.26688 0.0422932 7.02623C0.174432 5.78558 0.613702 4.74064 1.34653 3.92139C1.35296 3.91282 1.37939 3.88425 1.58724 3.67283L1.7858 3.47142C1.71334 3.19811 1.71089 2.91096 1.77866 2.63646C1.85155 2.34224 2.00344 2.07353 2.21793 1.85935L3.58788 0.490139C3.74276 0.334779 3.92677 0.211511 4.12937 0.127403C4.33198 0.043295 4.54919 2.29395e-08 4.76856 2.29395e-08C4.98793 2.29395e-08 5.20514 0.043295 5.40774 0.127403C5.61035 0.211511 5.79436 0.334779 5.94923 0.490139L11.2176 5.75844C11.5304 6.07178 11.706 6.4964 11.706 6.93909C11.706 7.38179 11.5304 7.80641 11.2176 8.11975L9.84767 9.48968C9.69234 9.64506 9.50779 9.76816 9.30466 9.85189C9.10153 9.93561 8.88384 9.97831 8.66414 9.97751C8.586 9.97749 8.50795 9.97201 8.43058 9.96108C8.36413 9.95164 8.29831 9.93828 8.23344 9.92109L7.73988 10.4146C7.5756 10.5789 7.63275 11.231 8.05773 12.1603C8.422 12.9574 9.17698 14.2266 10.7005 15.7501C12.224 17.2736 13.4933 18.0278 14.2904 18.3928C15.2089 18.8128 15.856 18.8728 16.0296 18.7156L16.0367 18.7099L16.5282 18.2185C16.4558 17.9454 16.4534 17.6586 16.521 17.3843C16.5939 17.0901 16.7458 16.8214 16.9603 16.6072L18.3302 15.2372C18.6436 14.9245 19.0682 14.7489 19.5109 14.7489C19.9536 14.7489 20.3782 14.9245 20.6916 15.2372L25.96 20.5048C26.2725 20.8183 26.448 21.2428 26.448 21.6855C26.448 22.1281 26.2725 22.5527 25.96 22.8661L24.5922 24.2339C24.409 24.4173 24.1856 24.5554 23.9398 24.6374C23.6939 24.7194 23.4323 24.7429 23.1758 24.706C23.1101 24.6965 23.045 24.6832 22.9808 24.666L22.7165 24.9303C22.2072 25.4377 21.5931 25.8278 20.9173 26.0731C20.178 26.3342 19.3984 26.4624 18.6145 26.4517ZM4.76856 0.115158C4.56419 0.114625 4.36175 0.154625 4.17294 0.232844C3.98413 0.311063 3.81271 0.425947 3.6686 0.570849L2.29864 1.93792C2.09911 2.1374 1.95785 2.38758 1.89009 2.66146C1.82446 2.92766 1.82963 3.2064 1.90509 3.46999L1.91437 3.50213L1.8908 3.5257L1.66938 3.74997C1.47296 3.94996 1.4401 3.98496 1.4351 3.99067C0.715127 4.79492 0.285142 5.81772 0.155861 7.03838C0.0265795 8.25903 0.202288 9.65181 0.680128 11.161C1.1494 12.6417 1.88509 14.1609 2.86577 15.6858C3.88921 17.2593 5.07677 18.7198 6.4085 20.0427C7.73142 21.3744 9.19193 22.5619 10.7655 23.5854C12.2869 24.5668 13.809 25.2996 15.2903 25.771C15.8567 25.9526 16.435 26.0949 17.021 26.1967C17.547 26.2886 18.0798 26.3364 18.6138 26.3395C19.3848 26.3487 20.1514 26.2213 20.878 25.9631C21.538 25.7243 22.1379 25.3442 22.6358 24.8496L22.9472 24.5382L22.9794 24.5475C23.0497 24.5676 23.1213 24.5828 23.1936 24.5932C23.4326 24.6273 23.6762 24.6051 23.905 24.5284C24.1338 24.4516 24.3415 24.3224 24.5114 24.1511L25.8814 22.7811C26.1726 22.4891 26.3361 22.0936 26.3361 21.6812C26.3361 21.2688 26.1726 20.8733 25.8814 20.5813L20.6137 15.3151C20.3217 15.0239 19.9261 14.8604 19.5138 14.8604C19.1014 14.8604 18.7058 15.0239 18.4138 15.3151L17.0438 16.685C16.8443 16.8845 16.7031 17.1347 16.6353 17.4086C16.5697 17.6748 16.5748 17.9535 16.6503 18.2171L16.6596 18.2492L16.1167 18.7921C15.8839 19.0206 15.1325 18.9021 14.2447 18.4964C13.439 18.1278 12.1569 17.3664 10.6212 15.8308C9.08555 14.2951 8.32415 13.0131 7.95631 12.2081C7.55918 11.341 7.43704 10.6032 7.64489 10.3511V10.3161H7.67846L8.20273 9.79181L8.23487 9.80109C8.30515 9.82125 8.37675 9.83652 8.44915 9.8468C8.68783 9.88098 8.93119 9.85907 9.15994 9.78282C9.38868 9.70658 9.59651 9.57809 9.76696 9.40754L11.1369 8.03761C11.4281 7.7456 11.5916 7.35005 11.5916 6.93767C11.5916 6.52529 11.4281 6.12973 11.1369 5.83772L5.86852 0.570849C5.72443 0.425915 5.55301 0.31101 5.3642 0.232789C5.17539 0.154568 4.97293 0.114586 4.76856 0.115158ZM18.6102 24.8418C17.7531 24.8418 16.7896 24.6746 15.7439 24.3418C14.3732 23.9075 12.9583 23.2218 11.5419 22.3033C10.0722 21.3418 8.70767 20.2286 7.47061 18.9821C6.224 17.745 5.11079 16.3805 4.14929 14.9108C3.22861 13.4923 2.54292 12.0803 2.10865 10.7082C1.70224 9.42254 1.54296 8.26903 1.63652 7.27193C1.73009 6.27484 2.07508 5.46274 2.66435 4.87563L2.85005 4.68992L7.0192 8.859L6.6035 9.27469C5.71281 10.1646 6.06566 11.6017 6.52136 12.6517C7.09848 13.9887 8.20773 15.5337 9.56482 16.8914C10.5755 17.9021 11.6719 18.7656 12.7347 19.3913C13.8647 20.0534 14.8982 20.4034 15.7232 20.4034C15.9972 20.4069 16.2697 20.3619 16.5282 20.2706C16.7707 20.1821 16.9912 20.0422 17.1746 19.8606L17.5924 19.437L21.7615 23.6061L21.5751 23.7925C20.988 24.3796 20.1816 24.721 19.1795 24.8182C18.9952 24.8339 18.8055 24.8418 18.6102 24.8418ZM2.73577 4.96348C2.17293 5.5306 1.8408 6.31056 1.75009 7.28265C1.65938 8.25474 1.8158 9.40468 2.21793 10.6732C2.64649 12.0303 3.33075 13.438 4.24358 14.848C5.20062 16.3116 6.30881 17.6707 7.54989 18.9028C8.78197 20.1438 10.1411 21.252 11.6048 22.209C13.014 23.1218 14.4189 23.8039 15.7796 24.2346C17.0481 24.6368 18.1888 24.7939 19.1702 24.7025C20.1516 24.611 20.9237 24.2789 21.4916 23.7147L21.6015 23.6047L17.5924 19.5963L17.2581 19.9306C17.0618 20.1271 16.8248 20.2782 16.5639 20.3734C16.2931 20.4704 16.0072 20.5188 15.7196 20.5163C14.8746 20.5163 13.8211 20.1591 12.6733 19.4885C11.6019 18.8606 10.4976 17.9885 9.47982 16.9736C8.11273 15.6065 6.9942 14.0452 6.41207 12.6981C5.74353 11.1489 5.77995 9.93894 6.51707 9.19827L6.85491 8.86042L2.84791 4.85134L2.73577 4.96348ZM23.4079 23.114C23.4008 23.1132 23.3939 23.1111 23.3877 23.1077C23.3814 23.1042 23.3759 23.0996 23.3715 23.094L18.0631 17.7857L19.5138 16.335L24.8629 21.6841L23.5115 23.0354C23.4586 23.0868 23.4322 23.114 23.4079 23.114ZM18.2245 17.7857L23.4122 22.9733L24.055 22.3305L24.6979 21.6876L19.5138 16.4965L18.2245 17.7857ZM8.67842 8.37902L8.62985 8.35474L8.61628 8.33974L3.31789 3.04072L4.76856 1.59008L10.1177 6.93767L8.67842 8.37902ZM3.47932 3.04072L8.66414 8.22831L9.94981 6.93838L4.76856 1.7515L3.47932 3.04072Z"/>
</mask>
<path d="M18.6145 26.4517C18.0741 26.4491 17.5349 26.4013 17.0024 26.3088C16.4114 26.2064 15.8281 26.0632 15.2568 25.8803C13.7661 25.4081 12.2347 24.666 10.7048 23.6818C9.12397 22.6539 7.65675 21.4611 6.32779 20.1234C4.99013 18.7947 3.7973 17.3278 2.76934 15.7472C1.78295 14.2173 1.04297 12.6859 0.570846 11.1953C0.0880059 9.6711 -0.0898451 8.26688 0.0422932 7.02623C0.174432 5.78558 0.613702 4.74064 1.34653 3.92139C1.35296 3.91282 1.37939 3.88425 1.58724 3.67283L1.7858 3.47142C1.71334 3.19811 1.71089 2.91096 1.77866 2.63646C1.85155 2.34224 2.00344 2.07353 2.21793 1.85935L3.58788 0.490139C3.74276 0.334779 3.92677 0.211511 4.12937 0.127403C4.33198 0.043295 4.54919 2.29395e-08 4.76856 2.29395e-08C4.98793 2.29395e-08 5.20514 0.043295 5.40774 0.127403C5.61035 0.211511 5.79436 0.334779 5.94923 0.490139L11.2176 5.75844C11.5304 6.07178 11.706 6.4964 11.706 6.93909C11.706 7.38179 11.5304 7.80641 11.2176 8.11975L9.84767 9.48968C9.69234 9.64506 9.50779 9.76816 9.30466 9.85189C9.10153 9.93561 8.88384 9.97831 8.66414 9.97751C8.586 9.97749 8.50795 9.97201 8.43058 9.96108C8.36413 9.95164 8.29831 9.93828 8.23344 9.92109L7.73988 10.4146C7.5756 10.5789 7.63275 11.231 8.05773 12.1603C8.422 12.9574 9.17698 14.2266 10.7005 15.7501C12.224 17.2736 13.4933 18.0278 14.2904 18.3928C15.2089 18.8128 15.856 18.8728 16.0296 18.7156L16.0367 18.7099L16.5282 18.2185C16.4558 17.9454 16.4534 17.6586 16.521 17.3843C16.5939 17.0901 16.7458 16.8214 16.9603 16.6072L18.3302 15.2372C18.6436 14.9245 19.0682 14.7489 19.5109 14.7489C19.9536 14.7489 20.3782 14.9245 20.6916 15.2372L25.96 20.5048C26.2725 20.8183 26.448 21.2428 26.448 21.6855C26.448 22.1281 26.2725 22.5527 25.96 22.8661L24.5922 24.2339C24.409 24.4173 24.1856 24.5554 23.9398 24.6374C23.6939 24.7194 23.4323 24.7429 23.1758 24.706C23.1101 24.6965 23.045 24.6832 22.9808 24.666L22.7165 24.9303C22.2072 25.4377 21.5931 25.8278 20.9173 26.0731C20.178 26.3342 19.3984 26.4624 18.6145 26.4517ZM4.76856 0.115158C4.56419 0.114625 4.36175 0.154625 4.17294 0.232844C3.98413 0.311063 3.81271 0.425947 3.6686 0.570849L2.29864 1.93792C2.09911 2.1374 1.95785 2.38758 1.89009 2.66146C1.82446 2.92766 1.82963 3.2064 1.90509 3.46999L1.91437 3.50213L1.8908 3.5257L1.66938 3.74997C1.47296 3.94996 1.4401 3.98496 1.4351 3.99067C0.715127 4.79492 0.285142 5.81772 0.155861 7.03838C0.0265795 8.25903 0.202288 9.65181 0.680128 11.161C1.1494 12.6417 1.88509 14.1609 2.86577 15.6858C3.88921 17.2593 5.07677 18.7198 6.4085 20.0427C7.73142 21.3744 9.19193 22.5619 10.7655 23.5854C12.2869 24.5668 13.809 25.2996 15.2903 25.771C15.8567 25.9526 16.435 26.0949 17.021 26.1967C17.547 26.2886 18.0798 26.3364 18.6138 26.3395C19.3848 26.3487 20.1514 26.2213 20.878 25.9631C21.538 25.7243 22.1379 25.3442 22.6358 24.8496L22.9472 24.5382L22.9794 24.5475C23.0497 24.5676 23.1213 24.5828 23.1936 24.5932C23.4326 24.6273 23.6762 24.6051 23.905 24.5284C24.1338 24.4516 24.3415 24.3224 24.5114 24.1511L25.8814 22.7811C26.1726 22.4891 26.3361 22.0936 26.3361 21.6812C26.3361 21.2688 26.1726 20.8733 25.8814 20.5813L20.6137 15.3151C20.3217 15.0239 19.9261 14.8604 19.5138 14.8604C19.1014 14.8604 18.7058 15.0239 18.4138 15.3151L17.0438 16.685C16.8443 16.8845 16.7031 17.1347 16.6353 17.4086C16.5697 17.6748 16.5748 17.9535 16.6503 18.2171L16.6596 18.2492L16.1167 18.7921C15.8839 19.0206 15.1325 18.9021 14.2447 18.4964C13.439 18.1278 12.1569 17.3664 10.6212 15.8308C9.08555 14.2951 8.32415 13.0131 7.95631 12.2081C7.55918 11.341 7.43704 10.6032 7.64489 10.3511V10.3161H7.67846L8.20273 9.79181L8.23487 9.80109C8.30515 9.82125 8.37675 9.83652 8.44915 9.8468C8.68783 9.88098 8.93119 9.85907 9.15994 9.78282C9.38868 9.70658 9.59651 9.57809 9.76696 9.40754L11.1369 8.03761C11.4281 7.7456 11.5916 7.35005 11.5916 6.93767C11.5916 6.52529 11.4281 6.12973 11.1369 5.83772L5.86852 0.570849C5.72443 0.425915 5.55301 0.31101 5.3642 0.232789C5.17539 0.154568 4.97293 0.114586 4.76856 0.115158ZM18.6102 24.8418C17.7531 24.8418 16.7896 24.6746 15.7439 24.3418C14.3732 23.9075 12.9583 23.2218 11.5419 22.3033C10.0722 21.3418 8.70767 20.2286 7.47061 18.9821C6.224 17.745 5.11079 16.3805 4.14929 14.9108C3.22861 13.4923 2.54292 12.0803 2.10865 10.7082C1.70224 9.42254 1.54296 8.26903 1.63652 7.27193C1.73009 6.27484 2.07508 5.46274 2.66435 4.87563L2.85005 4.68992L7.0192 8.859L6.6035 9.27469C5.71281 10.1646 6.06566 11.6017 6.52136 12.6517C7.09848 13.9887 8.20773 15.5337 9.56482 16.8914C10.5755 17.9021 11.6719 18.7656 12.7347 19.3913C13.8647 20.0534 14.8982 20.4034 15.7232 20.4034C15.9972 20.4069 16.2697 20.3619 16.5282 20.2706C16.7707 20.1821 16.9912 20.0422 17.1746 19.8606L17.5924 19.437L21.7615 23.6061L21.5751 23.7925C20.988 24.3796 20.1816 24.721 19.1795 24.8182C18.9952 24.8339 18.8055 24.8418 18.6102 24.8418ZM2.73577 4.96348C2.17293 5.5306 1.8408 6.31056 1.75009 7.28265C1.65938 8.25474 1.8158 9.40468 2.21793 10.6732C2.64649 12.0303 3.33075 13.438 4.24358 14.848C5.20062 16.3116 6.30881 17.6707 7.54989 18.9028C8.78197 20.1438 10.1411 21.252 11.6048 22.209C13.014 23.1218 14.4189 23.8039 15.7796 24.2346C17.0481 24.6368 18.1888 24.7939 19.1702 24.7025C20.1516 24.611 20.9237 24.2789 21.4916 23.7147L21.6015 23.6047L17.5924 19.5963L17.2581 19.9306C17.0618 20.1271 16.8248 20.2782 16.5639 20.3734C16.2931 20.4704 16.0072 20.5188 15.7196 20.5163C14.8746 20.5163 13.8211 20.1591 12.6733 19.4885C11.6019 18.8606 10.4976 17.9885 9.47982 16.9736C8.11273 15.6065 6.9942 14.0452 6.41207 12.6981C5.74353 11.1489 5.77995 9.93894 6.51707 9.19827L6.85491 8.86042L2.84791 4.85134L2.73577 4.96348ZM23.4079 23.114C23.4008 23.1132 23.3939 23.1111 23.3877 23.1077C23.3814 23.1042 23.3759 23.0996 23.3715 23.094L18.0631 17.7857L19.5138 16.335L24.8629 21.6841L23.5115 23.0354C23.4586 23.0868 23.4322 23.114 23.4079 23.114ZM18.2245 17.7857L23.4122 22.9733L24.055 22.3305L24.6979 21.6876L19.5138 16.4965L18.2245 17.7857ZM8.67842 8.37902L8.62985 8.35474L8.61628 8.33974L3.31789 3.04072L4.76856 1.59008L10.1177 6.93767L8.67842 8.37902ZM3.47932 3.04072L8.66414 8.22831L9.94981 6.93838L4.76856 1.7515L3.47932 3.04072Z" transform="translate(1 1.5477)" fill="#4F4F4F" stroke="#4F4F4F" stroke-width="1.5" mask="url(#path-2-inside-1)"/>
<path d="M7.31118 8.12031C7.31118 8.2262 7.33204 8.33107 7.37256 8.4289C7.41309 8.52674 7.47249 8.61563 7.54737 8.69051C7.62225 8.76539 7.71114 8.82479 7.80898 8.86531C7.90682 8.90584 8.01168 8.9267 8.11758 8.9267C8.22347 8.9267 8.32834 8.90584 8.42617 8.86531C8.52401 8.82479 8.61291 8.76539 8.68779 8.69051C8.76267 8.61563 8.82207 8.52674 8.86259 8.4289C8.90312 8.33107 8.92398 8.2262 8.92398 8.12031C8.92595 7.05362 8.71736 5.99704 8.31014 5.01113C7.90293 4.02522 7.30512 3.12939 6.55097 2.375C5.79683 1.6206 4.90119 1.02248 3.91542 0.614928C2.92964 0.207376 1.87311 -0.0015908 0.806401 8.99669e-06C0.59253 8.99669e-06 0.387419 0.0849676 0.23619 0.236195C0.0849602 0.387422 4.79545e-07 0.59253 4.79545e-07 0.806397C4.79545e-07 1.02026 0.0849602 1.22537 0.23619 1.3766C0.387419 1.52783 0.59253 1.61278 0.806401 1.61278C1.66132 1.61128 2.50814 1.77855 3.29827 2.10502C4.08841 2.43148 4.80632 2.91071 5.41084 3.51523C6.01537 4.11974 6.49461 4.83764 6.82108 5.62777C7.14755 6.41789 7.31483 7.26469 7.31332 8.1196L7.31118 8.12031Z" transform="translate(14.929 5.14697)" fill="#EF4123" stroke="#EF4123" stroke-width="0.75" stroke-miterlimit="10"/>
<mask id="path-4-inside-2" fill="white">
<path d="M8.17472 9.03812C7.94569 9.03812 7.72605 8.94714 7.5641 8.7852C7.40215 8.62325 7.31117 8.40361 7.31117 8.17459C7.3124 7.32755 7.14646 6.48859 6.82287 5.70578C6.49928 4.92298 6.0244 4.21173 5.42543 3.61277C4.82647 3.01382 4.11521 2.53895 3.33239 2.21536C2.54958 1.89178 1.7106 1.72584 0.863542 1.72706C0.634516 1.72706 0.414871 1.63609 0.252926 1.47414C0.0909801 1.3122 2.6157e-07 1.09256 2.6157e-07 0.863537C2.6157e-07 0.634515 0.0909801 0.414873 0.252926 0.25293C0.414871 0.0909873 0.634516 8.98721e-06 0.863542 8.98721e-06C1.93775 -0.00159077 3.00171 0.208854 3.99442 0.619277C4.98713 1.0297 5.88907 1.63203 6.64852 2.39173C7.40797 3.15143 8.00999 4.05357 8.42007 5.0464C8.83016 6.03924 9.04023 7.10326 9.03826 8.17745C9.0375 8.40597 8.94619 8.62488 8.78433 8.78621C8.62246 8.94753 8.40325 9.03812 8.17472 9.03812ZM7.42546 8.17459C7.42546 8.37349 7.50447 8.56425 7.64512 8.70489C7.78577 8.84554 7.97653 8.92455 8.17543 8.92455C8.37434 8.92455 8.56509 8.84554 8.70574 8.70489C8.84639 8.56425 8.92541 8.37349 8.92541 8.17459C8.927 7.11553 8.71956 6.06656 8.31496 5.08783C7.91036 4.10909 7.31657 3.21983 6.56762 2.47102C5.81867 1.72222 4.92929 1.12859 3.95047 0.724175C2.97164 0.319758 1.92262 0.112502 0.863542 0.114289C0.664636 0.114289 0.473877 0.193302 0.33323 0.333947C0.192582 0.474593 0.113568 0.665348 0.113568 0.86425C0.113568 1.06315 0.192582 1.25391 0.33323 1.39455C0.473877 1.5352 0.664636 1.61421 0.863542 1.61421C1.72597 1.61271 2.58021 1.78146 3.37728 2.1108C4.17435 2.44013 4.89856 2.92357 5.50839 3.53339C6.11822 4.14321 6.60167 4.86741 6.93101 5.66447C7.26035 6.46152 7.42911 7.31575 7.4276 8.17816L7.42546 8.17459Z"/>
</mask>
<path d="M8.17472 9.03812C7.94569 9.03812 7.72605 8.94714 7.5641 8.7852C7.40215 8.62325 7.31117 8.40361 7.31117 8.17459C7.3124 7.32755 7.14646 6.48859 6.82287 5.70578C6.49928 4.92298 6.0244 4.21173 5.42543 3.61277C4.82647 3.01382 4.11521 2.53895 3.33239 2.21536C2.54958 1.89178 1.7106 1.72584 0.863542 1.72706C0.634516 1.72706 0.414871 1.63609 0.252926 1.47414C0.0909801 1.3122 2.6157e-07 1.09256 2.6157e-07 0.863537C2.6157e-07 0.634515 0.0909801 0.414873 0.252926 0.25293C0.414871 0.0909873 0.634516 8.98721e-06 0.863542 8.98721e-06C1.93775 -0.00159077 3.00171 0.208854 3.99442 0.619277C4.98713 1.0297 5.88907 1.63203 6.64852 2.39173C7.40797 3.15143 8.00999 4.05357 8.42007 5.0464C8.83016 6.03924 9.04023 7.10326 9.03826 8.17745C9.0375 8.40597 8.94619 8.62488 8.78433 8.78621C8.62246 8.94753 8.40325 9.03812 8.17472 9.03812ZM7.42546 8.17459C7.42546 8.37349 7.50447 8.56425 7.64512 8.70489C7.78577 8.84554 7.97653 8.92455 8.17543 8.92455C8.37434 8.92455 8.56509 8.84554 8.70574 8.70489C8.84639 8.56425 8.92541 8.37349 8.92541 8.17459C8.927 7.11553 8.71956 6.06656 8.31496 5.08783C7.91036 4.10909 7.31657 3.21983 6.56762 2.47102C5.81867 1.72222 4.92929 1.12859 3.95047 0.724175C2.97164 0.319758 1.92262 0.112502 0.863542 0.114289C0.664636 0.114289 0.473877 0.193302 0.33323 0.333947C0.192582 0.474593 0.113568 0.665348 0.113568 0.86425C0.113568 1.06315 0.192582 1.25391 0.33323 1.39455C0.473877 1.5352 0.664636 1.61421 0.863542 1.61421C1.72597 1.61271 2.58021 1.78146 3.37728 2.1108C4.17435 2.44013 4.89856 2.92357 5.50839 3.53339C6.11822 4.14321 6.60167 4.86741 6.93101 5.66447C7.26035 6.46152 7.42911 7.31575 7.4276 8.17816L7.42546 8.17459Z" transform="translate(14.8718 5.08981)" fill="#EF4123"/>
<path d="M8.17472 9.03812L8.17472 8.28812H8.17472V9.03812ZM7.31117 8.17459L6.56117 8.17351V8.17459H7.31117ZM0.863542 1.72706V2.47706L0.864624 2.47706L0.863542 1.72706ZM2.6157e-07 0.863537H0.75H2.6157e-07ZM0.863542 8.98721e-06V0.75001L0.864659 0.750008L0.863542 8.98721e-06ZM9.03826 8.17745L9.78826 8.17993L9.78826 8.17883L9.03826 8.17745ZM7.42546 8.17459L8.06858 7.78872L6.67546 5.46685V8.17459H7.42546ZM8.92541 8.17459L8.17541 8.17346V8.17459H8.92541ZM0.863542 0.114289V0.86429L0.864807 0.864288L0.863542 0.114289ZM0.863542 1.61421V2.36421L0.864851 2.36421L0.863542 1.61421ZM7.4276 8.17816L6.78448 8.56403L8.17289 10.878L8.1776 8.17947L7.4276 8.17816ZM8.17472 8.28812C8.1446 8.28812 8.11572 8.27615 8.09443 8.25486L7.03377 9.31553C7.33637 9.61813 7.74678 9.78812 8.17472 9.78812V8.28812ZM8.09443 8.25486C8.07313 8.23357 8.06117 8.2047 8.06117 8.17459H6.56117C6.56117 8.60253 6.73117 9.01294 7.03377 9.31553L8.09443 8.25486ZM8.06117 8.17567C8.06254 7.22995 7.87727 6.29326 7.51598 5.41927L6.12975 5.9923C6.41565 6.68391 6.56226 7.42514 6.56118 8.17351L8.06117 8.17567ZM7.51598 5.41927C7.1547 4.54527 6.6245 3.75116 5.95576 3.08244L4.89511 4.14311C5.4243 4.67229 5.84386 5.30069 6.12975 5.9923L7.51598 5.41927ZM5.95576 3.08244C5.28703 2.41372 4.4929 1.88352 3.6189 1.52224L3.04588 2.90848C3.73751 3.19437 4.36592 3.61393 4.89511 4.14311L5.95576 3.08244ZM3.6189 1.52224C2.74489 1.16096 1.80819 0.9757 0.862459 0.977064L0.864624 2.47706C1.61301 2.47598 2.35426 2.62259 3.04588 2.90848L3.6189 1.52224ZM0.863542 0.977064C0.833424 0.977064 0.804543 0.9651 0.783251 0.943808L-0.2774 2.00448C0.0251988 2.30707 0.435608 2.47706 0.863542 2.47706V0.977064ZM0.783251 0.943808C0.76196 0.922517 0.75 0.893642 0.75 0.863537H-0.75C-0.75 1.29147 -0.58 1.70188 -0.2774 2.00448L0.783251 0.943808ZM0.75 0.863537C0.75 0.83343 0.76196 0.804555 0.783251 0.783265L-0.2774 -0.277404C-0.58 0.0251903 -0.75 0.435599 -0.75 0.863537H0.75ZM0.783251 0.783265C0.804543 0.761973 0.833424 0.750009 0.863542 0.750009V-0.749991C0.435608 -0.749991 0.0251988 -0.579998 -0.2774 -0.277404L0.783251 0.783265ZM0.864659 0.750008C1.84017 0.748555 2.80637 0.939664 3.70787 1.31238L4.28098 -0.0738227C3.19705 -0.521956 2.03533 -0.751737 0.862425 -0.74999L0.864659 0.750008ZM3.70787 1.31238C4.60937 1.68509 5.42843 2.23208 6.1181 2.92197L7.17894 1.86149C6.34971 1.03198 5.3649 0.374311 4.28098 -0.0738227L3.70787 1.31238ZM6.1181 2.92197C6.80777 3.61187 7.35447 4.43111 7.72688 5.33272L9.11327 4.76008C8.66551 3.67602 8.00817 2.691 7.17894 1.86149L6.1181 2.92197ZM7.72688 5.33272C8.09928 6.23433 8.29005 7.20058 8.28826 8.17607L9.78826 8.17883C9.79041 7.00593 9.56103 5.84415 9.11327 4.76008L7.72688 5.33272ZM8.28826 8.17497C8.28816 8.205 8.27616 8.23378 8.25488 8.25499L9.31377 9.31742C9.61622 9.01598 9.78684 8.60694 9.78826 8.17993L8.28826 8.17497ZM8.25488 8.25499C8.2336 8.27621 8.20477 8.28812 8.17472 8.28812L8.17471 9.78812C8.60172 9.78812 9.01133 9.61886 9.31377 9.31742L8.25488 8.25499ZM6.67546 8.17459C6.67546 8.57241 6.83349 8.95393 7.11479 9.23523L8.17545 8.17456L8.17546 8.17459H6.67546ZM7.11479 9.23523C7.39609 9.51652 7.77762 9.67455 8.17543 9.67455V8.17455L8.17545 8.17456L7.11479 9.23523ZM8.17543 9.67455C8.57325 9.67455 8.95477 9.51652 9.23607 9.23523L8.17542 8.17456L8.17543 8.17455V9.67455ZM9.23607 9.23523C9.51737 8.95393 9.67541 8.57241 9.67541 8.17459H8.17541L8.17542 8.17456L9.23607 9.23523ZM9.6754 8.17572C9.67715 7.01796 9.45038 5.87125 9.00807 4.8013L7.62185 5.37435C7.98874 6.26188 8.17686 7.21309 8.17541 8.17346L9.6754 8.17572ZM9.00807 4.8013C8.56577 3.73136 7.91664 2.75923 7.0979 1.94064L6.03734 3.00141C6.7165 3.68043 7.25496 4.48682 7.62185 5.37435L9.00807 4.8013ZM7.0979 1.94064C6.27915 1.12206 5.3069 0.473113 4.23686 0.0310095L3.66407 1.41734C4.55168 1.78407 5.35818 2.32238 6.03734 3.00141L7.0979 1.94064ZM4.23686 0.0310095C3.16682 -0.411094 2.02005 -0.637663 0.862276 -0.63571L0.864807 0.864288C1.8252 0.862668 2.77646 1.05061 3.66407 1.41734L4.23686 0.0310095ZM0.863542 -0.635711C0.465729 -0.635711 0.0842053 -0.477684 -0.197096 -0.196387L0.863555 0.864282L0.863542 0.864289V-0.635711ZM-0.197096 -0.196387C-0.478397 0.0849094 -0.636432 0.466432 -0.636432 0.86425H0.863568L0.863555 0.864282L-0.197096 -0.196387ZM-0.636432 0.86425C-0.636432 1.26207 -0.478397 1.64359 -0.197096 1.92489L0.863555 0.864219L0.863568 0.86425H-0.636432ZM-0.197096 1.92489C0.0842047 2.20618 0.465728 2.36421 0.863542 2.36421V0.864212L0.863555 0.864219L-0.197096 1.92489ZM0.864851 2.36421C1.62857 2.36288 2.38504 2.51232 3.09087 2.80396L3.66368 1.41764C2.77538 1.0506 1.82337 0.862536 0.862232 0.864213L0.864851 2.36421ZM3.09087 2.80396C3.79671 3.0956 4.43804 3.52371 4.97806 4.06373L6.03872 3.00306C5.35909 2.32344 4.55198 1.78467 3.66368 1.41764L3.09087 2.80396ZM4.97806 4.06373C5.51809 4.60375 5.9462 5.24506 6.23785 5.95088L7.62416 5.37806C7.25713 4.48977 6.71834 3.68268 6.03872 3.00306L4.97806 4.06373ZM6.23785 5.95088C6.52949 6.6567 6.67893 7.41315 6.6776 8.17685L8.1776 8.17947C8.17928 7.21835 7.9912 6.26634 7.62416 5.37806L6.23785 5.95088ZM8.07072 7.79229L8.06858 7.78872L6.78234 8.56046L6.78448 8.56403L8.07072 7.79229Z" transform="translate(14.8718 5.08981)" fill="#EF4123" mask="url(#path-4-inside-2)"/>
<path d="M9.43753 3.57628C8.30668 2.43926 6.96159 1.53774 5.48008 0.923887C3.99857 0.310035 2.41005 -0.00397024 0.806401 3.78924e-05C0.59253 3.78924e-05 0.387419 0.0849963 0.23619 0.236223C0.0849602 0.38745 4.79545e-07 0.592558 4.79545e-07 0.806425C4.79545e-07 1.02029 0.0849602 1.2254 0.23619 1.37663C0.387419 1.52785 0.59253 1.61281 0.806401 1.61281C2.19883 1.61074 3.57797 1.88357 4.86473 2.41566C6.15148 2.94775 7.32053 3.72863 8.30483 4.71351C9.28913 5.69839 10.0693 6.8679 10.6006 8.15495C11.1319 9.44201 11.4039 10.8213 11.401 12.2137C11.401 12.4276 11.486 12.6327 11.6372 12.7839C11.7885 12.9351 11.9936 13.0201 12.2074 13.0201C12.4213 13.0201 12.6264 12.9351 12.7776 12.7839C12.9289 12.6327 13.0138 12.4276 13.0138 12.2137C13.0187 10.609 12.7051 9.01928 12.0912 7.53663C11.4773 6.05399 10.5753 4.70788 9.43753 3.57628Z" transform="translate(14.929 1.05716)" fill="#EF4123" stroke="#4F4F4F" stroke-width="0.75" stroke-miterlimit="10"/>
<path d="M12.2647 13.1279C12.0368 13.128 11.8181 13.0379 11.6564 12.8773C11.4946 12.7167 11.4029 12.4988 11.4012 12.2708C11.4041 10.8859 11.1336 9.51409 10.6051 8.23397C10.0767 6.95385 9.30072 5.79064 8.32172 4.81107C7.34273 3.83149 6.17998 3.05482 4.90016 2.5256C3.62033 1.99638 2.24862 1.72503 0.863696 1.7271C0.692881 1.72713 0.525895 1.6765 0.383858 1.58162C0.241821 1.48674 0.131115 1.35186 0.0657425 1.19405C0.000370331 1.03624 -0.0167317 0.862594 0.016601 0.695066C0.0499337 0.527538 0.132203 0.373658 0.253003 0.252891C0.332993 0.172424 0.428164 0.108638 0.532996 0.065235C0.637828 0.0218316 0.750235 -0.000326156 0.863696 4.68245e-05C2.47536 -0.00442033 4.0719 0.310811 5.56091 0.927493C7.04993 1.54418 8.40184 2.45006 9.5384 3.59272C10.681 4.72989 11.5867 6.08247 12.2029 7.57209C12.8191 9.06172 13.1336 10.6588 13.1283 12.2708C13.1266 12.4988 13.0348 12.7167 12.8731 12.8773C12.7113 13.0379 12.4926 13.128 12.2647 13.1279ZM0.863696 0.114327C0.664791 0.114327 0.474032 0.19334 0.333384 0.333985C0.192737 0.47463 0.113722 0.665386 0.113722 0.864288C0.113722 1.06319 0.192737 1.25395 0.333384 1.39459C0.474032 1.53524 0.664791 1.61425 0.863696 1.61425C2.26351 1.61218 3.64997 1.88644 4.94356 2.42132C6.23715 2.95619 7.41244 3.74115 8.40203 4.73118C9.39161 5.72122 10.176 6.89685 10.7103 8.19067C11.2446 9.4845 11.5182 10.8711 11.5155 12.2708C11.5155 12.4698 11.5945 12.6605 11.7351 12.8012C11.8758 12.9418 12.0665 13.0208 12.2654 13.0208C12.4644 13.0208 12.6551 12.9418 12.7958 12.8012C12.9364 12.6605 13.0154 12.4698 13.0154 12.2708C13.0187 10.6739 12.7067 9.09207 12.0972 7.61601C11.4878 6.13995 10.5929 4.79874 9.46391 3.66932C8.33493 2.53989 6.99406 1.64447 5.51823 1.03442C4.0424 0.424366 2.46064 0.111691 0.863696 0.114327Z" transform="translate(14.8716 1)" fill="#EF4123" stroke="#EF4123" stroke-width="0.75" stroke-miterlimit="10"/>
<path d="M0.806401 5.753e-05C0.59253 5.753e-05 0.387419 0.0850158 0.23619 0.236243C0.0849602 0.38747 4.79545e-07 0.592578 4.79545e-07 0.806446C4.79545e-07 1.02031 0.0849602 1.22542 0.23619 1.37665C0.387419 1.52787 0.59253 1.61283 0.806401 1.61283C1.12423 1.61122 1.43922 1.67265 1.73316 1.79355C2.0271 1.91446 2.29415 2.09244 2.51886 2.31722C2.74357 2.54199 2.92148 2.80908 3.0423 3.10305C3.16312 3.39702 3.22445 3.71203 3.22275 4.02985C3.22275 4.24372 3.30771 4.44883 3.45894 4.60005C3.61016 4.75128 3.81528 4.83624 4.02915 4.83624C4.24302 4.83624 4.44813 4.75128 4.59936 4.60005C4.75059 4.44883 4.83555 4.24372 4.83555 4.02985C4.83848 3.49989 4.73627 2.97461 4.53484 2.48442C4.33341 1.99422 4.03674 1.54884 3.66203 1.17407C3.28731 0.799288 2.84198 0.502552 2.35181 0.301033C1.86164 0.0995147 1.33637 -0.00278415 0.806401 5.753e-05Z" transform="translate(14.929 9.23743)" fill="#EF4123" stroke="#4F4F4F" stroke-width="0.75" stroke-miterlimit="10"/>
<path d="M4.08414 4.94552C3.85549 4.94552 3.63617 4.85483 3.47428 4.69336C3.3124 4.53188 3.22117 4.31278 3.2206 4.08413C3.22308 3.77392 3.1638 3.46631 3.04622 3.17922C2.92864 2.89214 2.75512 2.63132 2.53575 2.41195C2.31638 2.19259 2.05556 2.01907 1.76847 1.90149C1.48138 1.78392 1.17376 1.72464 0.863542 1.72711C0.634516 1.72711 0.414871 1.63613 0.252926 1.47419C0.0909801 1.31225 2.6157e-07 1.09261 2.6157e-07 0.863585C2.6157e-07 0.634563 0.0909801 0.414921 0.252926 0.252978C0.414871 0.0910353 0.634516 5.69552e-05 0.863542 5.69552e-05C1.40102 -0.00278433 1.93372 0.100993 2.43082 0.305383C2.92792 0.509773 3.37955 0.810718 3.75957 1.1908C4.13959 1.57088 4.44046 2.02256 4.64477 2.51969C4.84908 3.01682 4.95276 3.54953 4.94983 4.08699C4.94851 4.31552 4.85665 4.5342 4.69438 4.69512C4.53212 4.85605 4.31268 4.94609 4.08414 4.94552ZM0.863542 1.61069C1.18893 1.60898 1.51144 1.67182 1.81239 1.79555C2.11334 1.91929 2.38677 2.10147 2.61687 2.33155C2.84696 2.56164 3.02914 2.83507 3.15288 3.13602C3.27661 3.43696 3.33945 3.75946 3.33774 4.08485C3.33774 4.28375 3.41676 4.47451 3.5574 4.61515C3.69805 4.7558 3.88881 4.83481 4.08772 4.83481C4.28662 4.83481 4.47738 4.7558 4.61803 4.61515C4.75868 4.47451 4.83769 4.28375 4.83769 4.08485C4.84063 3.56221 4.73983 3.04418 4.54113 2.56078C4.34244 2.07737 4.04979 1.6382 3.68015 1.2687C3.31051 0.8992 2.87123 0.606717 2.38774 0.408198C1.90426 0.209678 1.38619 0.109067 0.863542 0.112194C0.664636 0.112194 0.473877 0.191208 0.33323 0.331853C0.192582 0.472498 0.113568 0.663254 0.113568 0.862156C0.113568 1.06106 0.192582 1.25181 0.33323 1.39246C0.473877 1.5331 0.664636 1.61212 0.863542 1.61212V1.61069Z" transform="translate(14.8718 9.18243)" fill="#EF4123" stroke="#EF4123" stroke-width="0.75" stroke-miterlimit="10"/>
</svg>
