<svg width="87" height="86" viewBox="0 0 87 86" fill="none" xmlns="http://www.w3.org/2000/svg">
<ellipse cx="43.2501" cy="43" rx="43.2501" ry="43" fill="#00102A"/>
<path d="M49.1479 16.6633C49.1479 15.9949 48.5967 15.5795 47.4935 15.4167L32.6669 13.4392L26.0214 1.11074C25.6475 0.37012 25.1647 -2.17215e-08 24.5741 -2.17215e-08C23.9836 -2.17215e-08 23.5011 0.37012 23.1269 1.11074L16.4811 13.4392L1.6538 15.4167C0.551404 15.5795 0 15.9949 0 16.6633C0 17.0428 0.246218 17.4763 0.73855 17.964L11.4898 27.5556L8.94971 41.1029C8.9103 41.3559 8.89074 41.5371 8.89074 41.645C8.89074 42.0243 8.99399 42.3448 9.20069 42.6069C9.40728 42.8694 9.71723 43 10.1309 43C10.4856 43 10.8792 42.8921 11.3124 42.6751L24.5738 36.28L37.8358 42.6745C38.2496 42.8914 38.6434 43 39.0168 43C39.825 43 40.2287 42.5492 40.2287 41.6456C40.2287 41.4111 40.2188 41.2305 40.199 41.1032L37.6591 27.5564L48.3804 17.9647C48.8923 17.4943 49.1479 17.0606 49.1479 16.6633ZM33.5828 26.3364L35.7088 37.7437L24.5738 32.3513L13.4089 37.7437L15.5652 26.3364L6.52705 18.2888L18.9915 16.609L24.5737 6.25854L30.1557 16.609L42.6212 18.2888L33.5828 26.3364Z" transform="translate(19.6592 19.5455)" fill="white"/>
</svg>
