<svg width="24" height="22" viewBox="0 0 24 22" fill="none" xmlns="http://www.w3.org/2000/svg">
<path d="M12.5601 19.5794V6.18298H18.3502V10.0989L15.5517 16.0757C15.3586 16.3849 15.4552 16.7971 15.5517 17.1062C15.7447 17.4154 16.0342 17.6215 16.4202 17.6215H22.2102C22.4998 17.6215 22.8858 17.4154 23.0788 17.1062C23.2718 16.7971 23.2718 16.3849 23.0788 16.0757L20.2802 10.0989V6.18298H22.2102V4.12198H12.5601V0H10.6301V4.12198H0.979943V6.18298H2.90997V10.0989L0.11143 16.0757C-0.0815726 16.3849 0.0149288 16.7971 0.11143 17.1062C0.304433 17.3123 0.690438 17.5184 0.979943 17.5184H6.77003C7.05953 17.5184 7.44554 17.3123 7.63854 17.0032C7.83154 16.694 7.83154 16.2818 7.63854 15.9727L4.84 10.0989V6.18298H10.6301V19.5794H0.0149288V21.6404H23.1753V19.5794H12.5601ZM20.6662 15.4574H17.9642L19.3152 12.572L20.6662 15.4574ZM5.226 15.4574H2.52396L3.87498 12.572L5.226 15.4574Z" fill="#EF4123"/>
</svg>
