<svg width="16" height="16" viewBox="0 0 16 16" version="1.1" xmlns="http://www.w3.org/2000/svg" xmlns:xlink="http://www.w3.org/1999/xlink">
<g id="Canvas" fill="none">
<g id="Vector">
<path d="M 16 14.8629L 11.6142 10.4772C 12.5076 9.3401 12.9949 7.95939 12.9949 6.49746C 12.9949 4.79188 12.3452 3.16751 11.1269 1.86802C 9.82741 0.649746 8.20304 0 6.49746 0C 4.79188 0 3.16751 0.649746 1.86802 1.86802C 0.649746 3.16751 0 4.79188 0 6.49746C 0 8.20304 0.649746 9.82741 1.86802 11.1269C 3.16751 12.3452 4.79188 12.9949 6.49746 12.9949C 7.95939 12.9949 9.3401 12.5076 10.4772 11.6142L 14.8629 16L 16 14.8629ZM 3.08629 9.90863C 2.11168 9.01523 1.62437 7.79695 1.62437 6.49746C 1.62437 5.19797 2.11168 3.9797 3.08629 3.08629C 3.9797 2.11168 5.19797 1.62437 6.49746 1.62437C 7.79695 1.62437 9.01523 2.11168 9.90863 3.08629C 10.8832 3.9797 11.3706 5.19797 11.3706 6.49746C 11.3706 7.79695 10.8832 9.01523 9.90863 9.90863C 9.01523 10.8832 7.79695 11.3706 6.49746 11.3706C 5.19797 11.3706 3.9797 10.8832 3.08629 9.90863Z" fill="#BDBDBD"/>
</g>
</g>
</svg>

