<svg width="87" height="86" viewBox="0 0 87 86" fill="none" xmlns="http://www.w3.org/2000/svg">
<ellipse cx="43.2501" cy="43" rx="43.2501" ry="43" fill="#00102A"/>
<path d="M48.8323 22.1059L43.0728 14.9483C42.8959 14.7286 42.6489 14.5651 42.401 14.4836L30.5193 10.5725C31.8314 9.26338 33.1578 7.52777 33.1578 5.28672C33.1578 2.32217 30.9564 0 28.146 0C26.7552 0 25.5317 0.562504 24.574 1.63436C23.6163 0.562504 22.3927 0 21.002 0C18.1917 0 15.9902 2.32217 15.9902 5.28663C15.9902 7.30473 17.0181 8.90425 18.6684 10.5645L6.84005 14.4844C6.59143 14.567 6.35241 14.7269 6.17838 14.9392L0.322874 22.097C0.0358582 22.4478 -0.067525 22.9127 0.0439215 23.3511C0.155368 23.7894 0.468589 24.1497 0.88865 24.3228L2.9758 25.1826V38.8428C2.9758 39.4154 3.31907 39.9329 3.84846 40.1586L24.0061 48.7476C24.1862 48.8245 24.3786 48.8636 24.574 48.8636C24.7651 48.8636 24.9581 48.826 25.1414 48.7479L45.3932 40.1596C45.9238 39.9346 46.2681 39.4163 46.2681 38.8428V25.143L48.2592 24.3227C48.6774 24.1505 48.9898 23.7926 49.1026 23.3566C49.2153 22.9207 49.1151 22.4574 48.8323 22.1059ZM21.002 2.8631C22.5481 2.8631 23.146 4.75762 23.1875 4.89553C23.3549 5.52283 23.9209 5.95993 24.5741 5.95993C25.2272 5.95993 25.7932 5.52293 25.9607 4.89553C26.0019 4.75762 26.5998 2.8631 28.146 2.8631C29.5458 2.8631 30.2781 4.08231 30.2781 5.28663C30.2781 6.40028 29.6226 7.49036 28.0862 8.93155C27.3622 9.61068 26.4988 10.3352 25.4991 11.1741C25.1972 11.4274 24.8903 11.6851 24.5749 11.9515C24.3386 11.751 24.1068 11.555 23.8783 11.3619C20.5872 8.58005 18.8699 7.04638 18.8699 5.28663C18.8698 4.08231 19.6023 2.8631 21.002 2.8631ZM3.77618 22.4132L7.78441 17.5135L22.3302 22.3341L18.2727 28.3853C18.1124 28.2764 3.97411 22.4505 3.77618 22.4132ZM23.1341 45.2611L5.85555 37.8988V26.369L18.2633 31.4806C18.905 31.7449 19.6351 31.515 20.0125 30.9522L23.1341 26.2968V45.2611ZM24.5752 20.0602L11.8487 15.8425L21.1063 12.7745C21.4003 13.0252 21.7026 13.2809 22.0129 13.5432C22.5316 13.9818 23.0681 14.4352 23.6309 14.9202C23.9015 15.1534 24.2377 15.27 24.574 15.27C24.9102 15.27 25.2464 15.1535 25.517 14.9202C26.1611 14.3651 26.7688 13.8552 27.3565 13.3621C27.5964 13.1608 27.8279 12.9664 28.053 12.7766L37.3699 15.8435L24.5752 20.0602ZM43.3884 37.8971L26.0138 45.2652V26.2968L29.1354 30.9522C29.5141 31.517 30.2452 31.744 30.8847 31.4806L43.3884 26.3294V37.8971ZM30.8752 28.3853L26.8195 22.3369C28.2533 21.8643 39.8717 18.0352 41.4502 17.5149L45.3866 22.407L30.8752 28.3853Z" transform="translate(19.6592 15.6364)" fill="white"/>
</svg>
