<svg width="34" height="33" viewBox="0 0 34 33" fill="none" xmlns="http://www.w3.org/2000/svg">
<path d="M33 0H0V33H33V0Z" transform="translate(0.762207)" fill="#50ABF1"/>
<path d="M0.00137561 17.5076C2.19761 18.9005 4.80281 19.7066 7.59549 19.7066C15.4412 19.7066 21.8011 13.346 21.8011 5.501C21.8011 5.30513 21.797 5.1107 21.7895 4.91686C22.0732 4.69354 23.8283 3.28681 24.2585 2.38247C24.2585 2.38247 22.8333 2.97479 21.4383 3.11433C21.4356 3.11433 21.4322 3.11498 21.4294 3.11498C21.4294 3.11498 21.4322 3.11361 21.437 3.1102C21.5655 3.02432 23.3624 1.80108 23.6057 0.343591C23.6057 0.343591 22.5976 0.881678 21.1861 1.35242C20.9525 1.43005 20.7078 1.50637 20.4556 1.57711C19.5458 0.606081 18.2525 0 16.817 0C14.0634 0 11.8321 2.23062 11.8321 4.9821C11.8321 5.37037 11.8768 5.74829 11.9613 6.11114C11.5765 6.09535 5.71679 5.76682 1.73041 0.939317C1.73041 0.939317 -0.652062 4.19181 3.15017 7.53633C3.15017 7.53633 1.99435 7.49028 0.997174 6.89448C0.997174 6.89448 0.630918 10.8348 4.93685 11.8423C4.93685 11.8423 4.08956 12.1632 2.73787 11.9344C2.73787 11.9344 3.49376 15.1181 7.31939 15.4157C7.31939 15.4157 4.29427 18.1485 0 17.5073L0.00137561 17.5076Z" transform="translate(5.13281 6.95444)" fill="white"/>
</svg>
