<svg width="20" height="18" viewBox="0 0 20 18" version="1.1" xmlns="http://www.w3.org/2000/svg" xmlns:xlink="http://www.w3.org/1999/xlink">
<g id="Canvas" fill="none">
<g id="wallet (2)">
<g id="Group">
<g id="Group_2">
<g id="Vector">
<path d="M 18.6663 5.56274L 18.6663 2.33817C 18.6663 1.04892 17.6304 -3.38855e-08 16.357 -3.38855e-08L 2.30922 -3.38855e-08C 1.0359 -3.95861e-05 0 1.04884 0 2.33817L 0 15.6618C 0 16.9511 1.0359 18 2.30922 18L 16.357 18C 17.6303 18 18.6663 16.9511 18.6663 15.6618L 18.6663 12.4375C 19.4438 12.1484 20 11.3912 20 10.5049L 20 7.49538C 20 6.60909 19.4438 5.85182 18.6663 5.56274ZM 17.4736 15.6618C 17.4736 16.2851 16.9727 16.7923 16.357 16.7923L 2.30922 16.7923C 1.69359 16.7923 1.19273 16.2851 1.19273 15.6618L 1.19273 2.33817C 1.19273 1.71482 1.69359 1.20769 2.30922 1.20769L 16.357 1.20769C 16.9727 1.20769 17.4736 1.71482 17.4736 2.33817L 17.4736 5.43744L 14.7909 5.43744C 12.8507 5.43744 11.2723 7.0357 11.2723 9.00018C 11.2723 10.9647 12.8507 12.5629 14.7909 12.5629L 17.4736 12.5629L 17.4736 15.6618ZM 18.8073 10.5049C 18.8073 10.9738 18.4306 11.3552 17.9675 11.3552L 14.791 11.3552C 13.5085 11.3552 12.4651 10.2987 12.4651 9.00014C 12.4651 7.70156 13.5085 6.64504 14.791 6.64504L 17.9675 6.64504C 18.4306 6.64504 18.8073 7.02648 18.8073 7.49534L 18.8073 10.5049Z" fill="#EF4123"/>
</g>
</g>
</g>
<g id="Group_3">
<g id="Group_4">
<g id="Vector_2">
<path d="M 1.80891 -3.3797e-08C 0.811484 -3.3797e-08 5.81741e-07 0.821657 5.81741e-07 1.83158C 5.81741e-07 2.84151 0.811484 3.66317 1.80891 3.66317C 2.80633 3.66317 3.61781 2.84151 3.61781 1.83158C 3.61781 0.821657 2.80633 -3.3797e-08 1.80891 -3.3797e-08ZM 1.80891 2.45548C 1.46914 2.45548 1.19273 2.17557 1.19273 1.83158C 1.19273 1.48756 1.46918 1.20765 1.80891 1.20765C 2.14867 1.20765 2.42512 1.48756 2.42512 1.83158C 2.42512 2.17557 2.14867 2.45548 1.80891 2.45548Z" transform="translate(13.2601 7.16856)" fill="#EF4123"/>
</g>
</g>
</g>
</g>
</g>
</svg>

