<svg width="23" height="21" viewBox="0 0 23 21" xmlns="http://www.w3.org/2000/svg" xmlns:xlink="http://www.w3.org/1999/xlink"><title>Group 22</title><desc>Created using Figma</desc><use xlink:href="#a" transform="translate(.444)" fill="#E54415"/><use xlink:href="#b" transform="translate(5.444)" fill="#E54415"/><use xlink:href="#c" transform="translate(4.444 8)" fill="#E54415"/><use xlink:href="#c" transform="translate(9.444 8)" fill="#E54415"/><use xlink:href="#c" transform="translate(14.444 8)" fill="#E54415"/><use xlink:href="#c" transform="translate(4.444 13)" fill="#E54415"/><use xlink:href="#c" transform="translate(9.444 13)" fill="#E54415"/><defs><path id="a" d="M20 2h-3V0h-2v6h2V4h3v15H2V4h2V2H2C.9 2 0 2.9 0 4v15c0 1.1.9 2 2 2h18c1.1 0 2-.9 2-2V4c0-1.1-.9-2-2-2z"/><path id="b" d="M2 4h7V2H2V0H0v6h2V4z"/><path id="c" d="M4 0H0v4h4V0z"/></defs></svg>