<svg width="23" height="24" viewBox="0 0 23 24" xmlns="http://www.w3.org/2000/svg" xmlns:xlink="http://www.w3.org/1999/xlink"><title>Group 4.1</title><desc>Created using Figma</desc><use xlink:href="#a" transform="translate(5.483)" fill="#E54415"/><use xlink:href="#b" transform="translate(9.719 4.2)" fill="#E54415"/><use xlink:href="#c" transform="translate(0 13.2)" fill="#E54415"/><defs><path id="a" d="M6.05 20.4c-.483 0-.846-.24-1.088-.72C4.115 17.88 0 8.76 0 6c0-3.36 2.662-6 6.05-6 3.39 0 6.052 2.64 6.052 6 0 2.76-4.115 11.88-4.962 13.68-.242.48-.605.72-1.09.72zm0-18C3.995 2.4 2.42 3.96 2.42 6c0 1.44 1.937 6.36 3.63 10.2C7.746 12.24 9.682 7.44 9.682 6c0-2.04-1.694-3.6-3.63-3.6z"/><path id="b" d="M1.815 3.6A1.808 1.808 0 0 0 3.63 1.8C3.63.806 2.818 0 1.815 0A1.808 1.808 0 0 0 0 1.8c0 .994.813 1.8 1.815 1.8z"/><path id="c" d="M20.61 10.8H2.459c-.847 0-1.573-.36-2.057-1.08C-.083 9-.083 8.16.159 7.44l2.541-6A2.39 2.39 0 0 1 4.88 0h1.21v2.4H5l-2.54 6h18.15l-2.542-6H16.98V0h1.09c.967 0 1.814.6 2.178 1.44l2.54 6c.364.72.243 1.56-.241 2.28-.363.72-1.21 1.08-1.936 1.08z"/></defs></svg>