<svg width="15" height="15" viewBox="0 0 15 15" xmlns="http://www.w3.org/2000/svg"><g fill="none"><path d="M6.917 9.798c.008-.426.056-.763.146-1.01.089-.247.272-.52.547-.822l.704-.725c.3-.34.451-.705.451-1.095 0-.376-.098-.67-.295-.881-.197-.215-.484-.323-.86-.323-.365 0-.658.097-.88.29-.223.194-.334.453-.334.78h-.993c.007-.58.213-1.048.618-1.403.408-.358.938-.537 1.59-.537.676 0 1.202.183 1.578.548.38.362.57.86.57 1.493 0 .627-.29 1.245-.87 1.853l-.586.58c-.261.29-.392.708-.392 1.252h-.994zM6.875 11.5a.58.58 0 0 1 .145-.402c.1-.111.247-.167.44-.167s.34.056.44.167c.1.107.15.241.15.402 0 .162-.05.296-.15.403-.1.104-.247.156-.44.156s-.34-.052-.44-.156a.58.58 0 0 1-.145-.403z" fill="#BDBDBD"/><circle cx="7.5" cy="7.5" r="7" stroke="#BDBDBD"/></g></svg>