<svg width="18" height="17" viewBox="0 0 18 17" xmlns="http://www.w3.org/2000/svg" xmlns:xlink="http://www.w3.org/1999/xlink"><title>Group</title><desc>Created using Figma</desc><use xlink:href="#a" fill="#E54415"/><use xlink:href="#b" transform="translate(2.565 5.854)" fill="#E54415"/><defs><path id="a" d="M14.535 7.527h-3.42V5.854C11.115 2.592 8.465 0 5.13 0H1.71C.77 0 0 .753 0 1.673v7.526c0 .502.342.836.855.836h9.405c.513 0 .855-.334.855-.836h3.42c.513 0 .855.335.855.836 0 .502-.342.837-.855.837H3.42c-1.454 0-2.565 1.087-2.565 2.508 0 1.422 1.111 2.51 2.565 2.51h7.695v.836h1.71v-1.673c0-.502-.342-.836-.855-.836H3.42c-.513 0-.855-.335-.855-.837 0-.501.342-.836.855-.836h11.115c1.454 0 2.565-1.087 2.565-2.509 0-1.421-1.112-2.508-2.565-2.508zm-5.13.836H1.71v-6.69h3.42c2.394 0 4.275 1.84 4.275 4.181v2.509z"/><path id="b" d="M5.13 0H0v1.673h5.13V0z"/></defs></svg>