<svg width="18" height="14" viewBox="0 0 18 14" xmlns="http://www.w3.org/2000/svg" xmlns:xlink="http://www.w3.org/1999/xlink"><title>Group</title><desc>Created using Figma</desc><use xlink:href="#a" fill="#E54415"/><use xlink:href="#b" transform="translate(6.874 9.321)" fill="#E54415"/><defs><path id="a" d="M17.02 11.418l-1.278-3.806V.777c0-.466-.32-.777-.8-.777H2.16c-.479 0-.799.31-.799.777v6.835L.083 11.418c-.16.466-.08.854.16 1.243.16.31.56.543 1.038.543h14.381c.48 0 .879-.232 1.118-.543.32-.31.4-.777.24-1.243zm-2.956-9.865v5.438H2.88V1.553h11.185zM1.601 11.651L2.64 8.544h11.664l1.038 3.107H1.602z"/><path id="b" d="M3.196 0H0v1.553h3.196V0z"/></defs></svg>