<svg width="87" height="86" viewBox="0 0 87 86" fill="none" xmlns="http://www.w3.org/2000/svg"><ellipse cx="43.25" cy="43" rx="43.25" ry="43" fill="#00102A"/><path d="M68.807 36.209c0-.669-.551-1.084-1.654-1.247l-14.827-1.977-6.645-12.329c-.374-.74-.857-1.11-1.448-1.11-.59 0-1.073.37-1.447 1.11L36.14 32.985l-14.827 1.977c-1.102.163-1.654.578-1.654 1.247 0 .38.246.813.739 1.3l10.751 9.592-2.54 13.547c-.04.253-.06.435-.06.542 0 .38.104.7.31.962.207.263.517.393.931.393.355 0 .748-.107 1.182-.324l13.261-6.395 13.262 6.394c.414.217.808.325 1.181.325.808 0 1.212-.45 1.212-1.354 0-.234-.01-.415-.03-.542l-2.54-13.547L68.04 37.51c.511-.47.767-.904.767-1.301zm-15.565 9.673l2.126 11.407-11.135-5.392-11.165 5.392 2.156-11.407-9.038-8.048 12.465-1.68 5.582-10.35 5.582 10.35 12.465 1.68-9.038 8.048z" fill="#fff"/></svg>