<svg width="16" height="16" viewBox="0 0 16 16" xmlns="http://www.w3.org/2000/svg"><path d="M16 14.863l-4.386-4.386a6.401 6.401 0 0 0 1.38-3.98c0-1.705-.649-3.33-1.867-4.629C9.827.65 8.203 0 6.497 0c-1.705 0-3.33.65-4.629 1.868C.65 3.168 0 4.792 0 6.498c0 1.705.65 3.33 1.868 4.629 1.3 1.218 2.924 1.868 4.63 1.868a6.401 6.401 0 0 0 3.98-1.38L14.862 16 16 14.863zM3.086 9.909c-.974-.894-1.462-2.112-1.462-3.412 0-1.299.488-2.517 1.462-3.41.894-.975 2.112-1.463 3.411-1.463 1.3 0 2.518.488 3.412 1.462.974.894 1.462 2.112 1.462 3.411 0 1.3-.488 2.518-1.462 3.412-.894.974-2.112 1.462-3.412 1.462-1.299 0-2.517-.488-3.41-1.462z" fill="#BDBDBD"/></svg>