<svg width="11" height="10" viewBox="0 0 11 10" xmlns="http://www.w3.org/2000/svg"><g clip-rule="evenodd" fill="none"><path fill-rule="evenodd" d="M5.483.807l1 3.07.057.173h3.419L7.34 5.947l-.147.107.056.173 1 3.07-2.62-1.899-.146-.106-.147.106-2.62 1.898 1-3.07.057-.172-.148-.107L1.007 4.05h3.419l.056-.172 1-3.071z" fill="#fff"/><path d="M5.483.807l1 3.07.057.173h3.419L7.34 5.947l-.147.107.056.173 1 3.07-2.62-1.899-.146-.106-.147.106-2.62 1.898 1-3.07.057-.172-.148-.107L1.007 4.05h3.419l.056-.172 1-3.071z" stroke-width=".5" stroke-miterlimit="8" stroke="#EF4123"/></g></svg>