<svg width="29" height="33" viewBox="0 0 29 33" xmlns="http://www.w3.org/2000/svg"><path d="M7.233 25.752C4.59 23.575 2.9 20.237 2.9 16.493c0-5.534 3.7-10.17 8.7-11.492V1.94C4.98 3.316 0 9.309 0 16.493c0 4.44 1.903 8.421 4.917 11.142 2.333 2.226 3.783-.745 2.316-1.883zM23.96 5.244c-1.486-1.374-3.66.854-2.235 1.957 2.666 2.177 4.374 5.53 4.374 9.292 0 5.535-3.7 10.172-8.7 11.493v3.062C24.02 29.671 29 23.678 29 16.493c0-4.498-1.954-8.526-5.04-11.249zM12.88 7.567l4.72-2.895c.687-.421.688-1.108.004-1.532L12.84.187c-.685-.424-1.238-.104-1.235.717l.026 5.94c.002.82.562 1.144 1.25.723zm3.279 17.869l-4.764 2.953c-.686.424-.684 1.11.003 1.531l4.72 2.896c.686.42 1.247.097 1.25-.724l.026-5.94c.002-.82-.552-1.14-1.235-.716z" fill="#00102A"/></svg>