<svg width="18" height="18" viewBox="0 0 18 18" xmlns="http://www.w3.org/2000/svg" xmlns:xlink="http://www.w3.org/1999/xlink"><title>Group</title><desc>Created using Figma</desc><use xlink:href="#a" fill="#E54415"/><g transform="translate(-407 490)"><use xlink:href="#b" transform="translate(412.284 -484.749)" fill="#E54415"/><mask id="c"><use xlink:href="#b" fill="#fff" transform="translate(412.284 -484.749)"/></mask><g mask="url(#c)"><use xlink:href="#d" transform="translate(412.284 -484.749)" fill="#E54415"/></g></g><g transform="translate(-407 490)"><use xlink:href="#b" transform="translate(416.546 -481.171)" fill="#E54415"/><mask id="e"><use xlink:href="#b" fill="#fff" transform="translate(416.546 -481.171)"/></mask><g mask="url(#e)"><use xlink:href="#d" transform="translate(416.546 -481.171)" fill="#E54415"/></g></g><use xlink:href="#f" transform="rotate(-44.582 16.74 -.617)" fill="#E54415"/><defs><path id="a" d="M9 18c-4.95 0-9-4.05-9-9s4.05-9 9-9 9 4.05 9 9-4.05 9-9 9zM9 1.5C4.875 1.5 1.5 4.875 1.5 9s3.375 7.5 7.5 7.5 7.5-3.375 7.5-7.5S13.125 1.5 9 1.5z"/><path id="b" fill-rule="evenodd" d="M1.55 0a1.55 1.55 0 1 0 0 3.1 1.55 1.55 0 0 0 0-3.1zm0 2.316c-.476 0-.78-.29-.78-.766 0-.476.304-.79.78-.79.475 0 .776.314.776.79 0 .476-.301.766-.776.766z"/><path id="d" d="M1.55-1A2.55 2.55 0 0 0-1 1.55h2A.55.55 0 0 1 1.55 1v-2zM-1 1.55A2.55 2.55 0 0 0 1.55 4.1v-2A.55.55 0 0 1 1 1.55h-2zM1.55 4.1A2.55 2.55 0 0 0 4.1 1.55h-2a.55.55 0 0 1-.55.55v2zM4.1 1.55A2.55 2.55 0 0 0 1.55-1v2a.55.55 0 0 1 .55.55h2zm-2.55-.234c-.035 0 .04-.008.128.078.041.04.067.083.08.119.013.034.011.05.011.037h-2c0 .456.152.925.515 1.278.36.35.824.488 1.266.488v-2zm.22.234c0-.021.002.048-.076.128a.31.31 0 0 1-.106.071c-.031.012-.047.011-.038.011v-2c-.464 0-.93.158-1.282.516-.35.355-.499.82-.499 1.274h2zm-.22.21c.008 0-.008.001-.04-.011a.316.316 0 0 1-.11-.074c-.078-.08-.074-.15-.074-.125h2A1.8 1.8 0 0 0 2.832.278 1.766 1.766 0 0 0 1.55-.24v2zm-.224-.21c0 .014-.002-.001.01-.034a.34.34 0 0 1 .08-.12c.09-.087.168-.08.134-.08v2c.441 0 .907-.139 1.266-.49.362-.355.51-.823.51-1.276h-2z"/><path id="f" d="M8.513 0H.495a.495.495 0 0 0 0 .99h8.018a.495.495 0 0 0 0-.99z"/></defs></svg>