<svg width="24" height="22" viewBox="0 0 24 22" xmlns="http://www.w3.org/2000/svg" xmlns:xlink="http://www.w3.org/1999/xlink"><title>Group</title><desc>Created using Figma</desc><use xlink:href="#a" transform="translate(0 .94)" fill="#4F4F4F"/><use xlink:href="#b" transform="translate(10.451 12.372)" fill="#4F4F4F"/><use xlink:href="#b" transform="translate(13.934 12.372)" fill="#4F4F4F"/><use xlink:href="#b" transform="translate(6.967 12.372)" fill="#4F4F4F"/><defs><path id="a" d="M23.224 7.822h-3.948L14.979 0l-1.974 1.203 3.6 6.62H6.619l3.716-6.62L8.245 0 3.947 7.822H0v2.407h1.393l2.09 9.869c.117.601.581.962 1.162.962h13.934c.58 0 1.045-.36 1.161-.962l2.09-9.869h1.394V7.822zM17.65 18.653H5.574L3.716 10.23h15.676l-1.742 8.424z"/><path id="b" d="M2.322 0H0v6.017h2.322V0z"/></defs></svg>