<svg width="25" height="16" viewBox="0 0 25 16" fill="none" xmlns="http://www.w3.org/2000/svg"><path d="M23.251 7.037A1090.118 1090.118 0 0 0 18.058.932 2.654 2.654 0 0 0 16.03 0a2.66 2.66 0 0 0-1.997.897 2.596 2.596 0 0 0-.364.537h-2.317a2.598 2.598 0 0 0-.365-.537A2.66 2.66 0 0 0 8.991 0c-.784 0-1.523.34-2.026.932 0 0-3.812 4.464-5.136 6.037C.89 8.084 0 9.309 0 10.867 0 13.697 2.34 16 5.215 16a5.24 5.24 0 0 0 3.612-1.435h7.346A5.24 5.24 0 0 0 19.785 16C22.66 16 25 13.698 25 10.867c0-1.52-.837-2.738-1.749-3.83zM11.59 3.096h1.843l.799 5.507H10.79l.8-5.507zM5.215 14.338c-1.944 0-3.526-1.557-3.526-3.47 0-1.914 1.582-3.47 3.526-3.47 1.945 0 3.527 1.556 3.527 3.47 0 1.913-1.582 3.47-3.527 3.47zm4.72-11.604L9.23 7.595a5.24 5.24 0 0 0-4.015-1.86c-.046 0-.09.002-.137.003l3.182-3.74a.958.958 0 0 1 .731-.336.947.947 0 0 1 .945 1.072zm.067 10.17c.248-.565.372-1.229.433-1.873.018-.193.114-.766.114-.766h3.924s.085.504.098.674c.055.695.161 1.36.427 1.965h-4.996zm5.787-5.33l-.703-4.84a.916.916 0 0 1 .224-.748.948.948 0 0 1 .72-.324c.284 0 .55.123.732.337l3.182 3.74c-.053-.002-.106-.004-.16-.004a5.24 5.24 0 0 0-3.995 1.839zm3.996 6.764c-1.945 0-3.527-1.557-3.527-3.47 0-1.914 1.582-3.47 3.527-3.47 1.944 0 3.526 1.556 3.526 3.47 0 1.913-1.582 3.47-3.526 3.47z" fill="#EF4123"/></svg>