<svg width="18" height="13" viewBox="0 0 18 13" xmlns="http://www.w3.org/2000/svg" xmlns:xlink="http://www.w3.org/1999/xlink"><title>bowl-outline</title><desc>Created using Figma</desc><use xlink:href="#a" transform="translate(.016 .015)" fill="#E54415"/><use xlink:href="#b" fill="#E54415"/><defs><path id="a" d="M15.417 3.108H12.61l3.04-1.964a.627.627 0 0 0 .187-.856.603.603 0 0 0-.841-.191l-4.661 3.01h-8.68c-.464 0-.909.2-1.221.548a1.71 1.71 0 0 0-.427 1.29C.13 6.33.683 7.657 1.608 8.78a8.308 8.308 0 0 0 2.68 2.118 1.666 1.666 0 0 0 1.63 1.397h5.235c.816 0 1.496-.605 1.63-1.397a8.308 8.308 0 0 0 2.68-2.118c.925-1.123 1.479-2.45 1.602-3.835a1.71 1.71 0 0 0-.427-1.29 1.645 1.645 0 0 0-1.221-.547zm-3.829 7.503a.44.44 0 0 1-.435.444H5.919a.44.44 0 0 1-.436-.444v-.532c-2.365-.931-4.055-2.91-4.262-5.246a.44.44 0 0 1 .434-.485h13.762a.44.44 0 0 1 .434.485c-.208 2.336-1.897 4.315-4.263 5.246v.532z"/><path id="b" d="M11.167 12.324H5.933c-.812 0-1.503-.59-1.644-1.402a8.377 8.377 0 0 1-2.677-2.119C.685 7.678.13 6.35.007 4.96a1.724 1.724 0 0 1 .43-1.3 1.659 1.659 0 0 1 1.232-.553h8.676L15.002.1a.614.614 0 0 1 .861.196.642.642 0 0 1-.192.876l-2.998 1.937h2.758c.468 0 .916.2 1.232.552.315.351.472.826.43 1.3-.123 1.39-.678 2.718-1.605 3.843a8.375 8.375 0 0 1-2.678 2.119 1.673 1.673 0 0 1-1.643 1.402zM1.669 3.136c-.46 0-.9.198-1.21.543a1.696 1.696 0 0 0-.424 1.279C.158 6.34.71 7.664 1.633 8.785a8.347 8.347 0 0 0 2.676 2.114l.006.004.001.007a1.645 1.645 0 0 0 1.617 1.385h5.234c.801 0 1.481-.582 1.617-1.385l.001-.007.006-.004a8.347 8.347 0 0 0 2.676-2.114c.923-1.12 1.475-2.444 1.598-3.827a1.695 1.695 0 0 0-.424-1.279 1.63 1.63 0 0 0-1.21-.543h-2.856l3.08-1.99A.613.613 0 0 0 15.84.31a.59.59 0 0 0-.821-.187l-4.665 3.013H1.67zm9.498 7.948H5.933a.454.454 0 0 1-.45-.458v-.523c-2.427-.958-4.06-2.97-4.262-5.254a.467.467 0 0 1 .117-.352.44.44 0 0 1 .33-.149h13.763a.44.44 0 0 1 .331.149.467.467 0 0 1 .117.352c-.202 2.283-1.835 4.296-4.262 5.254v.523a.454.454 0 0 1-.45.458zM1.669 4.377a.41.41 0 0 0-.31.14.439.439 0 0 0-.11.33c.202 2.274 1.832 4.28 4.254 5.233l.009.003v.543c0 .236.189.429.421.429h5.234a.425.425 0 0 0 .421-.429v-.543l.01-.003c2.421-.953 4.05-2.958 4.252-5.234a.437.437 0 0 0-.109-.33.413.413 0 0 0-.31-.139H1.67z"/></defs></svg>