<svg width="20" height="18" viewBox="0 0 20 18" fill="none" xmlns="http://www.w3.org/2000/svg"><path d="M19.996 1.645c0 .545-.431.99-.96.99H5.82c-.53 0-.96-.445-.96-.99 0-.546.43-.99.96-.99h13.22c.53.005.956.444.956.99zM19.04 5.56H5.82c-.53 0-.96.444-.96.99 0 .545.43.99.96.99h13.22c.53 0 .96-.445.96-.99-.004-.546-.43-.99-.96-.99zm0 4.905H5.82c-.53 0-.96.444-.96.99 0 .545.43.989.96.989h13.22c.53 0 .96-.444.96-.99-.004-.545-.43-.989-.96-.989zm0 4.905H5.82c-.53 0-.96.444-.96.99 0 .545.43.989.96.989h13.22c.53 0 .96-.444.96-.99-.004-.545-.43-.989-.96-.989zM1.597 0C.714 0 0 .736 0 1.645s.714 1.649 1.597 1.649c.882 0 1.596-.74 1.596-1.65C3.193.737 2.48 0 1.597 0zm0 4.905C.714 4.905 0 5.64 0 6.55s.714 1.644 1.597 1.644c.882 0 1.596-.735 1.596-1.644 0-.91-.714-1.645-1.596-1.645zm0 4.905C.714 9.81 0 10.546 0 11.454c0 .91.714 1.645 1.597 1.645.882 0 1.596-.735 1.596-1.645 0-.909-.714-1.644-1.596-1.644zm0 4.9C.714 14.71 0 15.446 0 16.355 0 17.265.714 18 1.597 18c.882 0 1.596-.736 1.596-1.645 0-.905-.714-1.645-1.596-1.645z" fill="#EF4123"/></svg>