<svg width="87" height="86" viewBox="0 0 87 86" fill="none" xmlns="http://www.w3.org/2000/svg"><ellipse cx="43.25" cy="43" rx="43.25" ry="43" fill="#00102A"/><path d="M55.043 49.084l-3.39-.372c-.159 1.703-.532 3.1-1.119 4.191-.587 1.09-1.498 1.973-2.733 2.646-1.234.674-2.623 1.009-4.17 1.006-1.372 0-2.582-.253-3.63-.76-1.05-.517-1.834-1.212-2.346-2.1a5.758 5.758 0 0 1-.772-2.915c0-1.07.249-1.996.746-2.797.497-.8 1.31-1.465 2.441-2.003.734-.357 2.34-.911 4.84-1.664 2.498-.753 4.244-1.458 5.243-2.123 1.297-.848 2.265-1.91 2.904-3.167.64-1.257.949-2.67.949-4.238.01-1.68-.391-3.334-1.164-4.809a7.794 7.794 0 0 0-3.41-3.407c-1.5-.775-3.156-1.163-4.984-1.163-2.018 0-3.79.404-5.333 1.22a8.309 8.309 0 0 0-3.548 3.58c-.823 1.577-1.272 3.368-1.335 5.364l3.448.323c.19-2.147.816-3.779 1.884-4.872 1.069-1.094 2.645-1.648 4.732-1.648 2.174 0 3.757.5 4.757 1.497 1 .998 1.491 2.203 1.491 3.605 0 1.228-.352 2.234-1.056 3.019-.696.792-2.499 1.6-5.421 2.424-2.923.824-4.927 1.551-6.016 2.17-1.581.92-2.75 2.076-3.505 3.47-.752 1.403-1.127 3.017-1.125 4.841a10.963 10.963 0 0 0 1.242 5.118 8.998 8.998 0 0 0 3.568 3.74c1.55.892 3.294 1.336 5.232 1.33 2.46 0 4.523-.442 6.18-1.346 1.658-.903 2.965-2.236 3.917-4.046.951-1.809 1.442-3.842 1.486-6.116l-.003.002z" fill="#fff"/><path fill-rule="evenodd" clip-rule="evenodd" d="M32.063 37.743h24.743v2.49H32.064v-2.49zm0 5.168h24.743v2.49H32.064v-2.49z" fill="#fff"/><path d="M19.462 55.858c-.189.116-.918 2.459-.918 2.459a29.208 29.208 0 0 0 16.96 12.894 29.145 29.145 0 0 0 21.188-2.07c6.967-3.537 12.147-9.582 14.579-17.022 2.432-7.439 1.828-15.383-1.702-22.367-3.53-6.985-9.562-12.173-16.987-14.611a29.183 29.183 0 0 0-15.108-.837 29.22 29.22 0 0 0-13.503 6.844L18.6 17.64l-.907 16.888 15.05-7.656-5.079-3.318c6.576-5.397 15.369-7.09 23.603-4.387a25.017 25.017 0 0 1 11.895 8.35 25.112 25.112 0 0 1 2.114 27.775 25.04 25.04 0 0 1-10.493 10.062c-5.964 3.025-12.743 3.543-19.091 1.459A25.032 25.032 0 0 1 22.15 56.1s-2.563-.36-2.753-.243" fill="#fff"/></svg>