<svg width="87" height="86" viewBox="0 0 87 86" fill="none" xmlns="http://www.w3.org/2000/svg"><ellipse cx="43.25" cy="43" rx="43.25" ry="43" fill="#00102A"/><path d="M34.895 23.454c-4.065 0-7.372 3.125-7.372 6.964 0 3.838 3.307 6.963 7.372 6.963 4.064 0 7.372-3.124 7.372-6.963 0-3.84-3.308-6.964-7.372-6.964zm0 9.285c-1.357 0-2.458-1.04-2.458-2.321 0-1.282 1.101-2.321 2.458-2.321 1.356 0 2.457 1.04 2.457 2.32 0 1.282-1.1 2.322-2.457 2.322zm14.744 13.926c-4.065 0-7.372 3.124-7.372 6.963s3.307 6.963 7.372 6.963c4.064 0 7.372-3.124 7.372-6.963 0-3.84-3.308-6.963-7.372-6.963zm0 9.284c-1.357 0-2.458-1.04-2.458-2.321 0-1.281 1.101-2.321 2.458-2.321 1.356 0 2.457 1.04 2.457 2.32 0 1.282-1.1 2.322-2.457 2.322zm6.344-32.061c-1.101-.742-2.64-.501-3.426.539L27.984 56.92c-.791 1.04-.536 2.493.565 3.236a2.55 2.55 0 0 0 1.43.431c.767 0 1.524-.339 2-.97l24.574-32.494c.791-1.045.53-2.493-.57-3.236z" fill="#fff"/></svg>