<svg width="18" height="19" viewBox="0 0 18 19" fill="none" xmlns="http://www.w3.org/2000/svg"><path d="M12.213 11.471l-1.108-.12c-.052.552-.174 1.004-.366 1.358-.192.353-.49.64-.894.857a2.809 2.809 0 0 1-1.363.326c-.449 0-.845-.082-1.187-.246-.344-.168-.6-.393-.768-.68a1.853 1.853 0 0 1-.252-.945c0-.347.081-.647.244-.906.162-.26.428-.475.798-.65.24-.115.765-.295 1.583-.539.817-.244 1.388-.472 1.714-.688.424-.274.74-.618.95-1.026a2.96 2.96 0 0 0 .31-1.373 3.295 3.295 0 0 0-.38-1.558 2.537 2.537 0 0 0-1.115-1.104 3.518 3.518 0 0 0-1.63-.377c-.66 0-1.24.13-1.744.395-.494.254-.9.66-1.16 1.16a3.953 3.953 0 0 0-.437 1.738l1.127.105c.063-.696.267-1.224.617-1.579.35-.354.864-.534 1.547-.534.711 0 1.229.162 1.556.486.326.323.487.713.487 1.168 0 .398-.115.724-.345.978-.228.256-.817.518-1.773.785s-1.611.503-1.967.704c-.517.297-.9.672-1.146 1.124-.246.454-.369.977-.368 1.569-.002.579.138 1.15.406 1.658.271.519.66.922 1.167 1.212a3.37 3.37 0 0 0 1.71.431c.805 0 1.48-.144 2.022-.436.542-.293.97-.725 1.28-1.311.312-.587.472-1.245.486-1.982z" fill="#EF4123"/><path fill-rule="evenodd" clip-rule="evenodd" d="M4.7 7.797h8.09v.806H4.7v-.806zm0 1.674h8.09v.807H4.7V9.47z" fill="#EF4123"/><path d="M.578 13.666c-.061.038-.3.797-.3.797a9.541 9.541 0 0 0 5.546 4.178 9.61 9.61 0 0 0 6.928-.67 9.456 9.456 0 0 0 4.768-5.516 9.376 9.376 0 0 0-.557-7.248A9.483 9.483 0 0 0 11.41.473 9.627 9.627 0 0 0 6.47.202a9.587 9.587 0 0 0-4.416 2.217L.296 1.283 0 6.755l4.921-2.48-1.66-1.076a8.165 8.165 0 0 1 7.718-1.421 8.18 8.18 0 0 1 3.89 2.705 8.076 8.076 0 0 1 .691 9 8.156 8.156 0 0 1-3.432 3.26 8.18 8.18 0 0 1-6.242.473 8.173 8.173 0 0 1-4.429-3.47s-.838-.117-.9-.08" fill="#EF4123"/></svg>