<svg width="30" height="25" viewBox="0 0 30 25" xmlns="http://www.w3.org/2000/svg" xmlns:xlink="http://www.w3.org/1999/xlink"><title>Group 2.42</title><desc>Created using Figma</desc><use xlink:href="#a" transform="translate(0 3.94)" fill="#4F4F4F"/><use xlink:href="#b" transform="translate(10.451 15.372)" fill="#4F4F4F"/><use xlink:href="#b" transform="translate(13.934 15.372)" fill="#4F4F4F"/><use xlink:href="#b" transform="translate(6.967 15.372)" fill="#4F4F4F"/><use xlink:href="#c" transform="translate(16.8)" fill="#E54415"/><use xlink:href="#d" transform="translate(20.8 4)" fill="#28250F"/><defs><path id="a" d="M23.224 7.822h-3.948L14.979 0l-1.974 1.203 3.6 6.62H6.619l3.716-6.62L8.245 0 3.947 7.822H0v2.407h1.393l2.09 9.869c.117.601.581.962 1.162.962h13.934c.58 0 1.045-.36 1.161-.962l2.09-9.869h1.394V7.822zM17.65 18.653H5.574L3.716 10.23h15.676l-1.742 8.424z"/><path id="b" d="M2.322 0H0v6.017h2.322V0z"/><path id="c" d="M13 6.5a6.5 6.5 0 1 1-13 0 6.5 6.5 0 0 1 13 0z"/><path id="d" d="M5.4 5.13V6H.37v-.68l2.85-2.75c.347-.333.58-.62.7-.86.12-.247.18-.493.18-.74 0-.367-.13-.65-.39-.85-.253-.207-.62-.31-1.1-.31-.773 0-1.37.253-1.79.76L.14-.02A2.74 2.74 0 0 1 1.21-.8c.447-.187.943-.28 1.49-.28.733 0 1.317.177 1.75.53.433.347.65.82.65 1.42 0 .373-.08.727-.24 1.06-.16.333-.463.713-.91 1.14L1.81 5.13H5.4z"/></defs></svg>