<svg width="25" height="25" viewBox="0 0 25 25" xmlns="http://www.w3.org/2000/svg" xmlns:xlink="http://www.w3.org/1999/xlink"><title>Group</title><desc>Created using Figma</desc><use xlink:href="#a" fill="#E54415"/><g transform="translate(-146 15)"><use xlink:href="#b" transform="translate(153.339 -7.708)" fill="#E54415"/><mask id="c"><use xlink:href="#b" fill="#fff" transform="translate(153.339 -7.708)"/></mask><g mask="url(#c)"><use xlink:href="#d" transform="translate(153.339 -7.708)" fill="#E54415"/></g></g><g transform="translate(-146 15)"><use xlink:href="#b" transform="translate(159.258 -2.737)" fill="#E54415"/><mask id="e"><use xlink:href="#b" fill="#fff" transform="translate(159.258 -2.737)"/></mask><g mask="url(#e)"><use xlink:href="#d" transform="translate(159.258 -2.737)" fill="#E54415"/></g></g><use xlink:href="#f" transform="rotate(-44.582 23.251 -.857)" fill="#E54415"/><defs><path id="a" d="M12.5 25C5.625 25 0 19.375 0 12.5S5.625 0 12.5 0 25 5.625 25 12.5 19.375 25 12.5 25zm0-22.917C6.77 2.083 2.083 6.771 2.083 12.5c0 5.73 4.688 10.417 10.417 10.417 5.73 0 10.417-4.688 10.417-10.417 0-5.73-4.688-10.417-10.417-10.417z"/><path id="b" fill-rule="evenodd" d="M2.152 0a2.153 2.153 0 1 0 .001 4.305 2.153 2.153 0 0 0 0-4.305zm0 3.216c-.66 0-1.084-.403-1.084-1.063 0-.661.424-1.097 1.084-1.097.661 0 1.079.436 1.079 1.097 0 .66-.418 1.063-1.079 1.063z"/><path id="d" d="M2.152-1A3.153 3.153 0 0 0-1 2.153h2C1 1.516 1.516 1 2.152 1v-2zM-1 2.153a3.153 3.153 0 0 0 3.152 3.152v-2A1.153 1.153 0 0 1 1 2.153h-2zm3.152 3.152a3.153 3.153 0 0 0 3.153-3.152h-2c0 .636-.516 1.152-1.153 1.152v2zm3.153-3.152A3.153 3.153 0 0 0 2.152-1v2c.637 0 1.153.516 1.153 1.153h2zm-3.153.063a.33.33 0 0 1-.107-.013c-.008-.003 0-.001.015.012.014.014.02.026.019.025a.265.265 0 0 1-.01-.087h-2c0 .549.18 1.091.596 1.496.413.401.954.567 1.487.567v-2zm-.084-.063c0-.059.01-.09.014-.1.003-.01.003-.005-.006.004-.01.01-.016.012-.011.01a.254.254 0 0 1 .087-.011v-2c-.556 0-1.098.188-1.502.6-.402.408-.582.95-.582 1.497h2zm.084-.097a.25.25 0 0 1 .086.01c.003.002-.005-.001-.015-.011-.01-.01-.01-.015-.006-.006a.309.309 0 0 1 .014.104h2c0-.543-.176-1.084-.576-1.495C3.252.245 2.709.056 2.152.056v2zm.079.097c0 .06-.01.087-.011.09 0 .002.004-.01.02-.025.014-.015.024-.017.017-.015a.323.323 0 0 1-.105.013v2c.534 0 1.075-.166 1.487-.57.414-.405.592-.948.592-1.493h-2z"/><path id="f" d="M11.824 0H.688a.688.688 0 0 0 0 1.376h11.136a.688.688 0 1 0 0-1.376z"/></defs></svg>