<svg width="14" height="14" viewBox="0 0 14 14" xmlns="http://www.w3.org/2000/svg" xmlns:xlink="http://www.w3.org/1999/xlink"><title>hair-dryer (2)</title><desc>Created using Figma</desc><use xlink:href="#a" transform="translate(2.545 2.545)" fill="#E54415"/><use xlink:href="#b" fill="#E54415"/><defs><path id="a" d="M3.818 1.91A1.91 1.91 0 0 0 0 1.91a1.91 1.91 0 0 0 1.91 1.908 1.91 1.91 0 0 0 1.908-1.909zm-2.545 0a.637.637 0 1 1 1.274 0 .637.637 0 0 1-1.274 0z"/><path id="b" d="M13.364 1.273H10.88L4.58.013A.636.636 0 0 0 4.455 0 4.46 4.46 0 0 0 0 4.454 4.46 4.46 0 0 0 3.95 8.88l1.16 4.638c.07.283.325.482.617.482h2.545a.61.61 0 0 0 .123-.012l.016-.004.016-.003.014-.004a.677.677 0 0 0 .037-.012l.024-.009a.637.637 0 0 0 .406-.579l.001-.014v-.01a.647.647 0 0 0-.017-.133l-.002-.011-.538-2.15a.636.636 0 0 0 .255-.678L8.062 8.2l2.82-.564h2.482A.636.636 0 0 0 14 7V1.91a.636.636 0 0 0-.636-.637zM1.273 4.454a3.186 3.186 0 0 1 3.121-3.18l5.788 1.157v4.047L4.394 7.636a3.186 3.186 0 0 1-3.121-3.182zm3.96 4.312L6.41 8.53l1.049 4.196H6.224l-.99-3.961zm7.494-2.402h-1.273V2.545h1.273v3.819z"/></defs></svg>