<svg width="21" height="15" viewBox="0 0 21 15" fill="none" xmlns="http://www.w3.org/2000/svg"><path d="M18.931 15H2.114A2.1 2.1 0 0 1 0 12.897V2.103A2.1 2.1 0 0 1 2.114 0h16.77a2.1 2.1 0 0 1 2.114 2.103v10.794c.047 1.168-.94 2.103-2.067 2.103zM2.114 1.402a.72.72 0 0 0-.705.7v10.795c0 .374.33.701.705.701h16.77a.72.72 0 0 0 .705-.7V2.102a.72.72 0 0 0-.705-.701H2.114z" fill="#EF4123"/><path d="M10.523 10.093a.605.605 0 0 1-.47-.186L.658 1.636A.675.675 0 0 1 .61.654a.683.683 0 0 1 .986-.047l8.926 7.85 8.925-7.85c.282-.233.752-.233.987.047s.235.748-.047.982l-9.396 8.27c-.14.094-.328.187-.47.187z" fill="#EF4123"/><path d="M.846 14.346a.756.756 0 0 1-.517-.234.675.675 0 0 1 .047-.981l6.67-6.262a.683.683 0 0 1 .987.047.675.675 0 0 1-.047.981L1.362 14.16c-.14.093-.329.187-.516.187zm19.307 0a.605.605 0 0 1-.47-.187l-6.67-6.262a.72.72 0 0 1-.048-.981.73.73 0 0 1 .987-.047l6.67 6.262c.283.28.283.7.048.981a.756.756 0 0 1-.517.234z" fill="#EF4123"/></svg>