<svg width="22" height="18" viewBox="0 0 22 18" xmlns="http://www.w3.org/2000/svg"><path d="M20.751 14.662v-.857c0-.781-.626-1.42-1.41-1.46v-6.99h.867c.3 0 .543-.239.543-.534V2.526a.536.536 0 0 0-.426-.522L11.117.012a.551.551 0 0 0-.234 0L1.675 2.004a.536.536 0 0 0-.426.522V4.82c0 .295.243.534.542.534h.868v6.99c-.784.04-1.41.678-1.41 1.46v.857A1.501 1.501 0 0 0 0 16.13v1.336c0 .295.243.534.543.534h20.914c.3 0 .543-.239.543-.534V16.13c0-.733-.54-1.343-1.249-1.468zm-18.417-.857a.4.4 0 0 1 .403-.396h16.526a.4.4 0 0 1 .403.396v.832H2.334v-.832zM5.29 12.34H3.745V5.51H5.29v6.83zm6.013-6.986v6.986h-.606V5.355h.606zm2.63 6.986h-1.545V5.51h1.546v6.83zm4.322 0H16.71V5.51h1.545v6.83zM9.612 5.51v6.83H8.066V5.51h1.546zM1.086 16.13a.43.43 0 0 1 .432-.425h18.964a.43.43 0 0 1 .432.425v.802H1.086v-.802zm14.538-3.789h-.605V5.355h.605v6.986zM2.334 2.955L11 1.08l8.666 1.875v1.332H2.334V2.955zm4.647 2.4v6.986h-.605V5.355h.605z" fill="#EF4123"/></svg>