<svg width="29" height="29" viewBox="0 0 29 29" fill="none" xmlns="http://www.w3.org/2000/svg"><path d="M21.654 16.823a1.614 1.614 0 0 0-2.28 0l-.686.685-.685.685a1.602 1.602 0 0 0-.423.75 1.626 1.626 0 0 0 0 .781.102.102 0 0 1-.027.098l-.214.214-.259.259c-.183.183-.847.134-1.809-.306s-2.225-1.272-3.607-2.653c-1.382-1.382-2.214-2.643-2.653-3.607-.44-.963-.49-1.626-.307-1.81l.259-.258.214-.214a.104.104 0 0 1 .099-.027 1.635 1.635 0 0 0 .902-.034 1.61 1.61 0 0 0 .63-.39l.684-.684.685-.685a1.615 1.615 0 0 0 0-2.28L9.543 4.711 6.909 2.078a1.61 1.61 0 0 0-2.281 0l-.685.685-.685.685a1.626 1.626 0 0 0-.424 1.534.102.102 0 0 1-.027.095l-.18.184c-.113.114-.228.23-.238.245-.724.81-1.16 1.853-1.29 3.074-.13 1.22.043 2.62.526 4.142.473 1.493 1.22 3.03 2.192 4.539a26.667 26.667 0 0 0 3.552 4.367 26.674 26.674 0 0 0 4.367 3.554c1.508.972 3.045 1.719 4.538 2.192.569.183 1.15.326 1.738.428a9.56 9.56 0 0 0 1.602.143 6.579 6.579 0 0 0 2.286-.378 4.873 4.873 0 0 0 1.778-1.127l.143-.143.102-.102a.104.104 0 0 1 .099-.026 1.605 1.605 0 0 0 1.53-.424l.683-.689.685-.685a1.615 1.615 0 0 0 0-2.28l-2.634-2.635-2.632-2.633zM5.696 3.29a.103.103 0 0 1 .143 0L8.4 5.853l2.564 2.56a.103.103 0 0 1 0 .144l-.612.613-.688.687-.01-.01-.01-.01L8.337 8.53 7.03 7.223 5.716 5.905 4.472 4.661a.103.103 0 0 1 0-.143l.612-.612.612-.615zm16.84 22.006c-.58.58-1.383.918-2.36 1.01-.978.091-2.132-.064-3.414-.47-1.372-.435-2.79-1.127-4.189-2.032A25.099 25.099 0 0 1 8.51 20.49a25.098 25.098 0 0 1-3.313-4.064C4.29 15.03 3.598 13.61 3.164 12.24c-.406-1.282-.56-2.435-.47-3.414.092-.978.429-1.78 1.01-2.361l.071-.071a.103.103 0 0 1 .143 0l1.971 1.97 1.972 1.972a.103.103 0 0 1 0 .143l-.115.115-.187.187c-.777.778-.699 2.04-.095 3.439.603 1.398 1.732 2.934 3.055 4.257.99.991 2.1 1.872 3.182 2.506 1.082.633 2.137 1.02 3.017 1.02.28.003.56-.043.825-.137a1.84 1.84 0 0 0 .673-.428l.187-.187.115-.115a.103.103 0 0 1 .142 0l1.972 1.972 1.971 1.971a.103.103 0 0 1 0 .143l-.067.076zm1.948-.767a.102.102 0 0 1-.142 0l-2.562-2.562-2.561-2.561a.103.103 0 0 1 0-.143l.612-.612.612-.612a.103.103 0 0 1 .143 0l2.561 2.561 2.562 2.561a.102.102 0 0 1 0 .143l-.612.608-.613.617z" fill="#4F4F4F" stroke="#4F4F4F" stroke-width=".75" stroke-miterlimit="10"/><mask id="a" fill="#fff"><path d="M18.614 26.452a9.691 9.691 0 0 1-1.612-.143 13.01 13.01 0 0 1-1.745-.429c-1.49-.472-3.022-1.214-4.552-2.198a26.64 26.64 0 0 1-4.377-3.559 26.639 26.639 0 0 1-3.559-4.376c-.986-1.53-1.726-3.061-2.198-4.552C.088 9.671-.09 8.267.042 7.026c.132-1.24.572-2.285 1.305-3.105a6.88 6.88 0 0 1 .24-.248l.199-.202a1.664 1.664 0 0 1 .432-1.612L3.588.49a1.667 1.667 0 0 1 2.361 0l5.269 5.268a1.671 1.671 0 0 1 0 2.362l-1.37 1.37a1.665 1.665 0 0 1-1.615.431l-.493.494c-.164.164-.107.816.318 1.745.364.797 1.119 2.067 2.643 3.59 1.523 1.524 2.792 2.278 3.59 2.643.918.42 1.565.48 1.739.323l.007-.006.491-.492a1.664 1.664 0 0 1 .432-1.611l1.37-1.37a1.672 1.672 0 0 1 2.362 0l5.268 5.268a1.672 1.672 0 0 1 0 2.361l-1.368 1.368a1.668 1.668 0 0 1-1.611.432l-.265.264a4.935 4.935 0 0 1-1.799 1.143 6.638 6.638 0 0 1-2.303.379zM4.77.115a1.546 1.546 0 0 0-1.1.456L2.3 1.938a1.55 1.55 0 0 0-.394 1.532l.01.032-.024.024-.222.224-.234.24c-.72.805-1.15 1.828-1.28 3.048C.028 8.26.203 9.652.68 11.161c.47 1.48 1.205 3 2.186 4.525a26.531 26.531 0 0 0 3.542 4.357 26.534 26.534 0 0 0 4.357 3.542c1.522.982 3.044 1.715 4.525 2.186.567.182 1.145.324 1.731.426a9.56 9.56 0 0 0 1.593.143 6.53 6.53 0 0 0 2.264-.377 4.823 4.823 0 0 0 1.758-1.113l.311-.312.032.01a1.55 1.55 0 0 0 1.532-.396l1.37-1.37a1.558 1.558 0 0 0 0-2.2l-5.267-5.267a1.558 1.558 0 0 0-2.2 0l-1.37 1.37a1.55 1.55 0 0 0-.394 1.532l.01.032-.543.543c-.233.229-.985.11-1.872-.296-.806-.368-2.088-1.13-3.624-2.665-1.535-1.536-2.297-2.818-2.665-3.623-.397-.867-.519-1.605-.311-1.857v-.035h.033l.525-.524.032.01a1.552 1.552 0 0 0 1.532-.394l1.37-1.37a1.558 1.558 0 0 0 0-2.2L5.869.57a1.545 1.545 0 0 0-1.1-.456zm13.84 24.727c-.857 0-1.82-.167-2.866-.5-1.37-.434-2.786-1.12-4.202-2.039a25.081 25.081 0 0 1-4.071-3.32 25.078 25.078 0 0 1-3.322-4.072c-.92-1.419-1.606-2.83-2.04-4.203-.407-1.285-.566-2.439-.472-3.436.093-.997.438-1.81 1.027-2.396l.186-.186 4.17 4.169-.416.416c-.891.89-.538 2.327-.083 3.377.577 1.337 1.687 2.882 3.044 4.24 1.01 1.01 2.107 1.874 3.17 2.5 1.13.661 2.163 1.011 2.988 1.011a2.32 2.32 0 0 0 .805-.132 1.81 1.81 0 0 0 .647-.41l.417-.424 4.17 4.17-.187.186c-.587.587-1.393.928-2.395 1.025a6.706 6.706 0 0 1-.57.024zM2.736 4.963c-.563.568-.895 1.348-.986 2.32-.09.972.066 2.122.468 3.39.428 1.357 1.113 2.765 2.026 4.175a24.97 24.97 0 0 0 3.306 4.055 24.967 24.967 0 0 0 4.055 3.306c1.409.913 2.814 1.595 4.175 2.026 1.268.402 2.409.559 3.39.468.982-.092 1.754-.424 2.322-.988l.11-.11-4.01-4.009-.334.335a1.904 1.904 0 0 1-.694.442c-.27.097-.557.146-.844.143-.845 0-1.899-.357-3.047-1.027-1.071-.628-2.175-1.5-3.193-2.515-1.367-1.367-2.486-2.929-3.068-4.276-.668-1.55-.632-2.76.105-3.5l.338-.338-4.007-4.009-.112.112zm20.672 18.151a.055.055 0 0 1-.037-.02l-5.308-5.308 1.45-1.451 5.35 5.35-1.351 1.35c-.053.052-.08.079-.104.079zm-5.184-5.328l5.188 5.187.643-.642.643-.643-5.184-5.191-1.29 1.289zM8.678 8.379l-.048-.024-.014-.015-5.298-5.3 1.45-1.45 5.35 5.348-1.44 1.441zM3.48 3.041l5.185 5.187 1.286-1.29L4.77 1.752 3.48 3.041z"/></mask><path d="M18.614 26.452a9.691 9.691 0 0 1-1.612-.143 13.01 13.01 0 0 1-1.745-.429c-1.49-.472-3.022-1.214-4.552-2.198a26.64 26.64 0 0 1-4.377-3.559 26.639 26.639 0 0 1-3.559-4.376c-.986-1.53-1.726-3.061-2.198-4.552C.088 9.671-.09 8.267.042 7.026c.132-1.24.572-2.285 1.305-3.105a6.88 6.88 0 0 1 .24-.248l.199-.202a1.664 1.664 0 0 1 .432-1.612L3.588.49a1.667 1.667 0 0 1 2.361 0l5.269 5.268a1.671 1.671 0 0 1 0 2.362l-1.37 1.37a1.665 1.665 0 0 1-1.615.431l-.493.494c-.164.164-.107.816.318 1.745.364.797 1.119 2.067 2.643 3.59 1.523 1.524 2.792 2.278 3.59 2.643.918.42 1.565.48 1.739.323l.007-.006.491-.492a1.664 1.664 0 0 1 .432-1.611l1.37-1.37a1.672 1.672 0 0 1 2.362 0l5.268 5.268a1.672 1.672 0 0 1 0 2.361l-1.368 1.368a1.668 1.668 0 0 1-1.611.432l-.265.264a4.935 4.935 0 0 1-1.799 1.143 6.638 6.638 0 0 1-2.303.379zM4.77.115a1.546 1.546 0 0 0-1.1.456L2.3 1.938a1.55 1.55 0 0 0-.394 1.532l.01.032-.024.024-.222.224-.234.24c-.72.805-1.15 1.828-1.28 3.048C.028 8.26.203 9.652.68 11.161c.47 1.48 1.205 3 2.186 4.525a26.531 26.531 0 0 0 3.542 4.357 26.534 26.534 0 0 0 4.357 3.542c1.522.982 3.044 1.715 4.525 2.186.567.182 1.145.324 1.731.426a9.56 9.56 0 0 0 1.593.143 6.53 6.53 0 0 0 2.264-.377 4.823 4.823 0 0 0 1.758-1.113l.311-.312.032.01a1.55 1.55 0 0 0 1.532-.396l1.37-1.37a1.558 1.558 0 0 0 0-2.2l-5.267-5.267a1.558 1.558 0 0 0-2.2 0l-1.37 1.37a1.55 1.55 0 0 0-.394 1.532l.01.032-.543.543c-.233.229-.985.11-1.872-.296-.806-.368-2.088-1.13-3.624-2.665-1.535-1.536-2.297-2.818-2.665-3.623-.397-.867-.519-1.605-.311-1.857v-.035h.033l.525-.524.032.01a1.552 1.552 0 0 0 1.532-.394l1.37-1.37a1.558 1.558 0 0 0 0-2.2L5.869.57a1.545 1.545 0 0 0-1.1-.456zm13.84 24.727c-.857 0-1.82-.167-2.866-.5-1.37-.434-2.786-1.12-4.202-2.039a25.081 25.081 0 0 1-4.071-3.32 25.078 25.078 0 0 1-3.322-4.072c-.92-1.419-1.606-2.83-2.04-4.203-.407-1.285-.566-2.439-.472-3.436.093-.997.438-1.81 1.027-2.396l.186-.186 4.17 4.169-.416.416c-.891.89-.538 2.327-.083 3.377.577 1.337 1.687 2.882 3.044 4.24 1.01 1.01 2.107 1.874 3.17 2.5 1.13.661 2.163 1.011 2.988 1.011a2.32 2.32 0 0 0 .805-.132 1.81 1.81 0 0 0 .647-.41l.417-.424 4.17 4.17-.187.186c-.587.587-1.393.928-2.395 1.025a6.706 6.706 0 0 1-.57.024zM2.736 4.963c-.563.568-.895 1.348-.986 2.32-.09.972.066 2.122.468 3.39.428 1.357 1.113 2.765 2.026 4.175a24.97 24.97 0 0 0 3.306 4.055 24.967 24.967 0 0 0 4.055 3.306c1.409.913 2.814 1.595 4.175 2.026 1.268.402 2.409.559 3.39.468.982-.092 1.754-.424 2.322-.988l.11-.11-4.01-4.009-.334.335a1.904 1.904 0 0 1-.694.442c-.27.097-.557.146-.844.143-.845 0-1.899-.357-3.047-1.027-1.071-.628-2.175-1.5-3.193-2.515-1.367-1.367-2.486-2.929-3.068-4.276-.668-1.55-.632-2.76.105-3.5l.338-.338-4.007-4.009-.112.112zm20.672 18.151a.055.055 0 0 1-.037-.02l-5.308-5.308 1.45-1.451 5.35 5.35-1.351 1.35c-.053.052-.08.079-.104.079zm-5.184-5.328l5.188 5.187.643-.642.643-.643-5.184-5.191-1.29 1.289zM8.678 8.379l-.048-.024-.014-.015-5.298-5.3 1.45-1.45 5.35 5.348-1.44 1.441zM3.48 3.041l5.185 5.187 1.286-1.29L4.77 1.752 3.48 3.041z" transform="translate(1 1.548)" fill="#4F4F4F" stroke="#4F4F4F" stroke-width="1.5" mask="url(#a)"/><path d="M22.24 13.267a.806.806 0 0 0 1.613 0 8.105 8.105 0 0 0-8.118-8.12.806.806 0 1 0 0 1.613 6.496 6.496 0 0 1 6.507 6.507h-.002z" fill="#EF4123" stroke="#EF4123" stroke-width=".75" stroke-miterlimit="10"/><mask id="b" fill="#fff"><path d="M8.175 9.038a.864.864 0 0 1-.864-.863A6.438 6.438 0 0 0 .864 1.727.864.864 0 1 1 .864 0a8.163 8.163 0 0 1 8.174 8.177.864.864 0 0 1-.863.861zm-.75-.863a.75.75 0 1 0 1.5 0A8.048 8.048 0 0 0 .864.115a.75.75 0 1 0 0 1.5 6.553 6.553 0 0 1 6.564 6.563l-.003-.003z"/></mask><path d="M23.047 14.128a.864.864 0 0 1-.864-.864 6.438 6.438 0 0 0-6.448-6.447.864.864 0 1 1 0-1.727 8.163 8.163 0 0 1 8.175 8.177.864.864 0 0 1-.863.86zm-.75-.864a.75.75 0 1 0 1.5 0 8.048 8.048 0 0 0-8.062-8.06.75.75 0 1 0 0 1.5 6.553 6.553 0 0 1 6.564 6.564l-.002-.004z" fill="#EF4123"/><path d="M8.175 9.038v-.75.75zm-.864-.863l-.75-.001h.75zM.864 1.727v.75-.75zM0 .864h.75H0zM.864 0v.75V0zm8.174 8.177l.75.003v-.001l-.75-.002zm-1.613-.002l.644-.386-1.394-2.322v2.708h.75zm1.5 0l-.75-.002v.002h.75zM.864.115v.75-.75zm0 1.5v.75-.75zm6.564 6.563l-.644.386 1.389 2.314.005-2.699h-.75zm.747.11a.114.114 0 0 1-.08-.033l-1.061 1.06a1.61 1.61 0 0 0 1.14.473v-1.5zm-.08-.033a.113.113 0 0 1-.034-.08h-1.5c0 .428.17.838.473 1.14l1.06-1.06zm-.034-.08a7.188 7.188 0 0 0-.545-2.756l-1.386.573a5.69 5.69 0 0 1 .431 2.182l1.5.002zM7.516 5.42a7.188 7.188 0 0 0-1.56-2.337l-1.06 1.061c.528.53.948 1.158 1.234 1.85l1.386-.574zm-1.56-2.337a7.188 7.188 0 0 0-2.337-1.56l-.573 1.386c.692.286 1.32.706 1.85 1.235l1.06-1.06zm-2.337-1.56A7.188 7.188 0 0 0 .862.977l.003 1.5a5.688 5.688 0 0 1 2.18.431l.574-1.386zM.864.977a.114.114 0 0 1-.08-.033l-1.061 1.06a1.61 1.61 0 0 0 1.14.473v-1.5zM.784.944A.114.114 0 0 1 .75.864h-1.5c0 .427.17.838.473 1.14L.783.944zM.75.864c0-.03.012-.06.033-.08L-.277-.278A1.614 1.614 0 0 0-.75.863h1.5zm.033-.08A.114.114 0 0 1 .863.75v-1.5c-.427 0-.838.17-1.14.473L.783.783zM.865.75a7.413 7.413 0 0 1 2.843.562L4.28-.074A8.913 8.913 0 0 0 .862-.75L.865.75zm2.843.562c.901.373 1.72.92 2.41 1.61l1.06-1.06A8.913 8.913 0 0 0 4.282-.075l-.573 1.386zm2.41 1.61c.69.69 1.236 1.51 1.609 2.41l1.386-.572A8.912 8.912 0 0 0 7.18 1.861L6.12 2.922zm1.609 2.41c.372.902.563 1.869.561 2.844l1.5.003a8.913 8.913 0 0 0-.675-3.419l-1.386.573zm.561 2.843c0 .03-.012.059-.033.08l1.059 1.062c.302-.301.473-.71.474-1.137l-1.5-.005zm-.033.08a.114.114 0 0 1-.08.033v1.5c.427 0 .836-.17 1.139-.47l-1.06-1.063zm-1.58-.08c0 .397.158.779.44 1.06l1.06-1.06h-1.5zm.44 1.06a1.5 1.5 0 0 0 1.06.44v-1.5l-1.06 1.06zm1.06.44a1.5 1.5 0 0 0 1.061-.44l-1.06-1.06v1.5zm1.061-.44a1.5 1.5 0 0 0 .44-1.06h-1.5l1.06 1.06zm.44-1.06a8.798 8.798 0 0 0-.668-3.374l-1.386.573c.367.888.555 1.84.553 2.8l1.5.002zm-.668-3.374a8.798 8.798 0 0 0-1.91-2.86L6.038 3a7.298 7.298 0 0 1 1.584 2.373L9.008 4.8zm-1.91-2.86A8.798 8.798 0 0 0 4.237.03l-.573 1.386A7.298 7.298 0 0 1 6.037 3l1.06-1.06zM4.237.03A8.798 8.798 0 0 0 .862-.636l.003 1.5a7.298 7.298 0 0 1 2.8.553L4.236.031zM.864-.636a1.5 1.5 0 0 0-1.061.44L.863.864v-1.5zm-1.061.44a1.5 1.5 0 0 0-.44 1.06h1.5l-1.06-1.06zm-.44 1.06c0 .398.159.78.44 1.06L.863.865h-1.5zm.44 1.06a1.5 1.5 0 0 0 1.06.44v-1.5l-1.06 1.06zm1.062.44a5.803 5.803 0 0 1 2.226.44l.573-1.386A7.303 7.303 0 0 0 .862.864l.003 1.5zm2.226.44c.706.292 1.347.72 1.887 1.26l1.06-1.06a7.303 7.303 0 0 0-2.374-1.586L3.09 2.804zm1.887 1.26c.54.54.968 1.181 1.26 1.887l1.386-.573A7.302 7.302 0 0 0 6.04 3.003l-1.06 1.06zm1.26 1.887a5.84 5.84 0 0 1 .44 2.226l1.5.002a7.302 7.302 0 0 0-.554-2.8l-1.386.572zM8.07 7.792l-.002-.003-1.287.771.002.004 1.287-.772z" transform="translate(14.872 5.09)" fill="#EF4123" mask="url(#b)"/><path d="M24.367 4.633a12.13 12.13 0 0 0-8.632-3.576.806.806 0 1 0 0 1.613 10.58 10.58 0 0 1 10.595 10.6.806.806 0 0 0 1.613 0 12.129 12.129 0 0 0-3.576-8.637z" fill="#EF4123" stroke="#4F4F4F" stroke-width=".75" stroke-miterlimit="10"/><path d="M27.136 14.128a.863.863 0 0 1-.863-.857A10.52 10.52 0 0 0 15.735 2.727a.864.864 0 1 1 0-1.727 12.188 12.188 0 0 1 8.675 3.593A12.187 12.187 0 0 1 28 13.27a.864.864 0 0 1-.864.857zm-11.4-13.014a.75.75 0 1 0 0 1.5 10.636 10.636 0 0 1 10.651 10.657.75.75 0 1 0 1.5 0A12.13 12.13 0 0 0 15.735 1.114z" fill="#EF4123" stroke="#EF4123" stroke-width=".75" stroke-miterlimit="10"/><path d="M15.735 9.237a.806.806 0 1 0 0 1.613 2.404 2.404 0 0 1 2.417 2.417.806.806 0 1 0 1.613 0 4.008 4.008 0 0 0-4.03-4.03z" fill="#EF4123" stroke="#4F4F4F" stroke-width=".75" stroke-miterlimit="10"/><path d="M18.956 14.128a.864.864 0 0 1-.864-.861 2.338 2.338 0 0 0-2.357-2.357.864.864 0 0 1 0-1.728 4.065 4.065 0 0 1 4.087 4.087.863.863 0 0 1-.866.859zm-3.22-3.335a2.461 2.461 0 0 1 2.474 2.474.75.75 0 0 0 1.5 0 3.95 3.95 0 0 0-3.975-3.972.75.75 0 1 0 0 1.5v-.002z" fill="#EF4123" stroke="#EF4123" stroke-width=".75" stroke-miterlimit="10"/></svg>