<svg width="13" height="16" viewBox="0 0 13 16" xmlns="http://www.w3.org/2000/svg"><g fill="#EF4123"><path d="M6.5 3.44c-1.66 0-3.012 1.332-3.012 2.97 0 1.638 1.351 2.97 3.012 2.97 1.66 0 3.012-1.332 3.012-2.97 0-1.638-1.351-2.97-3.012-2.97zm0 4.69c-.962 0-1.744-.772-1.744-1.72S5.538 4.69 6.5 4.69s1.744.772 1.744 1.72S7.462 8.13 6.5 8.13z"/><path d="M6.5 0C2.916 0 0 2.875 0 6.41v.177c0 1.788 1.04 3.87 3.089 6.191A26.56 26.56 0 0 0 6.1 15.682l.4.318.399-.318a26.57 26.57 0 0 0 3.012-2.904C11.961 10.458 13 8.375 13 6.588V6.41C13 2.875 10.084 0 6.5 0zm5.232 6.587c0 3.02-3.947 6.678-5.232 7.788-1.285-1.11-5.232-4.767-5.232-7.788V6.41c0-2.845 2.347-5.16 5.232-5.16 2.885 0 5.232 2.315 5.232 5.16v.177z"/></g></svg>