<svg width="24" height="22" viewBox="0 0 24 22" fill="none" xmlns="http://www.w3.org/2000/svg"><path d="M12.56 19.58V6.182h5.79v3.916l-2.798 5.977c-.193.309-.097.721 0 1.03.193.31.482.515.868.515h5.79c.29 0 .676-.206.869-.515a.99.99 0 0 0 0-1.03l-2.799-5.977V6.183h1.93V4.122h-9.65V0h-1.93v4.122H.98v2.061h1.93v3.916L.111 16.076c-.193.309-.096.721 0 1.03.193.206.58.412.869.412h5.79c.29 0 .676-.206.869-.515a.99.99 0 0 0 0-1.03L4.84 10.099V6.183h5.79v13.396H.015v2.061h23.16v-2.06H12.56zm8.106-4.123h-2.702l1.351-2.885 1.351 2.885zm-15.44 0H2.524l1.351-2.885 1.351 2.885z" fill="#EF4123"/></svg>