<svg width="22" height="22" viewBox="0 0 22 22" fill="none" xmlns="http://www.w3.org/2000/svg"><path d="M17.064 12.307a1.256 1.256 0 0 0-1.774 0l-.533.532-.532.533a1.251 1.251 0 0 0-.33 1.191.08.08 0 0 1-.02.076l-.167.167-.201.201c-.143.143-.659.104-1.407-.238-.749-.342-1.73-.99-2.806-2.064C8.22 11.631 7.572 10.65 7.23 9.901c-.341-.75-.38-1.265-.238-1.408l.201-.201.167-.167a.08.08 0 0 1 .077-.02 1.272 1.272 0 0 0 .701-.027c.185-.062.352-.165.49-.303l.532-.533.533-.532a1.256 1.256 0 0 0 0-1.774L7.644 2.887 5.595.838a1.252 1.252 0 0 0-1.773 0l-.533.533-.533.533a1.265 1.265 0 0 0-.33 1.193.08.08 0 0 1-.02.074l-.141.143c-.087.089-.177.18-.185.19-.563.63-.902 1.442-1.003 2.391-.101.95.034 2.04.41 3.222.367 1.161.947 2.357 1.704 3.53a20.745 20.745 0 0 0 2.762 3.397 20.744 20.744 0 0 0 3.397 2.764c1.173.757 2.369 1.337 3.53 1.705.442.142.894.253 1.351.333.412.072.829.11 1.246.111a5.116 5.116 0 0 0 1.778-.294c.52-.187.992-.487 1.383-.876l.112-.111.079-.08a.08.08 0 0 1 .077-.02 1.264 1.264 0 0 0 .7-.026 1.25 1.25 0 0 0 .49-.304l.531-.536.533-.533a1.256 1.256 0 0 0 0-1.773l-2.049-2.05-2.047-2.047zM4.652 1.782a.08.08 0 0 1 .111 0l1.992 1.992L8.75 5.766a.08.08 0 0 1 0 .112l-.476.476-.535.535-.008-.008-.008-.008-1.016-1.017L5.69 4.84 4.668 3.815 3.7 2.848a.08.08 0 0 1 0-.111l.476-.477.476-.478zM17.75 18.898c-.451.451-1.075.714-1.836.785-.76.071-1.658-.05-2.655-.366-1.067-.338-2.17-.876-3.258-1.58-1.14-.746-2.2-1.61-3.16-2.577a19.468 19.468 0 0 1-2.578-3.161c-.704-1.087-1.242-2.191-1.58-3.258-.316-.996-.436-1.894-.365-2.655.07-.76.333-1.385.785-1.836l.055-.056a.08.08 0 0 1 .111 0l1.534 1.534L6.336 7.26a.08.08 0 0 1 0 .11l-.09.09-.145.146c-.604.605-.543 1.586-.074 2.674.47 1.088 1.347 2.282 2.377 3.312.77.77 1.633 1.456 2.475 1.948.841.493 1.661.794 2.346.794.219.002.436-.033.641-.106a1.44 1.44 0 0 0 .524-.334l.146-.145.089-.09a.08.08 0 0 1 .11 0l1.534 1.534 1.533 1.533a.08.08 0 0 1 0 .111l-.052.06zm1.516-.597a.08.08 0 0 1-.112 0l-1.992-1.992-1.992-1.993a.08.08 0 0 1 0-.11l.476-.477.476-.476a.08.08 0 0 1 .111 0l1.993 1.992 1.992 1.992a.08.08 0 0 1 0 .112l-.476.472-.476.48z" fill="#EF4123" stroke="#EF4123" stroke-width=".75" stroke-miterlimit="10"/></svg>