<svg width="87" height="86" viewBox="0 0 87 86" fill="none" xmlns="http://www.w3.org/2000/svg"><ellipse cx="43.25" cy="43" rx="43.25" ry="43" fill="#00102A"/><path d="M68.492 37.742l-5.76-7.157a1.472 1.472 0 0 0-.672-.465l-11.88-3.911c1.312-1.31 2.638-3.045 2.638-5.286 0-2.964-2.201-5.287-5.012-5.287-1.39 0-2.614.563-3.572 1.635-.957-1.072-2.181-1.635-3.572-1.635-2.81 0-5.012 2.323-5.012 5.287 0 2.018 1.028 3.618 2.679 5.278L26.5 30.121a1.469 1.469 0 0 0-.661.455l-5.856 7.157a1.425 1.425 0 0 0 .566 2.226l2.087.86v13.66c0 .573.343 1.09.873 1.316l20.157 8.589a1.443 1.443 0 0 0 1.136 0l20.251-8.588a1.43 1.43 0 0 0 .875-1.317v-13.7l1.991-.82a1.425 1.425 0 0 0 .573-2.217zM40.662 18.5c1.545 0 2.143 1.894 2.185 2.032a1.433 1.433 0 0 0 1.386 1.064c.653 0 1.22-.437 1.387-1.064.041-.138.639-2.032 2.185-2.032 1.4 0 2.132 1.219 2.132 2.423 0 1.114-.655 2.204-2.192 3.645-.724.68-1.587 1.404-2.587 2.243l-.924.777-.696-.59c-3.292-2.782-5.009-4.315-5.009-6.075 0-1.204.733-2.423 2.132-2.423zM23.434 38.05l4.009-4.9 14.545 4.82-4.057 6.052c-.16-.11-14.299-5.935-14.497-5.972zm19.358 22.848l-17.278-7.363v-11.53l12.408 5.112a1.445 1.445 0 0 0 1.749-.528l3.121-4.656v18.964zm1.441-25.201l-12.726-4.218 9.258-3.068a278 278 0 0 0 .906.769c.519.438 1.055.892 1.618 1.377a1.442 1.442 0 0 0 1.886 0c.644-.556 1.252-1.065 1.84-1.559.24-.2.471-.395.696-.585l9.317 3.067-12.795 4.217zm18.814 17.836l-17.375 7.369V41.933l3.122 4.656c.378.564 1.11.791 1.749.528l12.504-5.151v11.567zm-12.514-9.511l-4.055-6.049 14.63-4.822 3.937 4.892-14.512 5.979z" fill="#fff"/></svg>