<svg width="178" height="24" viewBox="0 0 178 24" version="1.1" xmlns="http://www.w3.org/2000/svg" xmlns:xlink="http://www.w3.org/1999/xlink">
<title>Group</title>
<desc>Created using Figma</desc>
<g id="Canvas" transform="translate(705 500)">
<g id="Group">
<g id="LOGO">
<g id="XMLID 17">
<use xlink:href="#path0_fill" transform="translate(-705 -500)" fill="#E54415"/>
</g>
<g id="XMLID 14">
<use xlink:href="#path1_fill" transform="translate(-679.681 -496.197)" fill="#E54415"/>
</g>
<g id="XMLID 12">
<use xlink:href="#path2_fill" transform="translate(-651.846 -495.636)" fill="#E54415"/>
</g>
<g id="XMLID 10">
<use xlink:href="#path3_fill" transform="translate(-623.673 -495.636)" fill="#E54415"/>
</g>
<g id="XMLID 7">
<use xlink:href="#path4_fill" transform="translate(-596.052 -495.636)" fill="#E54415"/>
</g>
<g id="XMLID 4">
<use xlink:href="#path5_fill" transform="translate(-571.776 -496.197)" fill="#E54415"/>
</g>
<g id="XMLID 2">
<use xlink:href="#path6_fill" transform="translate(-543.879 -495.636)" fill="#E54415"/>
</g>
</g>
</g>
</g>
<defs>
<path id="path0_fill" d="M 4.60344 3.74026L 4.60344 11.2208L 15.6517 11.2208L 15.6517 14.6493L 4.60344 14.6493L 4.60344 24L 0 24L 0 0L 17.4931 0L 17.4931 3.74026L 4.60344 3.74026Z"/>
<path id="path1_fill" d="M 5.18654 18.8883C 3.55999 18.0156 2.30172 16.8 1.38103 15.2727C 0.460344 13.7454 0 12 0 10.0987C 0 8.19739 0.460344 6.45194 1.38103 4.92467C 2.30172 3.3974 3.55999 2.18182 5.18654 1.30909C 6.81309 0.436363 8.59309 -5.94498e-08 10.5879 -5.94498e-08C 12.6134 -5.94498e-08 14.4241 0.436363 16.0507 1.30909C 17.6772 2.18182 18.9355 3.36623 19.8562 4.92467C 20.7769 6.45194 21.2372 8.19739 21.2372 10.0987C 21.2372 12 20.7769 13.7454 19.8562 15.2727C 18.9355 16.8 17.6772 18.0156 16.0507 18.8883C 14.4241 19.761 12.6134 20.1974 10.5879 20.1974C 8.59309 20.1974 6.7824 19.761 5.18654 18.8883ZM 13.8717 15.7091C 14.8231 15.148 15.5903 14.3688 16.112 13.4026C 16.6645 12.4363 16.91 11.3143 16.91 10.0987C 16.91 8.88311 16.6338 7.76103 16.112 6.7948C 15.5596 5.82856 14.8231 5.04934 13.8717 4.51947C 12.8896 3.95844 11.8155 3.67792 10.5879 3.67792C 9.39102 3.67792 8.31688 3.95844 7.3655 4.51947C 6.41413 5.08051 5.64689 5.82856 5.09447 6.7948C 4.54206 7.76103 4.26585 8.85194 4.26585 10.0987C 4.26585 11.3143 4.54206 12.4363 5.09447 13.4026C 5.64689 14.3688 6.41413 15.148 7.3655 15.7091C 8.31688 16.2701 9.39102 16.5506 10.5879 16.5506C 11.8155 16.5506 12.8896 16.2701 13.8717 15.7091Z"/>
<path id="path2_fill" d="M 14.5469 19.6363L 9.7286 12.8104L 4.84896 19.6363L -9.36573e-07 19.6363L 7.36551 9.66233L 0.368273 0L 5.15585 0L 9.7593 6.42077L 14.3627 0L 19.0582 0L 12.0303 9.56882L 19.4572 19.6363L 14.5469 19.6363Z"/>
<path id="path3_fill" d="M 6.44482 3.42857L 0 3.42857L 0 0L 16.5724 0L 16.5724 3.42857L 10.4345 3.42857L 10.4345 19.6363L 6.44482 19.6363L 6.44482 3.42857Z"/>
<path id="path4_fill" d="M 12.061 19.6363L 8.19413 14.026L 7.85654 14.026L 3.98965 14.026L 3.98965 19.6363L 0 19.6363L 0 0L 7.85654 0C 10.4652 0 12.5214 0.498701 14.0252 1.74545C 15.5289 2.9922 16.2655 4.64415 16.2655 6.85713C 16.2655 8.32207 15.9279 9.53765 15.222 10.5974C 14.5162 11.6571 13.5341 12.5922 12.2145 13.1532L 16.6338 19.6363L 12.061 19.6363ZM 10.8641 4.08311C 10.1276 3.4909 9.02274 3.11688 7.54964 3.11688L 3.98965 3.11688L 3.98965 10.5974L 7.54964 10.5974C 8.99205 10.5974 10.0969 10.1922 10.8641 9.56882C 11.6007 8.94544 11.9996 7.97921 11.9996 6.82597C 11.9996 5.67272 11.6314 4.70649 10.8641 4.08311Z"/>
<path id="path5_fill" d="M 5.18654 18.8883C 3.55999 18.0156 2.30172 16.8 1.38103 15.2727C 0.460346 13.7454 1.87314e-06 12 1.87314e-06 10.0987C 1.87314e-06 8.19739 0.460346 6.45194 1.38103 4.92467C 2.30172 3.3974 3.55999 2.18182 5.18654 1.30909C 6.81309 0.436363 8.59309 -5.94498e-08 10.5879 -5.94498e-08C 12.6134 -5.94498e-08 14.4241 0.436363 16.0507 1.30909C 17.6772 2.18182 18.9355 3.36623 19.8562 4.92467C 20.7769 6.45194 21.2372 8.19739 21.2372 10.0987C 21.2372 12 20.7769 13.7454 19.8562 15.2727C 18.9355 16.8 17.6772 18.0156 16.0507 18.8883C 14.4241 19.761 12.6134 20.1974 10.5879 20.1974C 8.62378 20.1974 6.81309 19.761 5.18654 18.8883ZM 13.8717 15.7091C 14.8231 15.148 15.5903 14.3688 16.112 13.4026C 16.6645 12.4363 16.91 11.3143 16.91 10.0987C 16.91 8.88311 16.6338 7.76103 16.112 6.7948C 15.5596 5.82856 14.8231 5.04934 13.8717 4.51947C 12.9203 3.95844 11.8155 3.70909 10.6186 3.70909C 9.42171 3.70909 8.34758 3.98961 7.3962 4.55064C 6.44482 5.11168 5.67757 5.85973 5.12516 6.82596C 4.57275 7.7922 4.29655 8.88311 4.29655 10.1299C 4.29655 11.3454 4.57275 12.4675 5.12516 13.4337C 5.67757 14.4 6.44482 15.1792 7.3962 15.7402C 8.34758 16.3013 9.42171 16.5818 10.6186 16.5818C 11.8155 16.5506 12.9203 16.2701 13.8717 15.7091Z"/>
<path id="path6_fill" d="M 6.75171 3.42857L 0 3.42857L 0 0L 16.8793 0L 16.8793 3.42857L 10.7414 3.42857L 10.7414 19.6363L 6.75171 19.6363L 6.75171 3.42857Z"/>
</defs>
</svg>
