<svg width="29" height="27" viewBox="0 0 29 27" fill="none" xmlns="http://www.w3.org/2000/svg"><path d="M15.684 24.429V7.714h7.23V12.6l-3.494 7.457c-.241.386-.12.9 0 1.286.24.386.602.643 1.084.643h7.23c.362 0 .844-.257 1.085-.643s.241-.9 0-1.286L25.325 12.6V7.714h2.41V5.143h-12.05V0h-2.41v5.143H1.223v2.571h2.41V12.6L.139 20.057c-.24.386-.12.9 0 1.286.241.257.723.514 1.085.514h7.23c.361 0 .843-.257 1.085-.643.24-.385.24-.9 0-1.285L6.044 12.6V7.714h7.23V24.43H.02V27h28.92v-2.571H15.685zm10.123-5.143h-3.374l1.687-3.6 1.687 3.6zm-19.281 0H3.152l1.687-3.6 1.687 3.6z" fill="#4F4F4F"/></svg>