<svg width="16" height="15" viewBox="0 0 16 15" xmlns="http://www.w3.org/2000/svg" xmlns:xlink="http://www.w3.org/1999/xlink"><title>flashlight</title><desc>Created using Figma</desc><use xlink:href="#a" transform="translate(0 2.055)" fill="#E54415"/><use xlink:href="#b" transform="translate(11.073 1.838)" fill="#E54415"/><use xlink:href="#c" transform="translate(12.503 4.793)" fill="#E54415"/><use xlink:href="#d" transform="translate(9.123)" fill="#E54415"/><defs><path id="a" d="M13.02 4.981L8.11.183a.647.647 0 0 0-.902 0l-1.17 1.145c-.06.058-.116.116-.171.178l-.003.002-.001.002a3.947 3.947 0 0 0-.912 3.596L.625 9.334A2.07 2.07 0 0 0 .626 12.3c.419.407.968.61 1.516.61a2.16 2.16 0 0 0 1.514-.611l4.329-4.231a4.15 4.15 0 0 0 3.652-.875l.007-.005.008-.006.01-.009.007-.007c.06-.05.122-.105.18-.16l1.17-1.142a.618.618 0 0 0 0-.883zM2.754 11.417a.885.885 0 0 1-1.227 0 .84.84 0 0 1-.002-1.201l.79-.772a.643.643 0 0 0 .524.27.64.64 0 0 0 .451-.182L4.356 8.49a.614.614 0 0 0-.09-.954L5.491 6.34c.05.076.107.148.163.22.03.04.055.08.086.117a3.996 3.996 0 0 0 .636.622c.04.03.082.057.122.087.073.053.144.108.22.156l-3.963 3.874zm5.253-4.638a2.808 2.808 0 0 1-1.737-1.69l-.01-.03a2.724 2.724 0 0 1 .168-2.172l1.892 1.85 1.928 1.885a2.897 2.897 0 0 1-2.241.157zm3.237-.947L7.24 1.916l.42-.41 4.006 3.916-.42.41z"/><path id="b" d="M2.164.183a.648.648 0 0 0-.901 0L.187 1.235a.614.614 0 0 0 0 .882.644.644 0 0 0 .902 0l1.075-1.052a.614.614 0 0 0 0-.882z"/><path id="c" d="M2.16 0H.637A.63.63 0 0 0 0 .624a.63.63 0 0 0 .638.623h1.521a.63.63 0 0 0 .638-.623A.63.63 0 0 0 2.159 0z"/><path id="d" d="M.638 0A.63.63 0 0 0 0 .624v1.488a.63.63 0 0 0 .638.623.63.63 0 0 0 .637-.623V.623A.63.63 0 0 0 .638 0z"/></defs></svg>