<svg width="16" height="14" viewBox="0 0 16 14" xmlns="http://www.w3.org/2000/svg" xmlns:xlink="http://www.w3.org/1999/xlink"><title>Group</title><desc>Created using Figma</desc><use xlink:href="#a" transform="translate(3.96 3.856)" fill="#E54415"/><use xlink:href="#b" fill="#E54415"/><defs><path id="a" d="M3.96 0C1.742 0 0 1.697 0 3.856c0 2.16 1.742 3.856 3.96 3.856s3.96-1.697 3.96-3.856C7.92 1.696 6.178 0 3.96 0zm0 6.17c-1.346 0-2.376-1.003-2.376-2.314 0-1.311 1.03-2.314 2.376-2.314 1.346 0 2.376 1.003 2.376 2.314 0 1.31-1.03 2.313-2.376 2.313z"/><path id="b" d="M14.256 2.314h-2.772L10.375.694C10.058.231 9.583 0 9.03 0H6.732c-.475 0-1.03.231-1.267.694l-1.109 1.62H1.584C.713 2.314 0 3.008 0 3.856v8.483c0 .848.713 1.542 1.584 1.542h12.672c.871 0 1.584-.694 1.584-1.542V3.856c0-.848-.713-1.542-1.584-1.542zM1.584 12.339V3.856h3.564l1.584-2.314h2.297l1.584 2.314h3.643v8.483H1.584z"/></defs></svg>