<svg width="18" height="15" viewBox="0 0 18 15" xmlns="http://www.w3.org/2000/svg" xmlns:xlink="http://www.w3.org/1999/xlink"><title>Group 3</title><desc>Created using Figma</desc><use xlink:href="#a" fill="#E54415"/><use xlink:href="#b" transform="translate(4.5 2.641)" fill="#E54415"/><use xlink:href="#c" transform="translate(4.5 5.282)" fill="#E54415"/><use xlink:href="#d" transform="translate(4.5 7.923)" fill="#E54415"/><defs><path id="a" d="M.9 0L0 .88v11.444l.9.88h.9v.88h1.8v-.88h10.8v.88h1.8v-.88h.9l.9-.88V.88L17.1 0H.9zm15.3 11.444H1.8V1.76h14.4v9.683z"/><path id="b" d="M7.65 2.64C8.415 2.64 9 2.07 9 1.32 9 .572 8.415 0 7.65 0c-.585 0-1.08.352-1.26.88H0v.88h6.39c.18.529.675.88 1.26.88zm0-1.76c.27 0 .45.176.45.44 0 .265-.18.44-.45.44s-.45-.175-.45-.44c0-.264.18-.44.45-.44z"/><path id="c" d="M3.15 0c-.585 0-1.08.352-1.26.88H0v.88h1.89c.18.529.675.88 1.26.88s1.08-.351 1.26-.88H9V.88H4.41A1.309 1.309 0 0 0 3.15 0zm0 1.76c-.27 0-.45-.175-.45-.44 0-.264.18-.44.45-.44s.45.176.45.44c0 .265-.18.44-.45.44z"/><path id="d" d="M7.65 0c-.585 0-1.08.352-1.26.88H0v.88h6.39c.18.529.675.88 1.26.88.765 0 1.35-.57 1.35-1.32C9 .572 8.415 0 7.65 0zm0 1.76c-.27 0-.45-.175-.45-.44 0-.264.18-.44.45-.44s.45.176.45.44c0 .265-.18.44-.45.44z"/></defs></svg>