<svg width="27" height="32" viewBox="0 0 27 32" xmlns="http://www.w3.org/2000/svg"><g fill="#00102A"><path d="M26.965 8.24c-.016-.865-.032-1.68-.032-2.47 0-.619-.503-1.12-1.125-1.12-4.81 0-8.472-1.377-11.524-4.333a1.128 1.128 0 0 0-1.569 0C9.663 3.273 6.001 4.65 1.192 4.65c-.622 0-1.125.5-1.125 1.12 0 .79-.016 1.606-.032 2.47-.154 8.04-.366 19.051 13.096 23.698a1.129 1.129 0 0 0 .737 0C27.33 27.291 27.119 16.28 26.965 8.24zM13.5 29.69C1.954 25.515 2.13 16.365 2.284 8.283c.01-.485.018-.955.024-1.416 4.505-.19 8.108-1.55 11.191-4.225 3.085 2.676 6.688 4.035 11.193 4.225.006.46.015.93.024 1.415.155 8.083.33 17.232-11.217 21.41z"/><path d="M17.373 12.11l-5.429 5.405-2.316-2.307a1.128 1.128 0 0 0-1.59 0 1.117 1.117 0 0 0 0 1.584l3.11 3.099a1.125 1.125 0 0 0 1.591 0l6.224-6.198c.44-.437.44-1.146 0-1.584a1.128 1.128 0 0 0-1.59 0z"/></g></svg>