<svg width="16" height="15" viewBox="0 0 16 15" xmlns="http://www.w3.org/2000/svg" xmlns:xlink="http://www.w3.org/1999/xlink"><title>teddy-bear</title><desc>Created using Figma</desc><path d="M0 0h15.3v14.965H0V0z" fill="#FFF"/><use xlink:href="#a" transform="translate(5.143 2.88)" fill="#E54415"/><use xlink:href="#b" fill="#E54415"/><defs><path id="a" d="M2.507 3.74c1.406 0 2.508-.677 2.508-1.543 0-.381-.214-.726-.572-.992a.49.49 0 0 0 .039-.189v-.46C4.482.25 4.194 0 3.84 0c-.354 0-.64.249-.64.556v.155a4.12 4.12 0 0 0-1.383 0V.556C1.816.25 1.529 0 1.174 0 .82 0 .534.249.534.556v.46c0 .067.013.13.038.189-.359.266-.572.611-.572.992C0 3.063 1.101 3.74 2.507 3.74zm0-1.975c.762 0 1.225.3 1.225.432s-.463.431-1.225.431-1.224-.3-1.224-.431c0-.132.462-.432 1.224-.432z"/><path id="b" d="M14.5 10.171a2.168 2.168 0 0 0-.522-.273c-.208-1.334-1.164-2.464-2.49-3.062.936-.709 1.449-1.633 1.449-2.62a2.9 2.9 0 0 0-.34-1.346c.38-.307.603-.74.603-1.211C13.2.744 12.342 0 11.288 0c-.638 0-1.219.278-1.57.712A7.135 7.135 0 0 0 7.65.41c-.714 0-1.418.103-2.069.302C5.231.278 4.65 0 4.012 0 2.958 0 2.1.744 2.1 1.659c0 .471.224.904.603 1.21-.224.428-.34.886-.34 1.346 0 .988.513 1.912 1.448 2.62-1.325.598-2.281 1.73-2.49 3.063a2.17 2.17 0 0 0-.521.273c-.552.397-.841 1.028-.795 1.732.042.652.36 1.32.895 1.879a3.87 3.87 0 0 0 1.963 1.11c.227.05.453.073.672.073.542 0 1.046-.147 1.439-.43.12-.086.227-.185.322-.292a21.047 21.047 0 0 0 4.708 0c.095.107.202.205.322.292.393.283.897.43 1.44.43.218 0 .444-.024.67-.073a3.879 3.879 0 0 0 1.964-1.11c.534-.56.853-1.227.895-1.879.046-.704-.244-1.335-.795-1.732zM11.67 8.3c.476.39.822.898.977 1.47a3.676 3.676 0 0 0-.978.28V8.3zM3.645 4.216c0-.43.148-.841.44-1.223a.494.494 0 0 0 .076-.475.598.598 0 0 0-.378-.35c-.244-.083-.402-.283-.402-.51 0-.3.283-.546.63-.546.297 0 .556.182.617.433.04.168.168.31.345.385a.73.73 0 0 0 .562 0 5.488 5.488 0 0 1 2.114-.408c.749 0 1.48.142 2.113.409a.73.73 0 0 0 .563-.001.576.576 0 0 0 .345-.385c.061-.25.32-.433.617-.433.347 0 .63.245.63.547 0 .226-.158.426-.402.509a.598.598 0 0 0-.378.35.494.494 0 0 0 .077.475c.291.382.44.793.44 1.223 0 1.485-1.797 2.693-4.005 2.693S3.646 5.7 3.646 4.216zM3.63 8.3v1.75a3.678 3.678 0 0 0-.978-.28c.155-.572.501-1.08.978-1.47zm.524 5.38c-.321.23-.754.182-.984.133a2.589 2.589 0 0 1-1.283-.741c-.356-.372-.576-.821-.603-1.231-.013-.205.012-.583.334-.814.166-.12.38-.176.616-.176.53 0 1.175.286 1.65.784.688.719.811 1.655.27 2.044zm6.231-5.917v3.206c-.51.55-.813 1.2-.855 1.834-.008.124-.005.246.008.365-1.255.12-2.523.12-3.778 0a2.16 2.16 0 0 0 .007-.365c-.041-.635-.345-1.284-.854-1.834V7.763a.484.484 0 0 0-.016-.121c.086-.025.174-.047.263-.066.757.29 1.607.445 2.489.445.882 0 1.732-.154 2.49-.445.088.019.176.041.262.066a.485.485 0 0 0-.016.121zm3.629 4.078c-.027.41-.247.859-.603 1.23a2.589 2.589 0 0 1-1.284.742c-.229.049-.662.097-.983-.134-.541-.39-.418-1.325.27-2.044.687-.719 1.725-.997 2.266-.608.321.231.347.609.334.814z"/></defs></svg>