<svg width="42" height="13" viewBox="0 0 42 13" xmlns="http://www.w3.org/2000/svg"><g fill="none"><path d="M15.4 12.66L17.533.408h3.334L18.8 12.66h-3.4z" fill="#3C58BF"/><path d="M15.4 12.66L18.133.408h2.734L18.8 12.66h-3.4z" fill="#293688"/><path d="M30.867.545C30.2.272 29.133 0 27.8 0c-3.333 0-5.733 1.702-5.733 4.152 0 1.838 1.666 2.79 3 3.403C26.4 8.168 26.8 8.575 26.8 9.12c0 .817-1.067 1.226-2 1.226-1.333 0-2.067-.205-3.2-.681l-.467-.204-.466 2.79c.8.34 2.266.68 3.8.68 3.533 0 5.866-1.7 5.866-4.287 0-1.43-.866-2.518-2.866-3.403-1.2-.613-1.934-.953-1.934-1.566 0-.544.6-1.089 1.934-1.089 1.133 0 1.933.205 2.533.477l.333.136.534-2.654z" fill="#3C58BF"/><path d="M30.867.545C30.2.272 29.133 0 27.8 0c-3.333 0-5.133 1.702-5.133 4.152 0 1.838 1.066 2.79 2.4 3.403C26.4 8.168 26.8 8.575 26.8 9.12c0 .817-1.067 1.226-2 1.226-1.333 0-2.067-.205-3.2-.681l-.467-.204-.466 2.79c.8.34 2.266.68 3.8.68 3.533 0 5.866-1.7 5.866-4.287 0-1.43-.866-2.518-2.866-3.403-1.2-.613-1.934-.953-1.934-1.566 0-.544.6-1.089 1.934-1.089 1.133 0 1.933.205 2.533.477l.333.136.534-2.654z" fill="#293688"/><path d="M36.6.408c-.8 0-1.4.068-1.733.885l-5 11.367h3.6l.666-2.042H38.4l.4 2.042H42L39.2.408h-2.6zm-1.533 8.168c.2-.613 1.333-3.607 1.333-3.607s.267-.75.467-1.226l.2 1.158s.666 3.062.8 3.743h-2.8v-.068z" fill="#3C58BF"/><path d="M37.4.408c-.8 0-1.4.068-1.733.885l-5.8 11.367h3.6l.666-2.042H38.4l.4 2.042H42L39.2.408h-1.8zm-2.333 8.168c.266-.68 1.333-3.607 1.333-3.607s.267-.75.467-1.226l.2 1.158s.666 3.062.8 3.743h-2.8v-.068z" fill="#293688"/><path d="M9.267 8.984l-.334-1.77c-.6-2.041-2.533-4.287-4.666-5.376l3 10.89h3.6l5.4-12.252h-3.6l-3.4 8.508z" fill="#3C58BF"/><path d="M9.267 8.984l-.334-1.77c-.6-2.041-2.533-4.287-4.666-5.376l3 10.89h3.6l5.4-12.252h-2.934L9.267 8.984z" fill="#293688"/><path d="M0 .408l.6.137c4.267 1.02 7.2 3.607 8.333 6.67l-1.2-5.786C7.533.613 6.933.41 6.2.41H0z" fill="#FFBC00"/><path d="M0 .408C4.267 1.43 7.8 4.084 8.933 7.147L7.8 2.314c-.2-.817-.867-1.293-1.6-1.293L0 .408z" fill="#F7981D"/><path d="M0 .408C4.267 1.43 7.8 4.084 8.933 7.147l-.8-2.655c-.2-.817-.466-1.633-1.4-1.974L0 .408z" fill="#ED7C00"/><path d="M12.6 8.576l-2.267-2.314-1.066 2.586L9 7.147C8.4 5.105 6.467 2.859 4.333 1.77l3 10.89h3.6L12.6 8.576zm6.2 4.084l-2.867-2.995-.533 2.995h3.4zm7.667-4.22c.266.272.4.476.333.748 0 .817-1.067 1.226-2 1.226-1.333 0-2.067-.205-3.2-.681l-.467-.204-.466 2.79c.8.34 2.266.681 3.8.681 2.133 0 3.866-.613 4.866-1.702L26.467 8.44zm3.866 4.22h3.134l.666-2.042H38.4l.4 2.042H42l-1.133-4.97-4-3.948.2 1.09s.666 3.062.8 3.743h-2.8A341.12 341.12 0 0 0 36.4 4.969s.267-.75.467-1.226" fill="#051244"/></g></svg>