<svg width="20" height="18" viewBox="0 0 20 18" xmlns="http://www.w3.org/2000/svg"><g fill="#EF4123"><path d="M18.666 5.563V2.338C18.666 1.048 17.63 0 16.357 0H2.309C1.036 0 0 1.049 0 2.338v13.324C0 16.952 1.036 18 2.31 18h14.047c1.273 0 2.31-1.049 2.31-2.338v-3.225A2.06 2.06 0 0 0 20 10.505v-3.01a2.06 2.06 0 0 0-1.334-1.932zm-1.192 10.099c0 .623-.501 1.13-1.117 1.13H2.309a1.125 1.125 0 0 1-1.116-1.13V2.338c0-.623.5-1.13 1.116-1.13h14.048c.616 0 1.117.507 1.117 1.13v3.1H14.79c-1.94 0-3.519 1.598-3.519 3.562 0 1.965 1.579 3.563 3.519 3.563h2.683v3.099zm1.333-5.157c0 .469-.376.85-.84.85h-3.176c-1.283 0-2.326-1.056-2.326-2.355 0-1.298 1.043-2.355 2.326-2.355h3.177c.463 0 .84.381.84.85v3.01z"/><path d="M15.069 7.169c-.997 0-1.809.821-1.809 1.831s.812 1.832 1.809 1.832c.997 0 1.809-.822 1.809-1.832 0-1.01-.812-1.831-1.809-1.831zm0 2.455A.62.62 0 0 1 14.453 9a.62.62 0 0 1 .616-.624c.34 0 .616.28.616.624a.62.62 0 0 1-.616.624z"/></g></svg>