<svg width="28" height="28" viewBox="0 0 28 28" fill="none" xmlns="http://www.w3.org/2000/svg">
<path d="M11.0258 0C10.0611 0 8.95849 0.408637 8.26938 1.0897C7.58026 0.408637 6.47768 0 5.51292 0C2.20517 0 0 2.17939 0 5.44848C0 10.2159 6.75333 14.3023 7.58026 14.8471C7.71809 14.9833 7.99373 14.9833 8.26938 14.9833C8.54502 14.9833 8.82067 14.9833 8.95849 14.8471C9.78543 14.3023 16.5388 10.2159 16.5388 5.44848C16.5388 2.17939 14.3336 0 11.0258 0ZM8.26938 11.9867C6.33986 10.6245 2.75646 7.76409 2.75646 5.44848C2.75646 4.63121 3.03211 2.72424 5.51292 2.72424C6.06421 2.72424 6.89115 3.54151 6.89115 4.08636C6.89115 4.90364 7.44244 5.44848 8.26938 5.44848C9.09632 5.44848 9.64761 4.90364 9.64761 4.08636C9.64761 3.54151 10.4745 2.72424 11.0258 2.72424C13.5067 2.72424 13.7823 4.63121 13.7823 5.44848C13.7823 7.76409 10.1989 10.6245 8.26938 11.9867Z" transform="translate(5.5127 6.81055)" fill="#BDBDBD"/>
<path d="M13.7823 27.2424C6.20203 27.2424 0 21.1129 0 13.6212C0 6.12955 6.20203 0 13.7823 0C21.3626 0 27.5646 6.12955 27.5646 13.6212C27.5646 21.1129 21.3626 27.2424 13.7823 27.2424ZM13.7823 2.72424C7.71809 2.72424 2.75646 7.62788 2.75646 13.6212C2.75646 19.6145 7.71809 24.5182 13.7823 24.5182C19.8465 24.5182 24.8081 19.6145 24.8081 13.6212C24.8081 7.62788 19.8465 2.72424 13.7823 2.72424Z" fill="#BDBDBD"/>
</svg>
