<svg width="24" height="22" viewBox="0 0 24 22" version="1.1" xmlns="http://www.w3.org/2000/svg" xmlns:xlink="http://www.w3.org/1999/xlink">
<title>Group</title>
<desc>Created using Figma</desc>
<g id="Canvas" transform="translate(-564 493)">
<g id="Group">
<g id="Vector">
<use xlink:href="#path0_fill" transform="translate(564.706 -492.06)" fill="#BDBDBD"/>
</g>
</g>
</g>
<defs>
<path id="path0_fill" d="M 12.5601 19.0545L 12.5601 6.01721L 18.3502 6.01721L 18.3502 9.82811L 15.5517 15.6448C 15.3587 15.9456 15.4552 16.3468 15.5517 16.6476C 15.7447 16.9485 16.0342 17.1491 16.4202 17.1491L 22.2103 17.1491C 22.4998 17.1491 22.8858 16.9485 23.0788 16.6476C 23.2718 16.3468 23.2718 15.9456 23.0788 15.6448L 20.2802 9.82811L 20.2802 6.01721L 22.2103 6.01721L 22.2103 4.01147L 12.5601 4.01147L 12.5601 0L 10.6301 0L 10.6301 4.01147L 0.979943 4.01147L 0.979943 6.01721L 2.90997 6.01721L 2.90997 9.82811L 0.11143 15.6448C -0.0815726 15.9456 0.0149288 16.3468 0.11143 16.6476C 0.304433 16.8482 0.690439 17.0488 0.979943 17.0488L 6.77003 17.0488C 7.05954 17.0488 7.44554 16.8482 7.63854 16.5473C 7.83155 16.2465 7.83155 15.8453 7.63854 15.5445L 4.84 9.82811L 4.84 6.01721L 10.6301 6.01721L 10.6301 19.0545L 0.0149288 19.0545L 0.0149288 21.0602L 23.1753 21.0602L 23.1753 19.0545L 12.5601 19.0545ZM 20.6662 15.043L 17.9642 15.043L 19.3152 12.235L 20.6662 15.043ZM 5.22601 15.043L 2.52397 15.043L 3.87499 12.235L 5.22601 15.043Z"/>
</defs>
</svg>
