<svg width="22" height="22" viewBox="0 0 22 22" version="1.1" xmlns="http://www.w3.org/2000/svg" xmlns:xlink="http://www.w3.org/1999/xlink">
<title>Group</title>
<desc>Created using Figma</desc>
<g id="Canvas" transform="translate(-526 493)">
<g id="Group">
<g id="Vector">
<use xlink:href="#path0_fill" transform="translate(530.202 -486.795)" fill="#BDBDBD"/>
</g>
<g id="Group">
<g id="Vector">
<use xlink:href="#path1_fill" transform="translate(526 -492.06)" fill="#BDBDBD"/>
</g>
</g>
</g>
</g>
<defs>
<path id="path0_fill" d="M 8.40471 0C 7.66929 0 6.82882 0.315904 6.30353 0.84241C 5.77824 0.315904 4.93776 0 4.20235 0C 1.68094 0 0 1.68482 0 4.21205C 0 7.89759 5.14788 11.0566 5.77824 11.4778C 5.88329 11.5831 6.09341 11.5831 6.30353 11.5831C 6.51365 11.5831 6.72376 11.5831 6.82882 11.4778C 7.45918 11.0566 12.6071 7.89759 12.6071 4.21205C 12.6071 1.68482 10.9261 0 8.40471 0ZM 6.30353 9.26651C 4.83271 8.21349 2.10118 6.00217 2.10118 4.21205C 2.10118 3.58024 2.31129 2.10602 4.20235 2.10602C 4.62259 2.10602 5.25294 2.73783 5.25294 3.15904C 5.25294 3.79084 5.67318 4.21205 6.30353 4.21205C 6.93388 4.21205 7.35412 3.79084 7.35412 3.15904C 7.35412 2.73783 7.98447 2.10602 8.40471 2.10602C 10.2958 2.10602 10.5059 3.58024 10.5059 4.21205C 10.5059 6.00217 7.77435 8.21349 6.30353 9.26651Z"/>
<path id="path1_fill" d="M 10.5059 21.0602C 4.72765 21.0602 0 16.3217 0 10.5301C 0 4.73855 4.72765 0 10.5059 0C 16.2841 0 21.0118 4.73855 21.0118 10.5301C 21.0118 16.3217 16.2841 21.0602 10.5059 21.0602ZM 10.5059 2.10602C 5.88329 2.10602 2.10118 5.89687 2.10118 10.5301C 2.10118 15.1634 5.88329 18.9542 10.5059 18.9542C 15.1285 18.9542 18.9106 15.1634 18.9106 10.5301C 18.9106 5.89687 15.1285 2.10602 10.5059 2.10602Z"/>
</defs>
</svg>
