<svg width="20" height="20" viewBox="0 0 20 20" xmlns="http://www.w3.org/2000/svg" xmlns:xlink="http://www.w3.org/1999/xlink"><title>Vector</title><desc>Created using Figma</desc><use xlink:href="#a" fill="#E54415"/><defs><path id="a" d="M19.7 18.3l-5.4-5.4C15.4 11.5 16 9.8 16 8c0-2.1-.8-4.1-2.3-5.7C12.1.8 10.1 0 8 0S3.9.8 2.3 2.3C.8 3.9 0 5.9 0 8s.8 4.1 2.3 5.7C3.9 15.2 5.9 16 8 16c1.8 0 3.5-.6 4.9-1.7l5.4 5.4 1.4-1.4zM3.8 12.2C2.6 11.1 2 9.6 2 8s.6-3.1 1.8-4.2C4.9 2.6 6.4 2 8 2s3.1.6 4.2 1.8C13.4 4.9 14 6.4 14 8s-.6 3.1-1.8 4.2C11.1 13.4 9.6 14 8 14s-3.1-.6-4.2-1.8z"/></defs></svg>