<svg width="8" height="13" viewBox="0 0 8 13" version="1.1" xmlns="http://www.w3.org/2000/svg" xmlns:xlink="http://www.w3.org/1999/xlink">
<title>Vector</title>
<desc>Created using Figma</desc>
<g id="Canvas" transform="translate(-374 234)">
<g id="Vector">
<use xlink:href="#path0_stroke" transform="matrix(-4.38129e-08 -1 1 -4.36101e-08 375 -222.379)" fill="#E54415"/>
</g>
</g>
<defs>
<path id="path0_stroke" d="M 11.3286 0.706286C 11.7187 0.315309 11.718 -0.317855 11.327 -0.707926C 10.936 -1.098 10.3028 -1.09726 9.91276 -0.706286L 11.3286 0.706286ZM 5.31034 5.32268L 4.60242 6.02896C 4.79002 6.217 5.04473 6.32268 5.31034 6.32268C 5.57596 6.32268 5.83067 6.217 6.01827 6.02896L 5.31034 5.32268ZM 0.707926 -0.706286C 0.317855 -1.09726 -0.315309 -1.098 -0.706286 -0.707926C -1.09726 -0.317855 -1.098 0.315309 -0.707926 0.706286L 0.707926 -0.706286ZM 9.91276 -0.706286L 4.60242 4.61639L 6.01827 6.02896L 11.3286 0.706286L 9.91276 -0.706286ZM 6.01827 4.61639L 0.707926 -0.706286L -0.707926 0.706286L 4.60242 6.02896L 6.01827 4.61639Z"/>
</defs>
</svg>
