<svg width="16" height="15" viewBox="0 0 16 15" version="1.1" xmlns="http://www.w3.org/2000/svg" xmlns:xlink="http://www.w3.org/1999/xlink">
<g id="Canvas" fill="none">
<g id="teddy-bear">
<rect width="15.3" height="14.9651" fill="white"/>
<g id="Group">
<g id="Group_2">
<g id="Group_3">
<g id="Vector">
<path d="M 2.50735 3.74077C 3.91337 3.74077 5.01476 3.06257 5.01476 2.19686C 5.01476 1.81599 4.80138 1.47145 4.44286 1.20498C 4.46747 1.14591 4.48163 1.08247 4.48163 1.01608L 4.48163 0.556193C 4.48163 0.249034 4.19446 -2.29374e-08 3.84027 -2.29374e-08C 3.48608 -2.29374e-08 3.19892 0.249034 3.19892 0.556193L 3.19892 0.710724C 2.97993 0.673394 2.74824 0.65305 2.50735 0.65305C 2.26647 0.65305 2.03477 0.673394 1.81579 0.710724L 1.81579 0.556193C 1.81579 0.249034 1.52862 -2.29374e-08 1.17443 -2.29374e-08C 0.820242 -2.29374e-08 0.533076 0.249034 0.533076 0.556193L 0.533076 1.01608C 0.533076 1.08252 0.547232 1.14591 0.571846 1.20498C 0.213323 1.47145 -1.41064e-07 1.81599 -1.41064e-07 2.19686C -1.41064e-07 3.06262 1.1014 3.74077 2.50735 3.74077ZM 2.50735 1.76539C 3.26935 1.76539 3.73205 2.06508 3.73205 2.19686C 3.73205 2.32869 3.26935 2.62839 2.50735 2.62839C 1.74535 2.62839 1.28265 2.32869 1.28265 2.19686C 1.28265 2.06503 1.74535 1.76539 2.50735 1.76539Z" transform="translate(5.14264 2.88017)" fill="#E54415"/>
</g>
<g id="Vector_2">
<path d="M 14.5002 10.1712C 14.3426 10.0579 14.1668 9.96707 13.9781 9.89802C 13.7702 8.56411 12.8138 7.43354 11.4886 6.83566C 12.424 6.12724 12.9368 5.20291 12.9368 4.21554C 12.9368 3.75455 12.8207 3.29742 12.5974 2.8696C 12.9762 2.56305 13.2003 2.13007 13.2003 1.65876C 13.2002 0.744095 12.3422 0 11.2875 0C 10.6501 0 10.069 0.278046 9.71876 0.711576C 9.06811 0.513351 8.36395 0.410029 7.6499 0.410029C 6.93586 0.410029 6.23176 0.513351 5.58104 0.711576C 5.23084 0.278046 4.6498 0 4.01232 0C 2.95761 0 2.09964 0.744095 2.09964 1.65871C 2.09964 2.13007 2.32371 2.5631 2.70251 2.86955C 2.47925 3.29742 2.36311 3.75455 2.36311 4.21549C 2.36311 5.20286 2.87596 6.12714 3.8113 6.83561C 2.48612 7.43349 1.52975 8.56406 1.3218 9.89792C 1.13321 9.96697 0.957272 10.0578 0.799706 10.1711C 0.248372 10.5676 -0.0413359 11.1991 0.00477232 11.9035C 0.0474716 12.5554 0.365491 13.2224 0.900474 13.7817C 1.4354 14.3411 2.13251 14.7355 2.86331 14.8924C 3.09033 14.9411 3.31561 14.9651 3.53454 14.9651C 4.07721 14.9651 4.5807 14.8178 4.97354 14.5353C 5.09401 14.4486 5.2012 14.3501 5.29595 14.2427C 6.07436 14.3303 6.86005 14.375 7.65002 14.375C 8.43998 14.375 9.22567 14.3303 10.0041 14.2427C 10.0988 14.3501 10.206 14.4485 10.3265 14.5353C 10.7193 14.8178 11.2227 14.9651 11.7655 14.9651C 11.9844 14.9651 12.2098 14.9411 12.4367 14.8924C 13.1675 14.7355 13.8646 14.3411 14.3996 13.7817C 14.9345 13.2225 15.2526 12.5554 15.2953 11.9035C 15.3412 11.1992 15.0514 10.5677 14.5002 10.1712ZM 11.6691 8.29975C 12.1456 8.69028 12.4922 9.19827 12.6471 9.77C 12.5618 9.78137 12.476 9.7956 12.39 9.81414C 12.1442 9.86691 11.9024 9.94713 11.6691 10.0509L 11.6691 8.29975L 11.6691 8.29975ZM 3.64576 4.21554C 3.64576 3.78597 3.79362 3.37469 4.08518 2.99317C 4.1923 2.85297 4.22061 2.67824 4.16203 2.5179C 4.10344 2.35755 3.96436 2.22883 3.78368 2.1677C 3.53991 2.08522 3.38235 1.88539 3.38235 1.65866C 3.38235 1.35741 3.66495 1.11233 4.01232 1.11233C 4.30856 1.11233 4.5677 1.29428 4.6286 1.54496C 4.66928 1.71252 4.79674 1.85448 4.97406 1.92979C 5.15139 2.0051 5.35882 2.00535 5.53649 1.93059C 6.17028 1.66352 6.90113 1.52236 7.64996 1.52236C 8.39879 1.52236 9.12958 1.66352 9.76343 1.93059C 9.94099 2.0054 10.1485 2.00515 10.3259 1.92979C 10.5032 1.85443 10.6306 1.71252 10.6713 1.54496C 10.7322 1.29433 10.9913 1.11239 11.2875 1.11239C 11.635 1.11239 11.9175 1.35746 11.9175 1.65871C 11.9175 1.88544 11.76 2.08527 11.5162 2.16775C 11.3355 2.22888 11.1964 2.35766 11.1378 2.51795C 11.0792 2.67829 11.1075 2.85302 11.2147 2.99322C 11.5062 3.37474 11.6541 3.78597 11.6541 4.21559C 11.6541 5.70057 9.85784 6.90876 7.64996 6.90876C 5.44208 6.90876 3.64576 5.70057 3.64576 4.21554ZM 3.63074 8.2997L 3.63074 10.0508C 3.39748 9.94708 3.15568 9.86681 2.90988 9.81404C 2.82379 9.7956 2.7381 9.78132 2.65276 9.7699C 2.80761 9.19822 3.15429 8.69023 3.63074 8.2997ZM 4.15463 13.6792C 3.83355 13.9101 3.40084 13.862 3.17145 13.8127C 2.71158 13.714 2.24368 13.4439 1.8877 13.0717C 1.53178 12.6995 1.31221 12.2508 1.28535 11.8406C 1.27194 11.636 1.29742 11.2583 1.6185 11.0274C 1.7852 10.9075 1.99881 10.8509 2.23484 10.8509C 2.76572 10.8509 3.40962 11.1374 3.88538 11.6348C 4.57278 12.3536 4.69603 13.2897 4.15463 13.6792ZM 10.3864 7.7633L 10.3864 10.969C 9.87639 11.5191 9.57293 12.1681 9.53139 12.803C 9.52324 12.9273 9.52613 13.0492 9.53855 13.1681C 8.28403 13.2888 7.01583 13.2888 5.76131 13.1681C 5.77374 13.0492 5.77657 12.9273 5.76848 12.803C 5.72693 12.1681 5.42347 11.5191 4.91351 10.969L 4.91351 7.7633C 4.91351 7.72151 4.90779 7.68097 4.89768 7.64183C 4.98394 7.61698 5.07165 7.59498 5.16081 7.57614C 5.91801 7.86662 6.7683 8.02115 7.64996 8.02115C 8.53162 8.02115 9.38185 7.86662 10.1391 7.57614C 10.2283 7.59503 10.316 7.61703 10.4022 7.64183C 10.3921 7.68097 10.3864 7.72156 10.3864 7.7633ZM 14.0145 11.8406C 13.9876 12.2508 13.768 12.6995 13.4121 13.0717C 13.0561 13.4439 12.5882 13.714 12.1284 13.8127C 11.899 13.8619 11.4663 13.9101 11.1452 13.6791C 10.6038 13.2897 10.7271 12.3536 11.4144 11.6348C 12.1017 10.9162 13.1398 10.638 13.6812 11.0274C 14.0024 11.2584 14.0279 11.636 14.0145 11.8406Z" fill="#E54415"/>
</g>
</g>
</g>
</g>
</g>
</g>
</svg>

