<svg width="18" height="15" viewBox="0 0 18 15" version="1.1" xmlns="http://www.w3.org/2000/svg" xmlns:xlink="http://www.w3.org/1999/xlink">
<g id="Canvas" fill="none">
<g id="Group 3">
<g id="Group">
<g id="Vector">
<path d="M 0.9 0L 0 0.880299L 0 12.3242L 0.9 13.2045L 1.8 13.2045L 1.8 14.0848L 3.6 14.0848L 3.6 13.2045L 14.4 13.2045L 14.4 14.0848L 16.2 14.0848L 16.2 13.2045L 17.1 13.2045L 18 12.3242L 18 0.880299L 17.1 0L 0.9 0ZM 16.2 11.4439L 1.8 11.4439L 1.8 1.7606L 16.2 1.7606L 16.2 11.4439Z" fill="#E54415"/>
</g>
</g>
<g id="Group_2">
<g id="Group_3">
<g id="Vector_2">
<path d="M 7.65 2.6409C 8.415 2.6409 9 2.0687 9 1.32045C 9 0.572195 8.415 0 7.65 0C 7.065 0 6.57 0.35212 6.39 0.880299L 0 0.880299L 0 1.7606L 6.39 1.7606C 6.57 2.28878 7.065 2.6409 7.65 2.6409ZM 7.65 0.880299C 7.92 0.880299 8.1 1.05636 8.1 1.32045C 8.1 1.58454 7.92 1.7606 7.65 1.7606C 7.38 1.7606 7.2 1.58454 7.2 1.32045C 7.2 1.05636 7.38 0.880299 7.65 0.880299Z" transform="translate(4.5 2.6409)" fill="#E54415"/>
</g>
<g id="Vector_3">
<path d="M 3.15 0C 2.565 0 2.07 0.35212 1.89 0.880299L 0 0.880299L 0 1.7606L 1.89 1.7606C 2.07 2.28878 2.565 2.6409 3.15 2.6409C 3.735 2.6409 4.23 2.28878 4.41 1.7606L 9 1.7606L 9 0.880299L 4.41 0.880299C 4.23 0.35212 3.735 0 3.15 0ZM 3.15 1.7606C 2.88 1.7606 2.7 1.58454 2.7 1.32045C 2.7 1.05636 2.88 0.880299 3.15 0.880299C 3.42 0.880299 3.6 1.05636 3.6 1.32045C 3.6 1.58454 3.42 1.7606 3.15 1.7606Z" transform="translate(4.5 5.28179)" fill="#E54415"/>
</g>
<g id="Vector_4">
<path d="M 7.65 0C 7.065 0 6.57 0.35212 6.39 0.880299L 0 0.880299L 0 1.7606L 6.39 1.7606C 6.57 2.28878 7.065 2.6409 7.65 2.6409C 8.415 2.6409 9 2.0687 9 1.32045C 9 0.572195 8.415 0 7.65 0ZM 7.65 1.7606C 7.38 1.7606 7.2 1.58454 7.2 1.32045C 7.2 1.05636 7.38 0.880299 7.65 0.880299C 7.92 0.880299 8.1 1.05636 8.1 1.32045C 8.1 1.58454 7.92 1.7606 7.65 1.7606Z" transform="translate(4.5 7.92269)" fill="#E54415"/>
</g>
</g>
</g>
</g>
</g>
</svg>

