<svg width="19" height="17" viewBox="0 0 19 17" version="1.1" xmlns="http://www.w3.org/2000/svg" xmlns:xlink="http://www.w3.org/1999/xlink">
<title>Vector</title>
<desc>Created using Figma</desc>
<g id="Canvas" transform="translate(695 403)">
<g id="Vector">
<use xlink:href="#path0_fill" transform="translate(-695 -403)" fill="#E54415"/>
</g>
</g>
<defs>
<path id="path0_fill" d="M 19 6.58781C 19 6.32356 18.7869 6.15934 18.3604 6.09499L 12.6286 5.31316L 10.0596 0.43913C 9.91503 0.146327 9.72838 -8.58756e-09 9.50006 -8.58756e-09C 9.27178 -8.58756e-09 9.08525 0.146327 8.94059 0.43913L 6.37139 5.31316L 0.639339 6.09499C 0.213166 6.15934 0 6.32356 0 6.58781C 0 6.73785 0.095185 6.90924 0.285515 7.10206L 4.44182 10.8941L 3.45985 16.25C 3.44462 16.35 3.43706 16.4216 3.43706 16.4643C 3.43706 16.6143 3.47697 16.741 3.55688 16.8446C 3.63675 16.9484 3.75657 17 3.9165 17C 4.0536 17 4.20578 16.9573 4.37323 16.8716L 9.49994 14.3433L 14.6269 16.8713C 14.7869 16.9571 14.9391 17 15.0835 17C 15.3959 17 15.5519 16.8218 15.5519 16.4646C 15.5519 16.3718 15.5481 16.3004 15.5405 16.2501L 14.5586 10.8944L 18.7033 7.10232C 18.9012 6.91637 19 6.74491 19 6.58781ZM 12.9827 10.4121L 13.8046 14.9219L 9.49994 12.79L 5.18374 14.9219L 6.01733 10.4121L 2.52328 7.23045L 7.34188 6.56635L 9.4999 2.47431L 11.6578 6.56635L 16.4768 7.23045L 12.9827 10.4121Z"/>
</defs>
</svg>
