<svg width="16" height="16" viewBox="0 0 16 16" xmlns="http://www.w3.org/2000/svg" xmlns:xlink="http://www.w3.org/1999/xlink"><title>Vector</title><desc>Created using Figma</desc><use xlink:href="#a" fill="#E54415"/><defs><path id="a" d="M12.672 1.542c-.475 0-.95.077-1.346.309C10.613.694 9.346 0 7.92 0 6.494 0 5.227.694 4.514 1.85c-.396-.23-.87-.308-1.346-.308C1.426 1.542 0 2.93 0 4.627c0 1.465 1.03 2.622 2.376 3.008v7.017c0 .463.317.771.792.771h9.504c.475 0 .792-.308.792-.77V7.634a3.093 3.093 0 0 0 2.376-3.008c0-1.697-1.426-3.085-3.168-3.085zM3.96 13.882v-.772h7.92v.771H3.96zm8.712-7.713c-.475 0-.792.309-.792.772v4.627h-.792V9.254H9.504v2.314h-.792V8.483H7.128v3.085h-.792V9.254H4.752v2.314H3.96V6.94c0-.463-.317-.772-.792-.772-.871 0-1.584-.694-1.584-1.542 0-.848.713-1.542 1.584-1.542.396 0 .871.154 1.109.462.158.232.475.309.792.232.317-.077.475-.309.554-.54A2.44 2.44 0 0 1 7.92 1.542c1.03 0 1.98.694 2.297 1.697a.946.946 0 0 0 .554.54c.238.077.555 0 .792-.232.238-.308.713-.462 1.109-.462.871 0 1.584.694 1.584 1.542 0 .848-.713 1.542-1.584 1.542z"/></defs></svg>