<svg width="18" height="13" viewBox="0 0 18 13" xmlns="http://www.w3.org/2000/svg" xmlns:xlink="http://www.w3.org/1999/xlink"><title>Vector</title><desc>Created using Figma</desc><use xlink:href="#a" transform="translate(.016 .015)" fill="#E54415"/><defs><path id="a" d="M15.417 3.108H12.61l3.04-1.964a.627.627 0 0 0 .187-.856.603.603 0 0 0-.841-.191l-4.661 3.01h-8.68c-.464 0-.909.2-1.221.548a1.71 1.71 0 0 0-.427 1.29C.13 6.33.683 7.657 1.608 8.78a8.308 8.308 0 0 0 2.68 2.118 1.666 1.666 0 0 0 1.63 1.397h5.235c.816 0 1.496-.605 1.63-1.397a8.308 8.308 0 0 0 2.68-2.118c.925-1.123 1.479-2.45 1.602-3.835a1.71 1.71 0 0 0-.427-1.29 1.645 1.645 0 0 0-1.221-.547zm-3.829 7.503a.44.44 0 0 1-.435.444H5.919a.44.44 0 0 1-.436-.444v-.532c-2.365-.931-4.055-2.91-4.262-5.246a.44.44 0 0 1 .434-.485h13.762a.44.44 0 0 1 .434.485c-.208 2.336-1.897 4.315-4.263 5.246v.532z"/></defs></svg>