<svg width="18" height="15" viewBox="0 0 18 15" xmlns="http://www.w3.org/2000/svg"><g fill="#E54415"><path d="M.9 0L0 .88v11.444l.9.88h.9v.88h1.8v-.88h10.8v.88h1.8v-.88h.9l.9-.88V.88L17.1 0H.9zm15.3 11.444H1.8V1.76h14.4v9.683z"/><path d="M12.15 5.282c.765 0 1.35-.572 1.35-1.32 0-.749-.585-1.321-1.35-1.321-.585 0-1.08.352-1.26.88H4.5v.88h6.39c.18.529.675.88 1.26.88zm0-1.76c.27 0 .45.175.45.44 0 .263-.18.44-.45.44s-.45-.177-.45-.44c0-.265.18-.44.45-.44zm-4.5 1.76c-.585 0-1.08.352-1.26.88H4.5v.88h1.89c.18.529.675.88 1.26.88s1.08-.351 1.26-.88h4.59v-.88H8.91a1.309 1.309 0 0 0-1.26-.88zm0 1.76c-.27 0-.45-.176-.45-.44s.18-.44.45-.44.45.176.45.44-.18.44-.45.44zm4.5.881c-.585 0-1.08.352-1.26.88H4.5v.88h6.39c.18.528.675.88 1.26.88.765 0 1.35-.572 1.35-1.32 0-.748-.585-1.32-1.35-1.32zm0 1.76c-.27 0-.45-.176-.45-.44s.18-.44.45-.44.45.176.45.44-.18.44-.45.44z"/></g></svg>