<svg width="19" height="17" viewBox="0 0 19 17" xmlns="http://www.w3.org/2000/svg" xmlns:xlink="http://www.w3.org/1999/xlink"><title>Vector</title><desc>Created using Figma</desc><use xlink:href="#a" fill="#E54415"/><defs><path id="a" d="M19 6.588c0-.264-.213-.429-.64-.493l-5.731-.782L10.059.44C9.916.146 9.73 0 9.5 0c-.228 0-.415.146-.56.44L6.372 5.312.64 6.095c-.427.064-.64.229-.64.493 0 .15.095.321.286.514l4.156 3.792-.982 5.356c-.015.1-.023.172-.023.214 0 .15.04.277.12.38.08.104.2.156.36.156.137 0 .289-.043.456-.128L9.5 14.343l5.127 2.528c.16.086.312.129.457.129.312 0 .468-.178.468-.535a1.53 1.53 0 0 0-.011-.215l-.982-5.356 4.144-3.792c.198-.186.297-.357.297-.514zm-6.017 3.824l.822 4.51L9.5 12.79l-4.316 2.132.833-4.51L2.523 7.23l4.819-.664L9.5 2.474l2.158 4.092 4.819.664-3.494 3.182z"/></defs></svg>