<svg width="17" height="15" viewBox="0 0 17 15" xmlns="http://www.w3.org/2000/svg" xmlns:xlink="http://www.w3.org/1999/xlink"><title>Vector</title><desc>Created using Figma</desc><use xlink:href="#a" fill="#E54415"/><defs><path id="a" d="M15.39 0H2.43c-.486 0-.81.313-.81.782v4.695c0 .47.324.783.81.783h.81v1.565H.81V9.39h2.43v.782h1.62V9.39h.81V7.825h-.81V6.26h2.43v6.26H0v1.565h16.2V.782c0-.469-.324-.782-.81-.782zM8.1 4.695H3.24v-3.13h11.34v.782h-3.24v1.565h3.24v.783h-3.24V6.26h3.24v.782h-2.43c-.486 0-.81.313-.81.783v4.695H8.91V5.477c0-.47-.324-.782-.81-.782zm4.86 7.825V8.607h1.62v3.913h-1.62z"/></defs></svg>