<svg width="22" height="22" viewBox="0 0 22 22" xmlns="http://www.w3.org/2000/svg" xmlns:xlink="http://www.w3.org/1999/xlink"><title>Group</title><desc>Created using Figma</desc><use xlink:href="#a" transform="translate(4.202 6.205)" fill="#BDBDBD"/><use xlink:href="#b" transform="translate(0 .94)" fill="#BDBDBD"/><defs><path id="a" d="M8.405 0c-.736 0-1.576.316-2.101.842C5.778.316 4.938 0 4.202 0 1.681 0 0 1.685 0 4.212c0 3.686 5.148 6.845 5.778 7.266.105.105.315.105.526.105.21 0 .42 0 .525-.105.63-.421 5.778-3.58 5.778-7.266C12.607 1.685 10.927 0 8.405 0zM6.304 9.267C4.833 8.213 2.1 6.002 2.1 4.212c0-.632.21-2.106 2.101-2.106.42 0 1.05.632 1.05 1.053 0 .632.421 1.053 1.052 1.053.63 0 1.05-.421 1.05-1.053 0-.421.63-1.053 1.05-1.053 1.892 0 2.102 1.474 2.102 2.106 0 1.79-2.732 4.001-4.202 5.055z"/><path id="b" d="M10.506 21.06C4.728 21.06 0 16.322 0 10.53 0 4.74 4.728 0 10.506 0c5.778 0 10.506 4.739 10.506 10.53 0 5.792-4.728 10.53-10.506 10.53zm0-18.954c-4.623 0-8.405 3.79-8.405 8.424 0 4.633 3.782 8.424 8.405 8.424 4.623 0 8.405-3.79 8.405-8.424 0-4.633-3.783-8.424-8.405-8.424z"/></defs></svg>