<svg width="24" height="22" viewBox="0 0 24 22" xmlns="http://www.w3.org/2000/svg" xmlns:xlink="http://www.w3.org/1999/xlink"><title>Group</title><desc>Created using Figma</desc><use xlink:href="#a" transform="translate(.706 .94)" fill="#BDBDBD"/><defs><path id="a" d="M12.56 19.055V6.017h5.79v3.811l-2.798 5.817c-.193.3-.097.702 0 1.003.193.3.482.501.868.501h5.79c.29 0 .676-.2.869-.501a.94.94 0 0 0 0-1.003L20.28 9.828v-3.81h1.93V4.01h-9.65V0h-1.93v4.011H.98v2.006h1.93v3.811L.111 15.645c-.193.3-.096.702 0 1.003.193.2.58.4.869.4h5.79c.29 0 .676-.2.869-.5a.94.94 0 0 0 0-1.003L4.84 9.828v-3.81h5.79v13.037H.015v2.005h23.16v-2.005H12.56zm8.106-4.012h-2.702l1.351-2.808 1.351 2.808zm-15.44 0H2.524l1.351-2.808 1.351 2.808z"/></defs></svg>