<svg width="12" height="12" viewBox="0 0 12 12" xmlns="http://www.w3.org/2000/svg"><g fill="#EF4123"><path d="M6 0C2.692 0 0 2.691 0 6s2.692 6 6 6 6-2.691 6-6-2.692-6-6-6zm0 11.539A5.545 5.545 0 0 1 .462 6 5.545 5.545 0 0 1 6 .462 5.545 5.545 0 0 1 11.539 6 5.545 5.545 0 0 1 6 11.539z"/><path d="M8.24 3.76a.23.23 0 0 0-.326 0L6 5.674 4.086 3.76a.23.23 0 1 0-.326.326L5.674 6 3.76 7.914a.23.23 0 1 0 .326.326L6 6.326 7.914 8.24a.23.23 0 0 0 .326 0 .23.23 0 0 0 0-.326L6.326 6 8.24 4.086a.23.23 0 0 0 0-.326z"/></g></svg>