<svg width="36" height="22" viewBox="0 0 36 22" xmlns="http://www.w3.org/2000/svg"><g fill="none"><path d="M36 11c0 6.053-4.8 11-10.8 11-5.943 0-10.8-4.947-10.8-11S19.2 0 25.143 0C31.2 0 36 4.947 36 11z" fill="#FFB600"/><path d="M25.2 0C31.143 0 36 4.947 36 11s-4.8 11-10.8 11c-5.943 0-10.8-4.947-10.8-11" fill="#F7981D"/><path d="M25.2 0C31.143 0 36 4.947 36 11s-4.8 11-10.8 11" fill="#FF8500"/><path d="M10.686 0C4.8.058 0 4.947 0 11s4.8 11 10.8 11c2.8 0 5.314-1.106 7.257-2.852.4-.35.743-.756 1.086-1.164h-2.229a13.87 13.87 0 0 1-.8-1.106h3.829c.228-.349.457-.756.628-1.164h-5.085a7.016 7.016 0 0 1-.457-1.164h5.942c.343-1.106.572-2.27.572-3.492 0-.815-.114-1.571-.229-2.328h-6.628c.057-.407.171-.756.285-1.164h5.943a7.007 7.007 0 0 0-.457-1.164H15.43c.171-.407.4-.756.628-1.164h3.829a5.53 5.53 0 0 0-.857-1.164h-2.115A9.828 9.828 0 0 1 18 2.968C16.114 1.164 13.543.116 10.743.116c0-.116 0-.116-.057-.116z" fill="#FF5050"/><path d="M0 11c0 6.053 4.8 11 10.8 11 2.8 0 5.314-1.106 7.257-2.852.4-.35.743-.757 1.086-1.164h-2.229a13.87 13.87 0 0 1-.8-1.106h3.829c.228-.349.457-.756.628-1.164h-5.085a7.016 7.016 0 0 1-.457-1.164h5.942c.343-1.106.572-2.27.572-3.492 0-.815-.114-1.571-.229-2.328h-6.628c.057-.407.171-.756.285-1.164h5.943a7.007 7.007 0 0 0-.457-1.164H15.43c.171-.407.4-.757.628-1.164h3.829a5.53 5.53 0 0 0-.857-1.164h-2.115A9.827 9.827 0 0 1 18 2.968C16.114 1.164 13.543.116 10.743.116h-.057" fill="#E52836"/><path d="M10.8 22c2.8 0 5.314-1.106 7.257-2.852.4-.35.743-.757 1.086-1.164h-2.229a13.87 13.87 0 0 1-.8-1.106h3.829c.228-.349.457-.756.628-1.164h-5.085a7.011 7.011 0 0 1-.457-1.164h5.942c.343-1.106.572-2.27.572-3.492 0-.815-.114-1.571-.229-2.328h-6.628c.057-.407.171-.756.285-1.164h5.943a7.013 7.013 0 0 0-.457-1.164H15.43c.171-.407.4-.757.628-1.164h3.829a5.528 5.528 0 0 0-.857-1.164h-2.115A9.832 9.832 0 0 1 18 2.968C16.114 1.164 13.543.116 10.743.116h-.057" fill="#CB2026"/><path d="M14.629 13.794l.171-.99c-.057 0-.171.058-.286.058-.4 0-.457-.232-.4-.349l.343-2.037h.629l.171-1.106h-.571l.114-.698h-1.143s-.686 3.841-.686 4.307c0 .698.4.99.915.99.343 0 .628-.117.743-.175zm.399-1.863c0 1.63 1.086 2.037 2 2.037.858 0 1.2-.174 1.2-.174l.23-1.106s-.63.29-1.2.29c-1.258 0-1.03-.93-1.03-.93h2.343s.172-.757.172-1.048c0-.757-.4-1.688-1.657-1.688-1.2-.116-2.058 1.164-2.058 2.62zm2-1.688c.63 0 .515.757.515.815h-1.257c0-.058.114-.815.742-.815zm7.258 3.551l.228-1.28s-.571.29-.971.29c-.8 0-1.143-.64-1.143-1.338 0-1.397.686-2.154 1.486-2.154.571 0 1.028.35 1.028.35l.172-1.223s-.686-.29-1.315-.29c-1.314 0-2.628 1.163-2.628 3.375 0 1.455.686 2.444 2.057 2.444.457 0 1.086-.174 1.086-.174zM8.343 9.196c-.8 0-1.372.233-1.372.233l-.171.989s.514-.233 1.257-.233c.4 0 .743.058.743.408 0 .232-.057.29-.057.29h-.514c-.972 0-2.058.408-2.058 1.747 0 1.047.686 1.28 1.086 1.28.8 0 1.143-.524 1.2-.524l-.057.466h1.029l.457-3.201c0-1.397-1.143-1.455-1.543-1.455zm.228 2.619c0 .174-.114 1.106-.8 1.106-.342 0-.457-.291-.457-.466 0-.291.172-.698 1.029-.698a.886.886 0 0 0 .228.058zm2.4 2.095c.286 0 1.715.058 1.715-1.513 0-1.455-1.372-1.164-1.372-1.746 0-.291.229-.408.629-.408.171 0 .8.059.8.059l.171-1.048s-.4-.116-1.085-.116c-.858 0-1.715.349-1.715 1.513 0 1.338 1.429 1.222 1.429 1.746 0 .349-.4.407-.686.407-.514 0-1.028-.174-1.028-.174l-.172 1.047c.057.117.343.233 1.314.233zm22.8-5.645l-.228 1.571s-.457-.582-1.086-.582c-1.028 0-1.943 1.28-1.943 2.794 0 .93.457 1.92 1.429 1.92.686 0 1.086-.465 1.086-.465l-.058.407h1.143l.857-5.587-1.2-.058zm-.514 3.084c0 .64-.286 1.455-.914 1.455-.4 0-.629-.349-.629-.931 0-.931.4-1.513.915-1.513.4 0 .628.29.628.99zM2.114 13.852l.686-4.19.114 4.19h.8L5.2 9.662l-.629 4.19h1.2l.915-5.587H4.8l-1.143 3.433L3.6 8.265H1.943l-.914 5.587h1.085zm17.715 0c.342-1.92.4-3.492 1.2-3.201.114-.757.285-1.048.4-1.339H21.2c-.514 0-.914.699-.914.699l.114-.64h-1.086l-.743 4.539h1.258v-.058zm7.085-4.656c-.8 0-1.371.233-1.371.233l-.172.989s.515-.233 1.258-.233c.4 0 .742.058.742.408 0 .232-.057.29-.057.29H26.8c-.971 0-2.057.408-2.057 1.747 0 1.047.686 1.28 1.086 1.28.8 0 1.142-.524 1.2-.524l-.058.466H28l.457-3.201c.057-1.397-1.143-1.455-1.543-1.455zm.286 2.619c0 .174-.114 1.106-.8 1.106-.343 0-.457-.291-.457-.466 0-.291.171-.698 1.028-.698.172.058.172.058.229.058zm2.229 2.037c.342-1.92.4-3.492 1.2-3.201.114-.757.285-1.048.4-1.339H30.8c-.514 0-.914.699-.914.699L30 9.37h-1.086l-.743 4.539h1.258v-.058z" fill="#fff"/><path d="M12.857 12.979c0 .698.4.99.914.99.4 0 .743-.117.858-.175l.171-.99c-.057 0-.171.058-.286.058-.4 0-.457-.232-.4-.349l.343-2.037h.629l.171-1.106h-.571l.114-.698m.8 3.259c0 1.63.514 2.037 1.429 2.037.857 0 1.2-.174 1.2-.174l.228-1.106s-.628.29-1.2.29c-1.257 0-1.028-.93-1.028-.93h2.342s.172-.757.172-1.048c0-.757-.4-1.688-1.657-1.688-1.2-.116-1.486 1.164-1.486 2.62zm1.429-1.688c.628 0 .742.757.742.815h-1.485c0-.058.114-.815.743-.815zm7.257 3.551l.228-1.28s-.571.29-.971.29c-.8 0-1.143-.64-1.143-1.338 0-1.397.686-2.154 1.486-2.154.571 0 1.028.35 1.028.35l.172-1.223s-.686-.29-1.315-.29c-1.314 0-2.057 1.163-2.057 3.375 0 1.455.115 2.444 1.486 2.444.457 0 1.086-.174 1.086-.174zM6.8 10.476s.514-.233 1.257-.233c.4 0 .743.059.743.408 0 .233-.057.29-.057.29h-.514c-.972 0-2.058.408-2.058 1.747 0 1.047.686 1.28 1.086 1.28.8 0 1.143-.524 1.2-.524l-.057.466h1.029l.457-3.201c0-1.339-1.143-1.397-1.6-1.397L6.8 10.476zm2.343 1.339c0 .174-.686 1.106-1.372 1.106-.342 0-.457-.291-.457-.466 0-.291.172-.698 1.029-.698.171.058.8.058.8.058zm.571 1.979s.343.116 1.315.116c.285 0 1.714.058 1.714-1.513 0-1.455-1.372-1.164-1.372-1.746 0-.291.229-.408.629-.408.171 0 .8.059.8.059l.171-1.048s-.4-.116-1.085-.116c-.857 0-1.143.349-1.143 1.513 0 1.338.857 1.222.857 1.746 0 .349-.4.407-.686.407m22.629-2.968s-.457-.582-1.086-.582c-1.028 0-1.371 1.28-1.371 2.794 0 .93-.115 1.92.857 1.92.685 0 1.085-.465 1.085-.465l-.057.407h1.143l.857-5.587-1.428 1.513zm-.057 1.513c0 .64-.515 1.455-1.143 1.455-.4 0-.629-.349-.629-.931 0-.931.4-1.513.915-1.513.4 0 .857.29.857.99zM2.114 13.852l.686-4.19.114 4.19h.8L5.2 9.662l-.629 4.19h1.2l.915-5.587H5.257l-1.6 3.433L3.6 8.265h-.629L1.03 13.852h1.085zm16.514 0h1.2c.343-1.92.4-3.492 1.2-3.201.115-.757.286-1.048.4-1.339H21.2c-.514 0-.914.699-.914.699l.114-.64m4.971 1.105s.515-.233 1.258-.233c.4 0 .742.059.742.408 0 .233-.057.29-.057.29H26.8c-.971 0-2.057.408-2.057 1.747 0 1.047.686 1.28 1.086 1.28.8 0 1.142-.524 1.2-.524l-.058.466H28l.457-3.201c0-1.339-1.143-1.397-1.6-1.397l-1.486 1.164zm2.343 1.339c0 .174-.685 1.106-1.371 1.106-.343 0-.457-.291-.457-.466 0-.291.171-.698 1.028-.698.229.058.8.058.8.058zm.515 2.037h1.2c.342-1.92.4-3.492 1.2-3.201.114-.757.285-1.048.4-1.339h-.23c-.513 0-.913.699-.913.699L30 9.37" fill="#DCE5E5"/></g></svg>