<svg width="18" height="18" viewBox="0 0 18 18" xmlns="http://www.w3.org/2000/svg" xmlns:xlink="http://www.w3.org/1999/xlink"><title>watch</title><desc>Created using Figma</desc><use xlink:href="#a" fill="#E54415"/><use xlink:href="#b" transform="translate(8.459 7.367)" fill="#E54415"/><use xlink:href="#c" transform="translate(4.242 4.269)" fill="#E54415"/><defs><path id="a" d="M17.535 3.675l-3.21-3.21a1.577 1.577 0 0 0-2.036-.17l-2.7 1.89a6.82 6.82 0 0 0-5.45 1.982 6.82 6.82 0 0 0-1.98 5.45L.293 12.288a1.577 1.577 0 0 0 .17 2.036l3.212 3.21c.548.549 1.404.62 2.035.17l2.673-1.864a6.818 6.818 0 0 0 5.062-1.622l.387.387a.527.527 0 1 0 .746-.746l-.387-.387a6.817 6.817 0 0 0 1.623-5.062l1.89-2.7a1.577 1.577 0 0 0-.17-2.036zM5.105 16.842l-.004.004a.526.526 0 0 1-.68-.056l-3.21-3.211a.526.526 0 0 1-.057-.68l.004-.004 1.282-1.84a6.822 6.822 0 0 0 1.7 2.805 6.822 6.822 0 0 0 2.804 1.7l-1.839 1.282zm7.983-3.728a5.797 5.797 0 0 1-8.203 0 5.797 5.797 0 0 1 0-8.202 5.797 5.797 0 0 1 8.203 0 5.797 5.797 0 0 1 0 8.202zM16.846 5.1l-.003.004-1.31 1.87a6.821 6.821 0 0 0-1.7-2.808 6.821 6.821 0 0 0-2.807-1.7l1.87-1.309.003-.003a.526.526 0 0 1 .68.056l3.21 3.211a.526.526 0 0 1 .057.68z"/><path id="b" d="M2.019.154a.527.527 0 0 0-.746 0L.154 1.273a.527.527 0 0 0 0 .746l.746.745a.527.527 0 0 0 .746-.745l-.373-.373L2.019.9a.527.527 0 0 0 0-.746z"/><path id="c" d="M8.1 1.39v-.001a4.748 4.748 0 0 0-6.71 0h-.001a4.747 4.747 0 0 0 0 6.71 4.714 4.714 0 0 0 3.356 1.389c1.268 0 2.46-.493 3.355-1.388a4.747 4.747 0 0 0 0-6.71zm-.4 5.565l-.346-.346a.527.527 0 0 0-.745.745l.346.346a3.7 3.7 0 0 1-4.42 0l.345-.346a.527.527 0 1 0-.745-.745l-.347.346a3.699 3.699 0 0 1 0-4.421l.347.346a.527.527 0 0 0 .745-.745l-.346-.346a3.698 3.698 0 0 1 4.42 0l-.345.346a.527.527 0 1 0 .745.745l.347-.346a3.699 3.699 0 0 1 0 4.42z"/></defs></svg>