<svg width="8" height="13" viewBox="0 0 8 13" xmlns="http://www.w3.org/2000/svg" xmlns:xlink="http://www.w3.org/1999/xlink"><title>Vector</title><desc>Created using Figma</desc><use xlink:href="#a" transform="rotate(-90 6.31 5.31)" fill="#E54415"/><defs><path id="a" d="M11.329.706A1 1 0 1 0 9.913-.706L11.329.706zM5.31 5.323l-.708.706a1 1 0 0 0 1.416 0l-.708-.706zM.708-.707A1 1 0 1 0-.708.707L.708-.706zm9.205 0l-5.31 5.323L6.017 6.03l5.31-5.323L9.914-.706zM6.018 4.617L.708-.706-.708.706l5.31 5.323 1.416-1.413z"/></defs></svg>