<svg width="16" height="15" viewBox="0 0 16 15" xmlns="http://www.w3.org/2000/svg"><path d="M13.02 7.036L8.11 2.237a.647.647 0 0 0-.902 0l-1.17 1.146c-.06.058-.116.116-.171.178l-.003.002-.001.002a3.947 3.947 0 0 0-.912 3.596L.625 11.389a2.07 2.07 0 0 0 .001 2.966c.419.407.968.61 1.516.61a2.16 2.16 0 0 0 1.514-.611l4.329-4.231a4.15 4.15 0 0 0 3.652-.875l.007-.005.008-.007.01-.008.007-.007c.06-.05.122-.105.18-.161l1.17-1.141a.618.618 0 0 0 0-.883zM2.754 13.472a.885.885 0 0 1-1.227 0 .84.84 0 0 1-.002-1.201l.79-.773a.643.643 0 0 0 .524.27.638.638 0 0 0 .451-.181l1.065-1.041a.614.614 0 0 0-.09-.954L5.49 8.396c.05.076.107.148.163.22.03.04.055.08.086.117a3.996 3.996 0 0 0 .636.622c.04.03.082.057.122.087.073.053.144.107.22.155l-3.963 3.875zm5.253-4.638a2.808 2.808 0 0 1-1.737-1.69l-.01-.03a2.724 2.724 0 0 1 .168-2.172l1.892 1.85 1.928 1.884a2.897 2.897 0 0 1-2.241.158zm3.237-.947L7.24 3.97l.42-.41 4.006 3.917-.42.41zm1.994-5.866a.648.648 0 0 0-.902 0L11.26 3.073a.614.614 0 0 0 0 .882.644.644 0 0 0 .902 0l1.076-1.052a.614.614 0 0 0 0-.882zm1.424 2.772h-1.521a.63.63 0 0 0-.638.624.63.63 0 0 0 .638.623h1.521a.63.63 0 0 0 .638-.623.63.63 0 0 0-.638-.624zM9.76 0a.63.63 0 0 0-.637.624v1.488a.63.63 0 0 0 .637.623.63.63 0 0 0 .638-.623V.624A.63.63 0 0 0 9.76 0z" fill="#E54415"/></svg>